STARTFONT 2.1
COMMENT 
COMMENT This file has been produced by ttf2bdf written by Subhabrata Biswas
COMMENT 
COMMENT For comments, questions, bug reports, send a mail to
COMMENT                                           subhabrata.biswas@usa.net
COMMENT 
FONT -*-Arial Narrow-Medium-R-Normal--28-210-96-96-c-10--fontspecific
SIZE 21 96 96
FONTBOUNDINGBOX 33 33 -5 -9
STARTPROPERTIES 15
FOUNDRY "Misc"
FAMILY_NAME "Arial Narrow"
WEIGHT_NAME "Medium"
SLANT "R"
SETWIDTH_NAME "Normal"
PIXEL_SIZE 14
POINT_SIZE 210
RESOLUTION_X 96
RESOLUTION_Y 96
SPACING "C"
CHARSET_ENCODING "fontspecific"
FONT_ASCENT 26
FONT_DESCENT 7
DEFAULT_CHAR 31
COPYRIGHT "You may wish to put your copyright here"
ENDPROPERTIES
CHARS 226
STARTCHAR C0030
ENCODING 30
SWIDTH 214 0
DWIDTH 6 0
BBX 5 18 1 0
BITMAP
F8
88
88
88
88
88
88
88
88
88
88
88
88
88
88
88
88
F8
ENDCHAR
STARTCHAR C0031
ENCODING 31
SWIDTH 214 0
DWIDTH 6 0
BBX 5 18 1 0
BITMAP
F8
88
88
88
88
88
88
88
88
88
88
88
88
88
88
88
88
F8
ENDCHAR
STARTCHAR C0032- 
ENCODING 32
SWIDTH 214 0
DWIDTH 6 0
BBX 1 1 0 -1
BITMAP
00
ENDCHAR
STARTCHAR C0033-!
ENCODING 33
SWIDTH 214 0
DWIDTH 6 0
BBX 2 20 2 0
BITMAP
C0
C0
C0
C0
C0
C0
C0
C0
C0
C0
C0
C0
C0
C0
C0
00
00
00
C0
C0
ENDCHAR
STARTCHAR C0034-"
ENCODING 34
SWIDTH 285 0
DWIDTH 8 0
BBX 5 7 1 13
BITMAP
D8
D8
D8
D8
D8
D8
D8
ENDCHAR
STARTCHAR C0035-#
ENCODING 35
SWIDTH 500 0
DWIDTH 14 0
BBX 14 20 0 0
BITMAP
0C30
0C30
0C30
1C70
1860
1860
FFFC
FFFC
1860
1860
30C0
30C0
FFFC
FFFC
30C0
30C0
30C0
6180
6180
6180
ENDCHAR
STARTCHAR C0036-$
ENCODING 36
SWIDTH 464 0
DWIDTH 13 0
BBX 11 23 1 -2
BITMAP
0400
1F00
7F80
75C0
E4E0
C460
C400
C400
E400
7C00
3F00
0F80
05C0
0460
0460
C460
C460
E4E0
75C0
3F80
1F00
0400
0400
ENDCHAR
STARTCHAR C0037-%
ENCODING 37
SWIDTH 821 0
DWIDTH 23 0
BBX 20 20 1 0
BITMAP
3C0300
7E0700
E70600
C30E00
C30C00
C31C00
C31800
C33000
663000
7E63C0
3C67E0
00CE70
00CC30
018C30
018C30
030C30
030C30
060660
0607E0
0C03C0
ENDCHAR
STARTCHAR C0038-&
ENCODING 38
SWIDTH 535 0
DWIDTH 15 0
BBX 14 20 1 0
BITMAP
0F00
1F80
39C0
30C0
30C0
30C0
31C0
1B80
1F00
1C00
3E00
7318
E3B8
C1B0
C0F0
C060
E0F0
71F8
3F9C
1F08
ENDCHAR
STARTCHAR C0039-'
ENCODING 39
SWIDTH 142 0
DWIDTH 4 0
BBX 2 7 1 13
BITMAP
C0
C0
C0
C0
C0
C0
C0
ENDCHAR
STARTCHAR C0040-(
ENCODING 40
SWIDTH 285 0
DWIDTH 8 0
BBX 5 26 2 -6
BITMAP
18
30
30
30
60
60
60
60
C0
C0
C0
C0
C0
C0
C0
C0
C0
C0
60
60
60
60
30
30
30
18
ENDCHAR
STARTCHAR C0041-)
ENCODING 41
SWIDTH 285 0
DWIDTH 8 0
BBX 5 26 1 -6
BITMAP
C0
60
60
60
30
30
30
30
18
18
18
18
18
18
18
18
18
18
30
30
30
30
60
60
60
C0
ENDCHAR
STARTCHAR C0042-*
ENCODING 42
SWIDTH 321 0
DWIDTH 9 0
BBX 8 9 0 11
BITMAP
18
18
DB
FF
3E
3C
3C
66
24
ENDCHAR
STARTCHAR C0043-+
ENCODING 43
SWIDTH 464 0
DWIDTH 13 0
BBX 12 12 0 3
BITMAP
0600
0600
0600
0600
0600
FFF0
FFF0
0600
0600
0600
0600
0600
ENDCHAR
STARTCHAR C0044-,
ENCODING 44
SWIDTH 214 0
DWIDTH 6 0
BBX 3 6 1 -4
BITMAP
60
60
20
20
60
40
ENDCHAR
STARTCHAR C0045--
ENCODING 45
SWIDTH 285 0
DWIDTH 8 0
BBX 6 2 1 6
BITMAP
FC
FC
ENDCHAR
STARTCHAR C0046-.
ENCODING 46
SWIDTH 214 0
DWIDTH 6 0
BBX 2 2 2 0
BITMAP
C0
C0
ENDCHAR
STARTCHAR C0047-/
ENCODING 47
SWIDTH 214 0
DWIDTH 6 0
BBX 8 20 -1 0
BITMAP
06
06
06
06
0C
0C
0C
0C
18
18
18
18
30
30
30
30
60
60
60
60
ENDCHAR
STARTCHAR C0048-0
ENCODING 48
SWIDTH 464 0
DWIDTH 13 0
BBX 11 20 1 0
BITMAP
1F00
3F80
71C0
60C0
60C0
C060
C060
C060
C060
C060
C060
C060
C060
C060
C060
60C0
60C0
71C0
3F80
1F00
ENDCHAR
STARTCHAR C0049-1
ENCODING 49
SWIDTH 464 0
DWIDTH 13 0
BBX 6 20 3 0
BITMAP
0C
0C
1C
3C
7C
CC
8C
0C
0C
0C
0C
0C
0C
0C
0C
0C
0C
0C
0C
0C
ENDCHAR
STARTCHAR C0050-2
ENCODING 50
SWIDTH 464 0
DWIDTH 13 0
BBX 11 20 1 0
BITMAP
1F00
3F80
71C0
60E0
C060
C060
0060
0060
00C0
01C0
0180
0300
0700
0E00
1C00
3800
7000
6000
FFE0
FFE0
ENDCHAR
STARTCHAR C0051-3
ENCODING 51
SWIDTH 464 0
DWIDTH 13 0
BBX 11 20 1 0
BITMAP
1E00
3F80
6180
C0C0
C0C0
00C0
00C0
0180
0F80
0F80
01C0
00E0
0060
0060
C060
C060
60E0
71C0
3F80
1F00
ENDCHAR
STARTCHAR C0052-4
ENCODING 52
SWIDTH 464 0
DWIDTH 13 0
BBX 11 20 1 0
BITMAP
0180
0380
0380
0780
0780
0D80
1D80
1980
3980
3180
7180
6180
C180
FFE0
FFE0
0180
0180
0180
0180
0180
ENDCHAR
STARTCHAR C0053-5
ENCODING 53
SWIDTH 464 0
DWIDTH 13 0
BBX 11 20 1 0
BITMAP
3FC0
3FC0
7000
6000
6000
6000
6F00
FF80
F1C0
C0C0
0060
0060
0060
0060
C060
C060
60C0
71C0
3F80
1F00
ENDCHAR
STARTCHAR C0054-6
ENCODING 54
SWIDTH 464 0
DWIDTH 13 0
BBX 11 20 1 0
BITMAP
0F00
3FC0
30C0
60E0
6060
C000
C000
CF00
FF80
F1C0
E0E0
C060
C060
C060
C060
4060
60C0
71C0
3F80
0F00
ENDCHAR
STARTCHAR C0055-7
ENCODING 55
SWIDTH 464 0
DWIDTH 13 0
BBX 11 20 1 0
BITMAP
FFE0
FFE0
0060
00C0
0180
0180
0300
0600
0600
0600
0C00
0C00
1800
1800
1800
1800
3000
3000
3000
3000
ENDCHAR
STARTCHAR C0056-8
ENCODING 56
SWIDTH 464 0
DWIDTH 13 0
BBX 11 20 1 0
BITMAP
1F00
3F80
3180
60C0
60C0
60C0
60C0
3180
1F00
3F80
71C0
E0E0
C060
C060
C060
C060
E0E0
71C0
3F80
1F00
ENDCHAR
STARTCHAR C0057-9
ENCODING 57
SWIDTH 464 0
DWIDTH 13 0
BBX 11 20 1 0
BITMAP
1E00
3F80
71C0
60C0
C040
C060
C060
C060
C060
E0E0
71E0
3F60
1E60
0060
0060
C0C0
C0C0
6180
7F80
1E00
ENDCHAR
STARTCHAR C0058-:
ENCODING 58
SWIDTH 214 0
DWIDTH 6 0
BBX 2 15 2 0
BITMAP
C0
C0
00
00
00
00
00
00
00
00
00
00
00
C0
C0
ENDCHAR
STARTCHAR C0059-;
ENCODING 59
SWIDTH 214 0
DWIDTH 6 0
BBX 3 19 1 -4
BITMAP
60
60
00
00
00
00
00
00
00
00
00
00
00
60
60
20
20
60
40
ENDCHAR
STARTCHAR C0060-<
ENCODING 60
SWIDTH 464 0
DWIDTH 13 0
BBX 10 13 1 3
BITMAP
0040
01C0
0780
0F00
3C00
F000
C000
F000
3C00
0F00
0780
01C0
0040
ENDCHAR
STARTCHAR C0061-=
ENCODING 61
SWIDTH 464 0
DWIDTH 13 0
BBX 10 8 1 6
BITMAP
FFC0
FFC0
0000
0000
0000
0000
FFC0
FFC0
ENDCHAR
STARTCHAR C0062->
ENCODING 62
SWIDTH 464 0
DWIDTH 13 0
BBX 10 13 1 3
BITMAP
8000
E000
7800
3C00
0F00
03C0
00C0
03C0
0F00
3C00
7800
E000
8000
ENDCHAR
STARTCHAR C0063-?
ENCODING 63
SWIDTH 464 0
DWIDTH 13 0
BBX 11 20 1 0
BITMAP
1F00
3F80
71C0
60E0
C060
C060
0060
0060
00C0
01C0
0380
0700
0E00
0C00
0C00
0C00
0000
0000
0C00
0C00
ENDCHAR
STARTCHAR C0064-@
ENCODING 64
SWIDTH 821 0
DWIDTH 23 0
BBX 22 26 1 -6
BITMAP
00FC00
03FF80
0F03C0
1C00E0
180060
30F330
31FB30
638F18
670E18
660618
C60618
CC0618
CC0618
CC0618
CC0E30
CC0C30
CE1C60
C63CE0
67FFC0
61C700
30000C
380018
1C0030
0F01E0
07FFC0
00FF00
ENDCHAR
STARTCHAR C0065-A
ENCODING 65
SWIDTH 535 0
DWIDTH 15 0
BBX 15 20 0 0
BITMAP
0380
0380
06C0
06C0
06C0
0EE0
0C60
0C60
0C70
1830
1830
1830
3FF8
3FF8
3018
600C
600C
600C
E00E
C006
ENDCHAR
STARTCHAR C0066-B
ENCODING 66
SWIDTH 535 0
DWIDTH 15 0
BBX 12 20 2 0
BITMAP
FF80
FFC0
C0C0
C060
C060
C060
C060
C060
C0C0
FF80
FFE0
C060
C030
C030
C030
C030
C030
C060
FFE0
FF80
ENDCHAR
STARTCHAR C0067-C
ENCODING 67
SWIDTH 607 0
DWIDTH 17 0
BBX 15 20 1 0
BITMAP
07E0
1FF8
3C3C
300C
600E
6004
C000
C000
C000
C000
C000
C000
C000
C004
6006
600E
301C
3838
1FF0
07E0
ENDCHAR
STARTCHAR C0068-D
ENCODING 68
SWIDTH 607 0
DWIDTH 17 0
BBX 13 20 2 0
BITMAP
FF80
FFC0
C0E0
C070
C030
C030
C018
C018
C018
C018
C018
C018
C018
C018
C030
C030
C070
C0E0
FFC0
FF80
ENDCHAR
STARTCHAR C0069-E
ENCODING 69
SWIDTH 535 0
DWIDTH 15 0
BBX 12 20 2 0
BITMAP
FFF0
FFF0
C000
C000
C000
C000
C000
C000
C000
FFE0
FFE0
C000
C000
C000
C000
C000
C000
C000
FFF0
FFF0
ENDCHAR
STARTCHAR C0070-F
ENCODING 70
SWIDTH 500 0
DWIDTH 14 0
BBX 11 20 2 0
BITMAP
FFE0
FFE0
C000
C000
C000
C000
C000
C000
C000
FFC0
FFC0
C000
C000
C000
C000
C000
C000
C000
C000
C000
ENDCHAR
STARTCHAR C0071-G
ENCODING 71
SWIDTH 642 0
DWIDTH 18 0
BBX 16 20 1 0
BITMAP
03F0
0FFC
1C1E
3006
6007
6002
C000
C000
C000
C000
C07F
C07F
C003
C003
6003
6003
3007
1C1F
0FFC
03F0
ENDCHAR
STARTCHAR C0072-H
ENCODING 72
SWIDTH 607 0
DWIDTH 17 0
BBX 13 20 2 0
BITMAP
C018
C018
C018
C018
C018
C018
C018
C018
C018
FFF8
FFF8
C018
C018
C018
C018
C018
C018
C018
C018
C018
ENDCHAR
STARTCHAR C0073-I
ENCODING 73
SWIDTH 214 0
DWIDTH 6 0
BBX 2 20 2 0
BITMAP
C0
C0
C0
C0
C0
C0
C0
C0
C0
C0
C0
C0
C0
C0
C0
C0
C0
C0
C0
C0
ENDCHAR
STARTCHAR C0074-J
ENCODING 74
SWIDTH 392 0
DWIDTH 11 0
BBX 9 20 1 0
BITMAP
0180
0180
0180
0180
0180
0180
0180
0180
0180
0180
0180
0180
0180
0180
C180
C180
C180
6300
7F00
3E00
ENDCHAR
STARTCHAR C0075-K
ENCODING 75
SWIDTH 535 0
DWIDTH 15 0
BBX 12 20 2 0
BITMAP
C060
C0E0
C0C0
C180
C300
C700
C600
CC00
DC00
FC00
F600
E600
C300
C380
C180
C1C0
C0C0
C060
C060
C030
ENDCHAR
STARTCHAR C0076-L
ENCODING 76
SWIDTH 464 0
DWIDTH 13 0
BBX 10 20 2 0
BITMAP
C000
C000
C000
C000
C000
C000
C000
C000
C000
C000
C000
C000
C000
C000
C000
C000
C000
C000
FFC0
FFC0
ENDCHAR
STARTCHAR C0077-M
ENCODING 77
SWIDTH 678 0
DWIDTH 19 0
BBX 15 20 2 0
BITMAP
E00E
E00E
F00E
F01E
F01E
F81E
D836
D836
D836
DC36
CC66
CC66
CC66
C6E6
C6C6
C6C6
C6C6
C386
C386
C386
ENDCHAR
STARTCHAR C0078-N
ENCODING 78
SWIDTH 607 0
DWIDTH 17 0
BBX 13 20 2 0
BITMAP
C018
E018
E018
F018
F818
D818
CC18
CC18
C618
C618
C318
C318
C198
C198
C0D8
C0D8
C078
C078
C038
C018
ENDCHAR
STARTCHAR C0079-O
ENCODING 79
SWIDTH 642 0
DWIDTH 18 0
BBX 16 20 1 0
BITMAP
07E0
0FF0
3C3C
300C
6006
6006
C003
C003
C003
C003
C003
C003
C003
C003
6006
6006
300C
3C3C
0FF0
07E0
ENDCHAR
STARTCHAR C0080-P
ENCODING 80
SWIDTH 535 0
DWIDTH 15 0
BBX 12 20 2 0
BITMAP
FF80
FFE0
C060
C070
C030
C030
C030
C030
C070
C0E0
FFC0
FF80
C000
C000
C000
C000
C000
C000
C000
C000
ENDCHAR
STARTCHAR C0081-Q
ENCODING 81
SWIDTH 642 0
DWIDTH 18 0
BBX 16 22 1 -2
BITMAP
07E0
1FF0
3C3C
300C
6006
6006
C003
C003
C003
C003
C003
C003
C003
C003
6006
60E6
307E
1C3C
0FFE
07E7
0003
0001
ENDCHAR
STARTCHAR C0082-R
ENCODING 82
SWIDTH 607 0
DWIDTH 17 0
BBX 14 20 2 0
BITMAP
FFC0
FFF0
C030
C018
C018
C018
C018
C038
C070
FFE0
FF80
C180
C0C0
C0E0
C060
C070
C030
C038
C018
C00C
ENDCHAR
STARTCHAR C0083-S
ENCODING 83
SWIDTH 535 0
DWIDTH 15 0
BBX 13 20 1 0
BITMAP
0F80
3FE0
3060
6030
6030
6000
6000
7000
3C00
1F80
07C0
01F0
0030
0018
C018
C018
6038
7070
3FE0
0FC0
ENDCHAR
STARTCHAR C0084-T
ENCODING 84
SWIDTH 500 0
DWIDTH 14 0
BBX 12 20 1 0
BITMAP
FFF0
FFF0
0600
0600
0600
0600
0600
0600
0600
0600
0600
0600
0600
0600
0600
0600
0600
0600
0600
0600
ENDCHAR
STARTCHAR C0085-U
ENCODING 85
SWIDTH 607 0
DWIDTH 17 0
BBX 13 20 2 0
BITMAP
C018
C018
C018
C018
C018
C018
C018
C018
C018
C018
C018
C018
C018
C018
C018
C018
6030
7070
3FE0
0F80
ENDCHAR
STARTCHAR C0086-V
ENCODING 86
SWIDTH 535 0
DWIDTH 15 0
BBX 15 20 0 0
BITMAP
C006
C006
600C
600C
600C
3018
3018
3018
1830
1830
1830
1C70
0C60
0C60
0EE0
06C0
06C0
06C0
0380
0380
ENDCHAR
STARTCHAR C0087-W
ENCODING 87
SWIDTH 750 0
DWIDTH 21 0
BBX 21 20 0 0
BITMAP
C07018
607018
60D830
60D830
60D830
60D830
70D830
31CC60
318C60
318C60
318C60
318E60
1B06C0
1B06C0
1B06C0
1B06C0
1B06C0
0E03C0
0E0380
0E0380
ENDCHAR
STARTCHAR C0088-X
ENCODING 88
SWIDTH 535 0
DWIDTH 15 0
BBX 15 20 0 0
BITMAP
600C
3018
3838
1830
0C60
0C60
06C0
07C0
0380
0380
0380
06C0
0EE0
0C60
1830
1830
3018
701C
600C
C006
ENDCHAR
STARTCHAR C0089-Y
ENCODING 89
SWIDTH 500 0
DWIDTH 14 0
BBX 14 20 0 0
BITMAP
C00C
6018
7018
3030
3870
1860
1CE0
0CC0
0FC0
0780
0780
0300
0300
0300
0300
0300
0300
0300
0300
0300
ENDCHAR
STARTCHAR C0090-Z
ENCODING 90
SWIDTH 500 0
DWIDTH 14 0
BBX 13 20 0 0
BITMAP
7FF8
7FF8
0038
0030
0060
00E0
00C0
0180
0380
0300
0600
0E00
0C00
1800
3800
3000
6000
E000
FFF8
FFF8
ENDCHAR
STARTCHAR C0091-[
ENCODING 91
SWIDTH 214 0
DWIDTH 6 0
BBX 4 26 2 -6
BITMAP
F0
F0
C0
C0
C0
C0
C0
C0
C0
C0
C0
C0
C0
C0
C0
C0
C0
C0
C0
C0
C0
C0
C0
C0
F0
F0
ENDCHAR
STARTCHAR C0092-\
ENCODING 92
SWIDTH 214 0
DWIDTH 6 0
BBX 6 20 0 0
BITMAP
C0
C0
E0
60
60
60
60
70
30
30
30
30
38
18
18
18
18
1C
0C
0C
ENDCHAR
STARTCHAR C0093-]
ENCODING 93
SWIDTH 214 0
DWIDTH 6 0
BBX 4 26 0 -6
BITMAP
F0
F0
30
30
30
30
30
30
30
30
30
30
30
30
30
30
30
30
30
30
30
30
30
30
F0
F0
ENDCHAR
STARTCHAR C0094-^
ENCODING 94
SWIDTH 392 0
DWIDTH 11 0
BBX 9 11 1 9
BITMAP
1C00
1C00
1C00
3600
3600
3600
6300
6300
6300
E380
C180
ENDCHAR
STARTCHAR C0095-_
ENCODING 95
SWIDTH 464 0
DWIDTH 13 0
BBX 13 1 0 -4
BITMAP
FFF8
ENDCHAR
STARTCHAR C0096-`
ENCODING 96
SWIDTH 285 0
DWIDTH 8 0
BBX 3 4 1 16
BITMAP
C0
40
60
20
ENDCHAR
STARTCHAR C0097-a
ENCODING 97
SWIDTH 428 0
DWIDTH 12 0
BBX 11 15 1 0
BITMAP
1F00
7F80
61C0
C0C0
C0C0
01C0
1FC0
7EC0
E0C0
C0C0
C0C0
C1C0
E3C0
7EC0
3C60
ENDCHAR
STARTCHAR C0098-b
ENCODING 98
SWIDTH 464 0
DWIDTH 13 0
BBX 11 20 1 0
BITMAP
C000
C000
C000
C000
C000
CF00
FF80
F1C0
E0C0
C060
C060
C060
C060
C060
C060
C060
E0C0
F1C0
FF80
CF00
ENDCHAR
STARTCHAR C0099-c
ENCODING 99
SWIDTH 392 0
DWIDTH 11 0
BBX 9 15 1 0
BITMAP
1E00
3F00
6300
6180
C180
C000
C000
C000
C000
C000
C180
6180
6300
3F00
1E00
ENDCHAR
STARTCHAR C0100-d
ENCODING 100
SWIDTH 464 0
DWIDTH 13 0
BBX 11 20 1 0
BITMAP
0060
0060
0060
0060
0060
1E60
3FE0
71E0
60E0
C060
C060
C060
C060
C060
C060
C060
60E0
71E0
3FE0
1E60
ENDCHAR
STARTCHAR C0101-e
ENCODING 101
SWIDTH 464 0
DWIDTH 13 0
BBX 11 15 1 0
BITMAP
1F00
3F80
71C0
60C0
C060
C060
FFE0
FFE0
C000
C000
C060
60E0
71C0
3F80
1F00
ENDCHAR
STARTCHAR C0102-f
ENCODING 102
SWIDTH 214 0
DWIDTH 6 0
BBX 7 20 0 0
BITMAP
1E
3E
30
30
30
FC
FC
30
30
30
30
30
30
30
30
30
30
30
30
30
ENDCHAR
STARTCHAR C0103-g
ENCODING 103
SWIDTH 428 0
DWIDTH 12 0
BBX 10 21 1 -6
BITMAP
1EC0
3FC0
73C0
61C0
C0C0
C0C0
C0C0
C0C0
C0C0
C0C0
C0C0
61C0
73C0
3FC0
1EC0
00C0
C0C0
C1C0
E180
7F00
3E00
ENDCHAR
STARTCHAR C0104-h
ENCODING 104
SWIDTH 464 0
DWIDTH 13 0
BBX 9 20 2 0
BITMAP
C000
C000
C000
C000
C000
DE00
FF00
E380
E180
C180
C180
C180
C180
C180
C180
C180
C180
C180
C180
C180
ENDCHAR
STARTCHAR C0105-i
ENCODING 105
SWIDTH 142 0
DWIDTH 4 0
BBX 2 20 1 0
BITMAP
C0
C0
00
00
00
C0
C0
C0
C0
C0
C0
C0
C0
C0
C0
C0
C0
C0
C0
C0
ENDCHAR
STARTCHAR C0106-j
ENCODING 106
SWIDTH 142 0
DWIDTH 4 0
BBX 4 26 -1 -6
BITMAP
30
30
00
00
00
30
30
30
30
30
30
30
30
30
30
30
30
30
30
30
30
30
30
30
F0
E0
ENDCHAR
STARTCHAR C0107-k
ENCODING 107
SWIDTH 357 0
DWIDTH 10 0
BBX 10 20 1 0
BITMAP
C000
C000
C000
C000
C000
C380
C300
C600
CC00
DC00
F800
F800
EC00
CC00
C600
C600
C300
C300
C180
C180
ENDCHAR
STARTCHAR C0108-l
ENCODING 108
SWIDTH 142 0
DWIDTH 4 0
BBX 2 20 0 0
BITMAP
C0
C0
C0
C0
C0
C0
C0
C0
C0
C0
C0
C0
C0
C0
C0
C0
C0
C0
C0
C0
ENDCHAR
STARTCHAR C0109-m
ENCODING 109
SWIDTH 714 0
DWIDTH 20 0
BBX 16 15 2 0
BITMAP
CE3C
FF7E
E3C7
E1C3
C183
C183
C183
C183
C183
C183
C183
C183
C183
C183
C183
ENDCHAR
STARTCHAR C0110-n
ENCODING 110
SWIDTH 464 0
DWIDTH 13 0
BBX 9 15 2 0
BITMAP
CE00
FF00
E380
E180
C180
C180
C180
C180
C180
C180
C180
C180
C180
C180
C180
ENDCHAR
STARTCHAR C0111-o
ENCODING 111
SWIDTH 464 0
DWIDTH 13 0
BBX 11 15 1 0
BITMAP
1F00
3F80
71C0
60C0
C060
C060
C060
C060
C060
C060
C060
60C0
71C0
3F80
1F00
ENDCHAR
STARTCHAR C0112-p
ENCODING 112
SWIDTH 464 0
DWIDTH 13 0
BBX 11 21 1 -6
BITMAP
CF00
DF80
F1C0
E0C0
E060
C060
C060
C060
C060
C060
C060
E0C0
F1C0
FF80
DF00
C000
C000
C000
C000
C000
C000
ENDCHAR
STARTCHAR C0113-q
ENCODING 113
SWIDTH 464 0
DWIDTH 13 0
BBX 11 21 1 -6
BITMAP
1E60
3F60
71E0
60E0
C060
C060
C060
C060
C060
C060
C060
60E0
71E0
3FE0
0F60
0060
0060
0060
0060
0060
0060
ENDCHAR
STARTCHAR C0114-r
ENCODING 114
SWIDTH 285 0
DWIDTH 8 0
BBX 7 15 1 0
BITMAP
DC
FE
E0
E0
C0
C0
C0
C0
C0
C0
C0
C0
C0
C0
C0
ENDCHAR
STARTCHAR C0115-s
ENCODING 115
SWIDTH 392 0
DWIDTH 11 0
BBX 9 15 1 0
BITMAP
3E00
7F00
E380
C180
C000
E000
7800
3F00
0780
0180
C180
C180
6380
7F00
3E00
ENDCHAR
STARTCHAR C0116-t
ENCODING 116
SWIDTH 214 0
DWIDTH 6 0
BBX 5 20 1 0
BITMAP
20
60
60
60
60
F8
F8
60
60
60
60
60
60
60
60
60
60
60
78
38
ENDCHAR
STARTCHAR C0117-u
ENCODING 117
SWIDTH 464 0
DWIDTH 13 0
BBX 9 15 2 0
BITMAP
C180
C180
C180
C180
C180
C180
C180
C180
C180
C180
C180
C380
E380
7D80
3980
ENDCHAR
STARTCHAR C0118-v
ENCODING 118
SWIDTH 392 0
DWIDTH 11 0
BBX 11 15 0 0
BITMAP
C060
C060
60C0
60C0
60C0
71C0
3180
3180
3180
1B00
1B00
1B00
1B00
0E00
0E00
ENDCHAR
STARTCHAR C0119-w
ENCODING 119
SWIDTH 607 0
DWIDTH 17 0
BBX 17 15 0 0
BITMAP
C1C180
C1C180
61C300
636300
636300
636300
636300
366600
363600
363600
363600
363600
1C1C00
1C1C00
1C1C00
ENDCHAR
STARTCHAR C0120-x
ENCODING 120
SWIDTH 392 0
DWIDTH 11 0
BBX 11 15 0 0
BITMAP
C060
60C0
71C0
3180
1B00
1B00
0E00
0E00
0E00
1B00
1B00
3180
71C0
60C0
C060
ENDCHAR
STARTCHAR C0121-y
ENCODING 121
SWIDTH 392 0
DWIDTH 11 0
BBX 11 21 0 -6
BITMAP
C060
E0E0
60C0
60C0
60C0
3180
3180
3180
1B00
1B00
1B00
1F00
0E00
0E00
0E00
0C00
0C00
0C00
1800
7800
7000
ENDCHAR
STARTCHAR C0122-z
ENCODING 122
SWIDTH 392 0
DWIDTH 11 0
BBX 10 15 0 0
BITMAP
FFC0
FFC0
0180
0180
0300
0600
0E00
0C00
1800
3800
3000
6000
E000
FFC0
FFC0
ENDCHAR
STARTCHAR C0123-{
ENCODING 123
SWIDTH 285 0
DWIDTH 8 0
BBX 6 26 1 -6
BITMAP
1C
1C
30
30
30
30
30
30
30
30
30
60
C0
E0
70
30
30
30
30
30
30
30
30
30
1C
1C
ENDCHAR
STARTCHAR C0124-|
ENCODING 124
SWIDTH 214 0
DWIDTH 6 0
BBX 2 26 2 -6
BITMAP
C0
C0
C0
C0
C0
C0
C0
C0
C0
C0
C0
C0
C0
C0
C0
C0
C0
C0
C0
C0
C0
C0
C0
C0
C0
C0
ENDCHAR
STARTCHAR C0125-}
ENCODING 125
SWIDTH 285 0
DWIDTH 8 0
BBX 6 26 1 -6
BITMAP
E0
E0
30
30
30
30
30
30
30
30
30
18
0C
1C
38
30
30
30
30
30
30
30
30
30
E0
E0
ENDCHAR
STARTCHAR C0126-~
ENCODING 126
SWIDTH 464 0
DWIDTH 13 0
BBX 11 6 1 7
BITMAP
0000
7820
FE60
CFE0
83C0
0000
ENDCHAR
STARTCHAR C0127
ENCODING 127
SWIDTH 214 0
DWIDTH 6 0
BBX 5 18 1 0
BITMAP
F8
88
88
88
88
88
88
88
88
88
88
88
88
88
88
88
88
F8
ENDCHAR
STARTCHAR C0128
ENCODING 128
SWIDTH 464 0
DWIDTH 13 0
BBX 12 20 0 0
BITMAP
03E0
0FF0
1C10
3800
3000
7000
6000
FFE0
FFE0
6000
6000
FFC0
FFC0
6000
3000
3000
3800
1C10
0FF0
03E0
ENDCHAR
STARTCHAR C0129
ENCODING 129
SWIDTH 214 0
DWIDTH 6 0
BBX 5 18 1 0
BITMAP
F8
88
88
88
88
88
88
88
88
88
88
88
88
88
88
88
88
F8
ENDCHAR
STARTCHAR C0130
ENCODING 130
SWIDTH 178 0
DWIDTH 5 0
BBX 3 6 0 -4
BITMAP
60
60
20
20
60
40
ENDCHAR
STARTCHAR C0131
ENCODING 131
SWIDTH 464 0
DWIDTH 13 0
BBX 11 26 1 -6
BITMAP
01E0
03E0
0300
0300
0600
1FC0
1FC0
0600
0600
0600
0600
0C00
0C00
0C00
0C00
0C00
0C00
0C00
1800
1800
1800
1800
1800
1800
F000
F000
ENDCHAR
STARTCHAR C0132
ENCODING 132
SWIDTH 250 0
DWIDTH 7 0
BBX 5 6 1 -4
BITMAP
D8
D8
48
48
D8
90
ENDCHAR
STARTCHAR C0133
ENCODING 133
SWIDTH 821 0
DWIDTH 23 0
BBX 16 2 3 0
BITMAP
C183
C183
ENDCHAR
STARTCHAR C0134
ENCODING 134
SWIDTH 464 0
DWIDTH 13 0
BBX 12 24 0 -5
BITMAP
0600
0600
0600
0600
0600
FFF0
FFF0
0600
0600
0600
0600
0600
0600
0600
0600
0600
0600
0600
0600
0600
0600
0600
0600
0600
ENDCHAR
STARTCHAR C0135
ENCODING 135
SWIDTH 464 0
DWIDTH 13 0
BBX 12 25 0 -5
BITMAP
0600
0600
0600
0600
0600
FFF0
FFF0
0600
0600
0600
0600
0600
0600
0600
0600
0600
0600
0600
FFF0
FFF0
0600
0600
0600
0600
0600
ENDCHAR
STARTCHAR C0136
ENCODING 136
SWIDTH 285 0
DWIDTH 8 0
BBX 6 4 0 16
BITMAP
30
78
78
CC
ENDCHAR
STARTCHAR C0137
ENCODING 137
SWIDTH 892 0
DWIDTH 25 0
BBX 24 20 0 0
BITMAP
381000
7C1000
EE2000
C62000
C64000
C64000
C64000
C68000
EE8000
7D1C1C
393E3E
017777
026363
026363
026363
046363
046363
087777
083E3E
081C1C
ENDCHAR
STARTCHAR C0138
ENCODING 138
SWIDTH 535 0
DWIDTH 15 0
BBX 13 25 1 0
BITMAP
0CC0
0780
0780
0300
0000
0F80
3FE0
3060
6030
6030
6000
6000
7000
3C00
1F80
07C0
01F0
0030
0018
C018
C018
6038
7070
3FE0
0FC0
ENDCHAR
STARTCHAR C0139
ENCODING 139
SWIDTH 285 0
DWIDTH 8 0
BBX 5 13 1 1
BITMAP
18
30
30
60
60
C0
C0
C0
60
60
30
30
18
ENDCHAR
STARTCHAR C0140
ENCODING 140
SWIDTH 821 0
DWIDTH 23 0
BBX 21 20 1 0
BITMAP
0F9FF8
1FDFF8
38F800
707800
603800
603800
C01800
C01800
C01800
C01FF0
C01FF0
C01800
C01800
C01800
603800
603800
707800
38F800
1FDFF8
0F9FF8
ENDCHAR
STARTCHAR C0141
ENCODING 141
SWIDTH 214 0
DWIDTH 6 0
BBX 5 18 1 0
BITMAP
F8
88
88
88
88
88
88
88
88
88
88
88
88
88
88
88
88
F8
ENDCHAR
STARTCHAR C0142
ENCODING 142
SWIDTH 500 0
DWIDTH 14 0
BBX 13 25 0 0
BITMAP
0CC0
0780
0780
0300
0000
7FF8
7FF8
0038
0030
0060
00E0
00C0
0180
0380
0300
0600
0E00
0C00
1800
3800
3000
6000
E000
FFF8
FFF8
ENDCHAR
STARTCHAR C0143
ENCODING 143
SWIDTH 214 0
DWIDTH 6 0
BBX 5 18 1 0
BITMAP
F8
88
88
88
88
88
88
88
88
88
88
88
88
88
88
88
88
F8
ENDCHAR
STARTCHAR C0144
ENCODING 144
SWIDTH 214 0
DWIDTH 6 0
BBX 5 18 1 0
BITMAP
F8
88
88
88
88
88
88
88
88
88
88
88
88
88
88
88
88
F8
ENDCHAR
STARTCHAR C0145
ENCODING 145
SWIDTH 178 0
DWIDTH 5 0
BBX 3 6 1 14
BITMAP
40
C0
80
80
C0
C0
ENDCHAR
STARTCHAR C0146
ENCODING 146
SWIDTH 178 0
DWIDTH 5 0
BBX 3 6 0 14
BITMAP
60
60
20
20
60
40
ENDCHAR
STARTCHAR C0147
ENCODING 147
SWIDTH 250 0
DWIDTH 7 0
BBX 6 6 1 14
BITMAP
48
D8
90
90
D8
D8
ENDCHAR
STARTCHAR C0148
ENCODING 148
SWIDTH 250 0
DWIDTH 7 0
BBX 5 6 1 14
BITMAP
D8
D8
48
48
D8
90
ENDCHAR
STARTCHAR C0149
ENCODING 149
SWIDTH 285 0
DWIDTH 8 0
BBX 6 7 1 6
BITMAP
78
78
FC
FC
FC
78
78
ENDCHAR
STARTCHAR C0150
ENCODING 150
SWIDTH 464 0
DWIDTH 13 0
BBX 13 2 0 6
BITMAP
FFF8
FFF8
ENDCHAR
STARTCHAR C0151
ENCODING 151
SWIDTH 821 0
DWIDTH 23 0
BBX 23 2 0 6
BITMAP
FFFFFE
FFFFFE
ENDCHAR
STARTCHAR C0152
ENCODING 152
SWIDTH 285 0
DWIDTH 8 0
BBX 7 3 0 17
BITMAP
72
FE
9C
ENDCHAR
STARTCHAR C0153
ENCODING 153
SWIDTH 821 0
DWIDTH 23 0
BBX 17 11 2 9
BITMAP
FEC180
10C180
10E380
10A280
10A280
10A280
109480
109480
109480
108880
108880
ENDCHAR
STARTCHAR C0154
ENCODING 154
SWIDTH 392 0
DWIDTH 11 0
BBX 9 21 1 0
BITMAP
3300
1E00
1E00
0C00
0000
0000
3E00
7F00
E380
C180
C000
E000
7800
3F00
0780
0180
C180
C180
6380
7F00
3E00
ENDCHAR
STARTCHAR C0155
ENCODING 155
SWIDTH 285 0
DWIDTH 8 0
BBX 5 13 1 1
BITMAP
C0
60
60
30
30
18
18
18
30
30
60
60
C0
ENDCHAR
STARTCHAR C0156
ENCODING 156
SWIDTH 785 0
DWIDTH 22 0
BBX 20 15 1 0
BITMAP
1F0F80
3F9FC0
71F8E0
60F060
C06030
C06030
C07FF0
C07FF0
C06000
C06000
C06030
60F070
71F8E0
3F9FC0
1F0F80
ENDCHAR
STARTCHAR C0157
ENCODING 157
SWIDTH 214 0
DWIDTH 6 0
BBX 5 18 1 0
BITMAP
F8
88
88
88
88
88
88
88
88
88
88
88
88
88
88
88
88
F8
ENDCHAR
STARTCHAR C0158
ENCODING 158
SWIDTH 392 0
DWIDTH 11 0
BBX 10 21 0 0
BITMAP
3300
1E00
1E00
0C00
0000
0000
FFC0
FFC0
0180
0180
0300
0600
0E00
0C00
1800
3800
3000
6000
E000
FFC0
FFC0
ENDCHAR
STARTCHAR C0159
ENCODING 159
SWIDTH 500 0
DWIDTH 14 0
BBX 14 23 0 0
BITMAP
0CC0
0CC0
0000
C00C
6018
7018
3030
3870
1860
1CE0
0CC0
0FC0
0780
0780
0300
0300
0300
0300
0300
0300
0300
0300
0300
ENDCHAR
STARTCHAR C0160
ENCODING 160
SWIDTH 214 0
DWIDTH 6 0
BBX 1 1 0 -1
BITMAP
00
ENDCHAR
STARTCHAR C0161
ENCODING 161
SWIDTH 285 0
DWIDTH 8 0
BBX 2 21 3 -6
BITMAP
C0
C0
00
00
00
00
C0
C0
C0
C0
C0
C0
C0
C0
C0
C0
C0
C0
C0
C0
C0
ENDCHAR
STARTCHAR C0162
ENCODING 162
SWIDTH 464 0
DWIDTH 13 0
BBX 11 26 1 -6
BITMAP
0080
0080
0080
0100
0100
0F00
3F80
73C0
62E0
C260
C200
C400
C400
C400
C400
E860
68E0
79C0
3F80
1F00
1000
1000
1000
1000
2000
2000
ENDCHAR
STARTCHAR C0163
ENCODING 163
SWIDTH 464 0
DWIDTH 13 0
BBX 12 20 0 0
BITMAP
0F80
1FC0
38E0
6060
6030
6030
6000
6000
6000
FE00
FE00
3000
3000
3000
3000
2000
6000
FE10
FFF0
81E0
ENDCHAR
STARTCHAR C0164
ENCODING 164
SWIDTH 464 0
DWIDTH 13 0
BBX 11 14 1 3
BITMAP
4040
EEE0
7FC0
3180
71C0
60C0
60C0
60C0
60C0
71C0
3180
7FC0
EEE0
4040
ENDCHAR
STARTCHAR C0165
ENCODING 165
SWIDTH 464 0
DWIDTH 13 0
BBX 12 20 0 0
BITMAP
C030
6060
6060
30C0
30C0
38C0
1980
1980
0F00
0F00
7FE0
7FE0
0600
0600
7FE0
7FE0
0600
0600
0600
0600
ENDCHAR
STARTCHAR C0166
ENCODING 166
SWIDTH 214 0
DWIDTH 6 0
BBX 2 27 2 -7
BITMAP
C0
C0
C0
C0
C0
C0
C0
C0
C0
C0
C0
00
00
00
00
00
C0
C0
C0
C0
C0
C0
C0
C0
C0
C0
C0
ENDCHAR
STARTCHAR C0167
ENCODING 167
SWIDTH 464 0
DWIDTH 13 0
BBX 11 26 1 -6
BITMAP
1E00
3F80
7180
60C0
60C0
6000
3000
3C00
7E00
E700
C3C0
C1C0
C0E0
E060
7060
3C60
1EC0
0F80
0380
01C0
00C0
60C0
60C0
31C0
3F80
0F00
ENDCHAR
STARTCHAR C0168
ENCODING 168
SWIDTH 285 0
DWIDTH 8 0
BBX 6 2 0 17
BITMAP
CC
CC
ENDCHAR
STARTCHAR C0169
ENCODING 169
SWIDTH 607 0
DWIDTH 17 0
BBX 17 20 0 0
BITMAP
03E000
0FF800
1C1C00
380E00
700700
63C300
67E300
CE3180
CC0180
CC0180
CC0180
CC3180
CE7180
67E300
63C300
700700
380E00
1C1C00
0FF800
03E000
ENDCHAR
STARTCHAR C0170
ENCODING 170
SWIDTH 285 0
DWIDTH 8 0
BBX 7 10 0 10
BITMAP
7C
FE
82
0E
7E
E2
C2
C6
FE
7A
ENDCHAR
STARTCHAR C0171
ENCODING 171
SWIDTH 464 0
DWIDTH 13 0
BBX 9 13 2 1
BITMAP
1980
3300
3300
6600
6600
CC00
CC00
CC00
6600
6600
3300
3300
1980
ENDCHAR
STARTCHAR C0172
ENCODING 172
SWIDTH 464 0
DWIDTH 13 0
BBX 10 8 1 6
BITMAP
FFC0
FFC0
00C0
00C0
00C0
00C0
00C0
00C0
ENDCHAR
STARTCHAR C0173
ENCODING 173
SWIDTH 285 0
DWIDTH 8 0
BBX 6 2 1 6
BITMAP
FC
FC
ENDCHAR
STARTCHAR C0174
ENCODING 174
SWIDTH 607 0
DWIDTH 17 0
BBX 17 20 0 0
BITMAP
03E000
0FF800
1C1C00
380E00
700700
67E300
67F300
C63180
C63180
C7F180
C7E180
C66180
C67180
663300
661B00
700700
380E00
1C1C00
0FF800
03E000
ENDCHAR
STARTCHAR C0175
ENCODING 175
SWIDTH 500 0
DWIDTH 14 0
BBX 14 1 0 22
BITMAP
FFFC
ENDCHAR
STARTCHAR C0176
ENCODING 176
SWIDTH 392 0
DWIDTH 11 0
BBX 8 8 1 13
BITMAP
3C
7E
E7
C3
C3
E7
7E
3C
ENDCHAR
STARTCHAR C0177
ENCODING 177
SWIDTH 535 0
DWIDTH 15 0
BBX 12 15 1 0
BITMAP
0600
0600
0600
0600
0600
FFF0
FFF0
0600
0600
0600
0600
0600
0000
FFF0
FFF0
ENDCHAR
STARTCHAR C0178
ENCODING 178
SWIDTH 285 0
DWIDTH 8 0
BBX 7 10 0 10
BITMAP
3C
7E
E6
C6
04
08
30
60
7E
FE
ENDCHAR
STARTCHAR C0179
ENCODING 179
SWIDTH 285 0
DWIDTH 8 0
BBX 7 10 0 10
BITMAP
7C
FE
06
18
1E
06
06
C6
7C
78
ENDCHAR
STARTCHAR C0180
ENCODING 180
SWIDTH 285 0
DWIDTH 8 0
BBX 3 4 3 16
BITMAP
60
40
C0
80
ENDCHAR
STARTCHAR C0181
ENCODING 181
SWIDTH 571 0
DWIDTH 16 0
BBX 12 21 2 -6
BITMAP
C030
C030
C030
C030
C030
C030
C030
C030
C030
C030
C030
E070
F0F0
FFF0
DF30
C000
C000
C000
C000
C000
C000
ENDCHAR
STARTCHAR C0182
ENCODING 182
SWIDTH 464 0
DWIDTH 13 0
BBX 13 25 0 -5
BITMAP
1FF8
7FF8
7E60
FE60
FE60
FE60
FE60
FE60
7E60
7E60
1E60
0660
0660
0660
0660
0660
0660
0660
0660
0660
0660
0660
0660
0660
0660
ENDCHAR
STARTCHAR C0183
ENCODING 183
SWIDTH 285 0
DWIDTH 8 0
BBX 2 2 3 9
BITMAP
C0
C0
ENDCHAR
STARTCHAR C0184
ENCODING 184
SWIDTH 285 0
DWIDTH 8 0
BBX 5 6 1 -6
BITMAP
30
70
18
18
F8
F0
ENDCHAR
STARTCHAR C0185
ENCODING 185
SWIDTH 285 0
DWIDTH 8 0
BBX 4 10 1 10
BITMAP
30
70
F0
B0
30
30
30
30
30
30
ENDCHAR
STARTCHAR C0186
ENCODING 186
SWIDTH 285 0
DWIDTH 8 0
BBX 7 10 0 10
BITMAP
38
7C
EE
C6
C6
C6
C6
EE
7C
38
ENDCHAR
STARTCHAR C0187
ENCODING 187
SWIDTH 464 0
DWIDTH 13 0
BBX 9 13 2 1
BITMAP
CC00
6600
6600
3300
3300
1980
1980
1980
3300
3300
6600
6600
CC00
ENDCHAR
STARTCHAR C0188
ENCODING 188
SWIDTH 678 0
DWIDTH 19 0
BBX 17 21 1 -1
BITMAP
300300
700700
F00600
B00C00
300C00
301800
303800
303000
306000
306000
00C700
018700
018F00
030F00
071B00
061B00
0C3300
0C3F80
180300
380300
300000
ENDCHAR
STARTCHAR C0189
ENCODING 189
SWIDTH 678 0
DWIDTH 19 0
BBX 17 21 1 -1
BITMAP
300300
700700
F00600
B00C00
300C00
301800
303800
303000
306000
306000
00CF00
019F80
01B980
033180
070100
060200
0C0C00
0C1800
181F80
383F80
300000
ENDCHAR
STARTCHAR C0190
ENCODING 190
SWIDTH 678 0
DWIDTH 19 0
BBX 18 21 0 -1
BITMAP
7C0180
FE0380
060300
180600
1E0600
060C00
061C00
C61800
7C3000
783000
006380
00C380
00C780
018780
038D80
030D80
061980
061FC0
0C0180
1C0180
180000
ENDCHAR
STARTCHAR C0191
ENCODING 191
SWIDTH 500 0
DWIDTH 14 0
BBX 11 21 1 -6
BITMAP
0600
0600
0000
0000
0600
0600
0600
0E00
0C00
1C00
3800
7000
E000
C000
C000
C060
C060
E0C0
71C0
3F80
1F00
ENDCHAR
STARTCHAR C0192
ENCODING 192
SWIDTH 535 0
DWIDTH 15 0
BBX 15 25 0 0
BITMAP
0300
0100
0180
0080
0000
0380
0380
06C0
06C0
06C0
0EE0
0C60
0C60
0C70
1830
1830
1830
3FF8
3FF8
3018
600C
600C
600C
E00E
C006
ENDCHAR
STARTCHAR C0193
ENCODING 193
SWIDTH 535 0
DWIDTH 15 0
BBX 15 25 0 0
BITMAP
0180
0100
0300
0200
0000
0380
0380
06C0
06C0
06C0
0EE0
0C60
0C60
0C70
1830
1830
1830
3FF8
3FF8
3018
600C
600C
600C
E00E
C006
ENDCHAR
STARTCHAR C0194
ENCODING 194
SWIDTH 535 0
DWIDTH 15 0
BBX 15 25 0 0
BITMAP
0180
03C0
03C0
0660
0000
0380
0380
06C0
06C0
06C0
0EE0
0C60
0C60
0C70
1830
1830
1830
3FF8
3FF8
3018
600C
600C
600C
E00E
C006
ENDCHAR
STARTCHAR C0195
ENCODING 195
SWIDTH 535 0
DWIDTH 15 0
BBX 15 24 0 0
BITMAP
0720
0FE0
09C0
0000
0380
0380
06C0
06C0
06C0
0EE0
0C60
0C60
0C70
1830
1830
1830
3FF8
3FF8
3018
600C
600C
600C
E00E
C006
ENDCHAR
STARTCHAR C0196
ENCODING 196
SWIDTH 535 0
DWIDTH 15 0
BBX 15 23 0 0
BITMAP
0660
0660
0000
0380
0380
06C0
06C0
06C0
0EE0
0C60
0C60
0C70
1830
1830
1830
3FF8
3FF8
3018
600C
600C
600C
E00E
C006
ENDCHAR
STARTCHAR C0197
ENCODING 197
SWIDTH 535 0
DWIDTH 15 0
BBX 15 26 0 0
BITMAP
0180
0240
0240
0240
0180
0000
0380
0380
06C0
06C0
06C0
0EE0
0C60
0C60
0C70
1830
1830
1830
3FF8
3FF8
3018
600C
600C
600C
E00E
C006
ENDCHAR
STARTCHAR C0198
ENCODING 198
SWIDTH 821 0
DWIDTH 23 0
BBX 22 20 0 0
BITMAP
00FFFC
00FFFC
019800
019800
031800
031800
031800
061800
061800
0E1FF8
0C1FF8
0C1800
1FF800
1FF800
181800
301800
301800
701800
601FFC
601FFC
ENDCHAR
STARTCHAR C0199
ENCODING 199
SWIDTH 607 0
DWIDTH 17 0
BBX 15 26 1 -6
BITMAP
07E0
1FF8
3C3C
300C
600E
6004
C000
C000
C000
C000
C000
C000
C000
C004
6006
600E
301C
3838
1FF0
07E0
0180
0380
00C0
00C0
07C0
0780
ENDCHAR
STARTCHAR C0200
ENCODING 200
SWIDTH 535 0
DWIDTH 15 0
BBX 12 25 2 0
BITMAP
0C00
0400
0600
0200
0000
FFF0
FFF0
C000
C000
C000
C000
C000
C000
C000
FFE0
FFE0
C000
C000
C000
C000
C000
C000
C000
FFF0
FFF0
ENDCHAR
STARTCHAR C0201
ENCODING 201
SWIDTH 535 0
DWIDTH 15 0
BBX 12 25 2 0
BITMAP
0300
0200
0600
0400
0000
FFF0
FFF0
C000
C000
C000
C000
C000
C000
C000
FFE0
FFE0
C000
C000
C000
C000
C000
C000
C000
FFF0
FFF0
ENDCHAR
STARTCHAR C0202
ENCODING 202
SWIDTH 535 0
DWIDTH 15 0
BBX 12 25 2 0
BITMAP
0600
0F00
0F00
1980
0000
FFF0
FFF0
C000
C000
C000
C000
C000
C000
C000
FFE0
FFE0
C000
C000
C000
C000
C000
C000
C000
FFF0
FFF0
ENDCHAR
STARTCHAR C0203
ENCODING 203
SWIDTH 535 0
DWIDTH 15 0
BBX 12 23 2 0
BITMAP
1980
1980
0000
FFF0
FFF0
C000
C000
C000
C000
C000
C000
C000
FFE0
FFE0
C000
C000
C000
C000
C000
C000
C000
FFF0
FFF0
ENDCHAR
STARTCHAR C0204
ENCODING 204
SWIDTH 214 0
DWIDTH 6 0
BBX 3 25 2 0
BITMAP
C0
40
60
20
00
C0
C0
C0
C0
C0
C0
C0
C0
C0
C0
C0
C0
C0
C0
C0
C0
C0
C0
C0
C0
ENDCHAR
STARTCHAR C0205
ENCODING 205
SWIDTH 214 0
DWIDTH 6 0
BBX 3 25 2 0
BITMAP
60
40
C0
80
00
C0
C0
C0
C0
C0
C0
C0
C0
C0
C0
C0
C0
C0
C0
C0
C0
C0
C0
C0
C0
ENDCHAR
STARTCHAR C0206
ENCODING 206
SWIDTH 214 0
DWIDTH 6 0
BBX 6 25 0 0
BITMAP
30
78
78
CC
00
30
30
30
30
30
30
30
30
30
30
30
30
30
30
30
30
30
30
30
30
ENDCHAR
STARTCHAR C0207
ENCODING 207
SWIDTH 214 0
DWIDTH 6 0
BBX 6 23 0 0
BITMAP
CC
CC
00
30
30
30
30
30
30
30
30
30
30
30
30
30
30
30
30
30
30
30
30
ENDCHAR
STARTCHAR C0208
ENCODING 208
SWIDTH 607 0
DWIDTH 17 0
BBX 15 20 0 0
BITMAP
3FE0
3FF0
3038
301C
300C
300C
3006
3006
3006
FF06
FF06
3006
3006
3006
300C
300C
301C
3038
3FF0
3FE0
ENDCHAR
STARTCHAR C0209
ENCODING 209
SWIDTH 607 0
DWIDTH 17 0
BBX 13 24 2 0
BITMAP
0E40
1FC0
1380
0000
C018
E018
E018
F018
F818
D818
CC18
CC18
C618
C618
C318
C318
C198
C198
C0D8
C0D8
C078
C078
C038
C018
ENDCHAR
STARTCHAR C0210
ENCODING 210
SWIDTH 642 0
DWIDTH 18 0
BBX 16 25 1 0
BITMAP
0300
0100
0180
0080
0000
07E0
0FF0
3C3C
300C
6006
6006
C003
C003
C003
C003
C003
C003
C003
C003
6006
6006
300C
3C3C
0FF0
07E0
ENDCHAR
STARTCHAR C0211
ENCODING 211
SWIDTH 642 0
DWIDTH 18 0
BBX 16 25 1 0
BITMAP
00C0
0080
0180
0100
0000
07E0
0FF0
3C3C
300C
6006
6006
C003
C003
C003
C003
C003
C003
C003
C003
6006
6006
300C
3C3C
0FF0
07E0
ENDCHAR
STARTCHAR C0212
ENCODING 212
SWIDTH 642 0
DWIDTH 18 0
BBX 16 25 1 0
BITMAP
0180
03C0
03C0
0660
0000
07E0
0FF0
3C3C
300C
6006
6006
C003
C003
C003
C003
C003
C003
C003
C003
6006
6006
300C
3C3C
0FF0
07E0
ENDCHAR
STARTCHAR C0213
ENCODING 213
SWIDTH 642 0
DWIDTH 18 0
BBX 16 24 1 0
BITMAP
0390
07F0
04E0
0000
07E0
0FF0
3C3C
300C
6006
6006
C003
C003
C003
C003
C003
C003
C003
C003
6006
6006
300C
3C3C
0FF0
07E0
ENDCHAR
STARTCHAR C0214
ENCODING 214
SWIDTH 642 0
DWIDTH 18 0
BBX 16 23 1 0
BITMAP
0660
0660
0000
07E0
0FF0
3C3C
300C
6006
6006
C003
C003
C003
C003
C003
C003
C003
C003
6006
6006
300C
3C3C
0FF0
07E0
ENDCHAR
STARTCHAR C0215
ENCODING 215
SWIDTH 464 0
DWIDTH 13 0
BBX 10 12 2 4
BITMAP
4080
E1C0
7380
3300
3F00
1E00
1E00
3F00
3300
7380
E1C0
4080
ENDCHAR
STARTCHAR C0216
ENCODING 216
SWIDTH 642 0
DWIDTH 18 0
BBX 17 21 1 -1
BITMAP
07E100
0FF300
3C3E00
300E00
600E00
601E00
C03300
C07300
C0E300
C0C300
C18300
C30300
C70300
C60300
6C0600
780600
380C00
7C3C00
6FF800
C7E000
000000
ENDCHAR
STARTCHAR C0217
ENCODING 217
SWIDTH 607 0
DWIDTH 17 0
BBX 13 25 2 0
BITMAP
0C00
0400
0600
0200
0000
C018
C018
C018
C018
C018
C018
C018
C018
C018
C018
C018
C018
C018
C018
C018
C018
6030
7070
3FE0
0F80
ENDCHAR
STARTCHAR C0218
ENCODING 218
SWIDTH 607 0
DWIDTH 17 0
BBX 13 25 2 0
BITMAP
0300
0200
0600
0400
0000
C018
C018
C018
C018
C018
C018
C018
C018
C018
C018
C018
C018
C018
C018
C018
C018
6030
7070
3FE0
0F80
ENDCHAR
STARTCHAR C0219
ENCODING 219
SWIDTH 607 0
DWIDTH 17 0
BBX 13 25 2 0
BITMAP
0600
0F00
0F00
1980
0000
C018
C018
C018
C018
C018
C018
C018
C018
C018
C018
C018
C018
C018
C018
C018
C018
6030
7070
3FE0
0F80
ENDCHAR
STARTCHAR C0220
ENCODING 220
SWIDTH 607 0
DWIDTH 17 0
BBX 13 23 2 0
BITMAP
1980
1980
0000
C018
C018
C018
C018
C018
C018
C018
C018
C018
C018
C018
C018
C018
C018
C018
C018
6030
7070
3FE0
0F80
ENDCHAR
STARTCHAR C0221
ENCODING 221
SWIDTH 500 0
DWIDTH 14 0
BBX 14 25 0 0
BITMAP
0180
0100
0300
0200
0000
C00C
6018
7018
3030
3870
1860
1CE0
0CC0
0FC0
0780
0780
0300
0300
0300
0300
0300
0300
0300
0300
0300
ENDCHAR
STARTCHAR C0222
ENCODING 222
SWIDTH 535 0
DWIDTH 15 0
BBX 12 20 2 0
BITMAP
C000
C000
C000
C000
FF80
FFE0
C060
C070
C030
C030
C030
C030
C070
C0E0
FFC0
FF80
C000
C000
C000
C000
ENDCHAR
STARTCHAR C0223
ENCODING 223
SWIDTH 500 0
DWIDTH 14 0
BBX 12 20 1 0
BITMAP
1E00
7F00
6380
C180
C180
C180
C300
C300
C600
C600
C700
C380
C1E0
C0E0
C030
C030
C830
DC70
CFE0
C7C0
ENDCHAR
STARTCHAR C0224
ENCODING 224
SWIDTH 428 0
DWIDTH 12 0
BBX 11 21 1 0
BITMAP
0C00
0400
0600
0200
0000
0000
1F00
7F80
61C0
C0C0
C0C0
01C0
1FC0
7EC0
E0C0
C0C0
C0C0
C1C0
E3C0
7EC0
3C60
ENDCHAR
STARTCHAR C0225
ENCODING 225
SWIDTH 428 0
DWIDTH 12 0
BBX 11 21 1 0
BITMAP
0600
0400
0C00
0800
0000
0000
1F00
7F80
61C0
C0C0
C0C0
01C0
1FC0
7EC0
E0C0
C0C0
C0C0
C1C0
E3C0
7EC0
3C60
ENDCHAR
STARTCHAR C0226
ENCODING 226
SWIDTH 428 0
DWIDTH 12 0
BBX 11 21 1 0
BITMAP
0C00
1E00
1E00
3300
0000
0000
1F00
7F80
61C0
C0C0
C0C0
01C0
1FC0
7EC0
E0C0
C0C0
C0C0
C1C0
E3C0
7EC0
3C60
ENDCHAR
STARTCHAR C0227
ENCODING 227
SWIDTH 428 0
DWIDTH 12 0
BBX 11 20 1 0
BITMAP
1C80
3F80
2700
0000
0000
1F00
7F80
61C0
C0C0
C0C0
01C0
1FC0
7EC0
E0C0
C0C0
C0C0
C1C0
E3C0
7EC0
3C60
ENDCHAR
STARTCHAR C0228
ENCODING 228
SWIDTH 428 0
DWIDTH 12 0
BBX 11 19 1 0
BITMAP
3300
3300
0000
0000
1F00
7F80
61C0
C0C0
C0C0
01C0
1FC0
7EC0
E0C0
C0C0
C0C0
C1C0
E3C0
7EC0
3C60
ENDCHAR
STARTCHAR C0229
ENCODING 229
SWIDTH 428 0
DWIDTH 12 0
BBX 11 22 1 0
BITMAP
0C00
1200
1200
1200
0C00
0000
0000
1F00
7F80
61C0
C0C0
C0C0
01C0
1FC0
7EC0
E0C0
C0C0
C0C0
C1C0
E3C0
7EC0
3C60
ENDCHAR
STARTCHAR C0230
ENCODING 230
SWIDTH 750 0
DWIDTH 21 0
BBX 19 15 1 0
BITMAP
1F1F00
7FBF80
61F1C0
C0E0C0
C0C060
03C060
3FFFE0
7EFFE0
E0C000
C0C000
C0C060
C1E0E0
E3F1C0
7F3F80
3C1F00
ENDCHAR
STARTCHAR C0231
ENCODING 231
SWIDTH 392 0
DWIDTH 11 0
BBX 9 21 1 -6
BITMAP
1E00
3F00
6300
6180
C180
C000
C000
C000
C000
C000
C180
6180
6300
3F00
1E00
0C00
1C00
0600
0600
3E00
3C00
ENDCHAR
STARTCHAR C0232
ENCODING 232
SWIDTH 464 0
DWIDTH 13 0
BBX 11 21 1 0
BITMAP
0C00
0400
0600
0200
0000
0000
1F00
3F80
71C0
60C0
C060
C060
FFE0
FFE0
C000
C000
C060
60E0
71C0
3F80
1F00
ENDCHAR
STARTCHAR C0233
ENCODING 233
SWIDTH 464 0
DWIDTH 13 0
BBX 11 21 1 0
BITMAP
0600
0400
0C00
0800
0000
0000
1F00
3F80
71C0
60C0
C060
C060
FFE0
FFE0
C000
C000
C060
60E0
71C0
3F80
1F00
ENDCHAR
STARTCHAR C0234
ENCODING 234
SWIDTH 464 0
DWIDTH 13 0
BBX 11 21 1 0
BITMAP
0600
0F00
0F00
1980
0000
0000
1F00
3F80
71C0
60C0
C060
C060
FFE0
FFE0
C000
C000
C060
60E0
71C0
3F80
1F00
ENDCHAR
STARTCHAR C0235
ENCODING 235
SWIDTH 464 0
DWIDTH 13 0
BBX 11 19 1 0
BITMAP
1980
1980
0000
0000
1F00
3F80
71C0
60C0
C060
C060
FFE0
FFE0
C000
C000
C060
60E0
71C0
3F80
1F00
ENDCHAR
STARTCHAR C0236
ENCODING 236
SWIDTH 214 0
DWIDTH 6 0
BBX 3 21 1 0
BITMAP
C0
40
60
20
00
00
60
60
60
60
60
60
60
60
60
60
60
60
60
60
60
ENDCHAR
STARTCHAR C0237
ENCODING 237
SWIDTH 214 0
DWIDTH 6 0
BBX 3 21 2 0
BITMAP
60
40
C0
80
00
00
C0
C0
C0
C0
C0
C0
C0
C0
C0
C0
C0
C0
C0
C0
C0
ENDCHAR
STARTCHAR C0238
ENCODING 238
SWIDTH 214 0
DWIDTH 6 0
BBX 6 21 0 0
BITMAP
30
78
78
CC
00
00
30
30
30
30
30
30
30
30
30
30
30
30
30
30
30
ENDCHAR
STARTCHAR C0239
ENCODING 239
SWIDTH 214 0
DWIDTH 6 0
BBX 6 19 0 0
BITMAP
CC
CC
00
00
30
30
30
30
30
30
30
30
30
30
30
30
30
30
30
ENDCHAR
STARTCHAR C0240
ENCODING 240
SWIDTH 464 0
DWIDTH 13 0
BBX 11 20 1 0
BITMAP
1C80
0F00
0F00
3300
0180
1F80
3FC0
71C0
60E0
C060
C060
C060
C060
C060
C060
C060
60C0
71C0
3F80
1F00
ENDCHAR
STARTCHAR C0241
ENCODING 241
SWIDTH 464 0
DWIDTH 13 0
BBX 9 20 2 0
BITMAP
3900
7F00
4E00
0000
0000
CE00
FF00
E380
E180
C180
C180
C180
C180
C180
C180
C180
C180
C180
C180
C180
ENDCHAR
STARTCHAR C0242
ENCODING 242
SWIDTH 464 0
DWIDTH 13 0
BBX 11 21 1 0
BITMAP
0C00
0400
0600
0200
0000
0000
1F00
3F80
71C0
60C0
C060
C060
C060
C060
C060
C060
C060
60C0
71C0
3F80
1F00
ENDCHAR
STARTCHAR C0243
ENCODING 243
SWIDTH 464 0
DWIDTH 13 0
BBX 11 21 1 0
BITMAP
0600
0400
0C00
0800
0000
0000
1F00
3F80
71C0
60C0
C060
C060
C060
C060
C060
C060
C060
60C0
71C0
3F80
1F00
ENDCHAR
STARTCHAR C0244
ENCODING 244
SWIDTH 464 0
DWIDTH 13 0
BBX 11 21 1 0
BITMAP
0C00
1E00
1E00
3300
0000
0000
1F00
3F80
71C0
60C0
C060
C060
C060
C060
C060
C060
C060
60C0
71C0
3F80
1F00
ENDCHAR
STARTCHAR C0245
ENCODING 245
SWIDTH 464 0
DWIDTH 13 0
BBX 11 20 1 0
BITMAP
1C80
3F80
2700
0000
0000
1F00
3F80
71C0
60C0
C060
C060
C060
C060
C060
C060
C060
60C0
71C0
3F80
1F00
ENDCHAR
STARTCHAR C0246
ENCODING 246
SWIDTH 464 0
DWIDTH 13 0
BBX 11 19 1 0
BITMAP
3300
3300
0000
0000
1F00
3F80
71C0
60C0
C060
C060
C060
C060
C060
C060
C060
60C0
71C0
3F80
1F00
ENDCHAR
STARTCHAR C0247
ENCODING 247
SWIDTH 535 0
DWIDTH 15 0
BBX 12 10 1 4
BITMAP
0600
0600
0000
0000
FFF0
FFF0
0000
0000
0600
0600
ENDCHAR
STARTCHAR C0248
ENCODING 248
SWIDTH 464 0
DWIDTH 13 0
BBX 11 17 1 -1
BITMAP
0000
1F20
3FC0
71C0
60C0
C1E0
C260
C260
C460
C860
C860
F060
60C0
71C0
7F80
DF00
0000
ENDCHAR
STARTCHAR C0249
ENCODING 249
SWIDTH 464 0
DWIDTH 13 0
BBX 9 21 2 0
BITMAP
3000
1000
1800
0800
0000
0000
C180
C180
C180
C180
C180
C180
C180
C180
C180
C180
C180
C380
E380
7D80
3980
ENDCHAR
STARTCHAR C0250
ENCODING 250
SWIDTH 464 0
DWIDTH 13 0
BBX 9 21 2 0
BITMAP
0C00
0800
1800
1000
0000
0000
C180
C180
C180
C180
C180
C180
C180
C180
C180
C180
C180
C380
E380
7D80
3980
ENDCHAR
STARTCHAR C0251
ENCODING 251
SWIDTH 464 0
DWIDTH 13 0
BBX 9 21 2 0
BITMAP
0C00
1E00
1E00
3300
0000
0000
C180
C180
C180
C180
C180
C180
C180
C180
C180
C180
C180
C380
E380
7D80
3980
ENDCHAR
STARTCHAR C0252
ENCODING 252
SWIDTH 464 0
DWIDTH 13 0
BBX 9 19 2 0
BITMAP
6600
6600
0000
0000
C180
C180
C180
C180
C180
C180
C180
C180
C180
C180
C180
C380
E380
7D80
3980
ENDCHAR
STARTCHAR C0253
ENCODING 253
SWIDTH 392 0
DWIDTH 11 0
BBX 11 27 0 -6
BITMAP
0600
0400
0C00
0800
0000
0000
C060
E0E0
60C0
60C0
60C0
3180
3180
3180
1B00
1B00
1B00
1F00
0E00
0E00
0E00
0C00
0C00
0C00
1800
7800
7000
ENDCHAR
STARTCHAR C0254
ENCODING 254
SWIDTH 464 0
DWIDTH 13 0
BBX 11 26 1 -6
BITMAP
C000
C000
C000
C000
C000
CF00
FF80
F1C0
E0C0
C060
C060
C060
C060
C060
C060
C060
E0C0
F1C0
FF80
DF00
C000
C000
C000
C000
C000
C000
ENDCHAR
STARTCHAR C0255
ENCODING 255
SWIDTH 392 0
DWIDTH 11 0
BBX 11 25 0 -6
BITMAP
1980
1980
0000
0000
C060
E0E0
60C0
60C0
60C0
3180
3180
3180
1B00
1B00
1B00
1F00
0E00
0E00
0E00
0C00
0C00
0C00
1800
7800
7000
ENDCHAR
ENDFONT

