STARTFONT 2.1
COMMENT 
COMMENT This file has been produced by ttf2bdf written by Subhabrata Biswas
COMMENT 
COMMENT For comments, questions, bug reports, send a mail to
COMMENT                                           subhabrata.biswas@usa.net
COMMENT 
FONT -*-Logisoso-Medium-R-Normal--32-240-96-96-c-14--fontspecific
SIZE 24 96 96
FONTBOUNDINGBOX 86 33 -2 -6
STARTPROPERTIES 15
FOUNDRY "Misc"
FAMILY_NAME "Logisoso"
WEIGHT_NAME "Medium"
SLANT "R"
SETWIDTH_NAME "Normal"
PIXEL_SIZE 20
POINT_SIZE 240
RESOLUTION_X 96
RESOLUTION_Y 96
SPACING "C"
CHARSET_ENCODING "fontspecific"
FONT_ASCENT 27
FONT_DESCENT 6
DEFAULT_CHAR 29
COPYRIGHT "You may wish to put your copyright here"
ENDPROPERTIES
CHARS 228
STARTCHAR C0028
ENCODING 28
SWIDTH 375 0
DWIDTH 12 0
BBX 8 21 1 0
BITMAP
FF
81
81
81
81
81
81
81
81
81
81
81
81
81
81
81
81
81
81
81
FF
ENDCHAR
STARTCHAR C0029
ENCODING 29
SWIDTH 375 0
DWIDTH 12 0
BBX 8 21 1 0
BITMAP
FF
81
81
81
81
81
81
81
81
81
81
81
81
81
81
81
81
81
81
81
FF
ENDCHAR
STARTCHAR C0030
ENCODING 30
SWIDTH 437 0
DWIDTH 14 0
BBX 1 1 0 -1
BITMAP
00
ENDCHAR
STARTCHAR C0031
ENCODING 31
SWIDTH 437 0
DWIDTH 14 0
BBX 1 1 0 -1
BITMAP
00
ENDCHAR
STARTCHAR C0032- 
ENCODING 32
SWIDTH 437 0
DWIDTH 14 0
BBX 1 1 0 -1
BITMAP
00
ENDCHAR
STARTCHAR C0033-!
ENCODING 33
SWIDTH 250 0
DWIDTH 8 0
BBX 3 22 3 0
BITMAP
E0
E0
E0
E0
E0
E0
E0
E0
E0
E0
E0
E0
E0
E0
E0
E0
E0
00
00
C0
C0
C0
ENDCHAR
STARTCHAR C0034-"
ENCODING 34
SWIDTH 437 0
DWIDTH 14 0
BBX 6 4 4 18
BITMAP
EC
EC
4C
48
ENDCHAR
STARTCHAR C0035-#
ENCODING 35
SWIDTH 437 0
DWIDTH 14 0
BBX 11 22 2 0
BITMAP
1CE0
1CE0
1DC0
1DC0
3DC0
39C0
39C0
FFE0
FFE0
FFE0
3B80
7380
FFE0
FFE0
FFE0
7700
7700
E700
E700
E700
E700
EF00
ENDCHAR
STARTCHAR C0036-$
ENCODING 36
SWIDTH 437 0
DWIDTH 14 0
BBX 11 28 2 -3
BITMAP
0E00
0E00
0E00
3F00
7F80
FBC0
E1E0
E0E0
C000
E000
F000
7800
3C00
1E00
0F00
0780
03C0
01C0
00E0
C0E0
E0E0
E1C0
7FC0
7F80
1F00
0E00
0E00
0E00
ENDCHAR
STARTCHAR C0037-%
ENCODING 37
SWIDTH 437 0
DWIDTH 14 0
BBX 12 22 1 0
BITMAP
7870
7CE0
ECE0
7CC0
79C0
01C0
0380
0380
0380
0700
0700
0600
0E00
0E00
1C00
1C00
1C00
39E0
3BF0
3330
73F0
F1E0
ENDCHAR
STARTCHAR C0038-&
ENCODING 38
SWIDTH 437 0
DWIDTH 14 0
BBX 11 23 2 0
BITMAP
0E00
3F00
7F80
73C0
E1C0
E000
E000
7000
7000
7800
F800
FC00
DC00
DEE0
CEE0
CEE0
C7E0
C7E0
E3E0
E3C0
7FC0
7FC0
1EE0
ENDCHAR
STARTCHAR C0039-'
ENCODING 39
SWIDTH 250 0
DWIDTH 8 0
BBX 3 4 3 18
BITMAP
C0
E0
40
80
ENDCHAR
STARTCHAR C0040-(
ENCODING 40
SWIDTH 437 0
DWIDTH 14 0
BBX 6 22 4 0
BITMAP
18
3C
38
38
70
70
60
E0
E0
E0
E0
E0
E0
E0
60
70
70
70
38
38
1C
18
ENDCHAR
STARTCHAR C0041-)
ENCODING 41
SWIDTH 437 0
DWIDTH 14 0
BBX 6 22 4 0
BITMAP
20
70
70
38
38
1C
1C
1C
1C
1C
1C
1C
1C
1C
1C
1C
18
38
38
70
70
20
ENDCHAR
STARTCHAR C0042-*
ENCODING 42
SWIDTH 437 0
DWIDTH 14 0
BBX 10 10 2 16
BITMAP
0C00
0C00
4C80
7FC0
BF80
1F00
7F80
FDC0
4C80
0C00
ENDCHAR
STARTCHAR C0043-+
ENCODING 43
SWIDTH 437 0
DWIDTH 14 0
BBX 8 9 3 4
BITMAP
1C
1C
1C
FF
FF
FF
1C
1C
1C
ENDCHAR
STARTCHAR C0044-,
ENCODING 44
SWIDTH 250 0
DWIDTH 8 0
BBX 3 4 3 -1
BITMAP
C0
E0
C0
40
ENDCHAR
STARTCHAR C0045--
ENCODING 45
SWIDTH 437 0
DWIDTH 14 0
BBX 8 3 3 7
BITMAP
FF
FF
FF
ENDCHAR
STARTCHAR C0046-.
ENCODING 46
SWIDTH 250 0
DWIDTH 8 0
BBX 3 3 3 0
BITMAP
C0
E0
C0
ENDCHAR
STARTCHAR C0047-/
ENCODING 47
SWIDTH 437 0
DWIDTH 14 0
BBX 11 22 2 0
BITMAP
01E0
01C0
01C0
0380
0380
0380
0700
0700
0F00
0E00
0E00
1C00
1C00
1C00
3800
3800
3800
7000
7000
7000
E000
E000
ENDCHAR
STARTCHAR C0048-0
ENCODING 48
SWIDTH 437 0
DWIDTH 14 0
BBX 11 22 2 0
BITMAP
3F00
7F80
FBC0
E1E0
C0E0
C0E0
C0E0
C0E0
C0E0
C0E0
C0E0
C0E0
C0E0
C0E0
C0E0
C0E0
C0E0
E0E0
E1C0
7FC0
7F80
1E00
ENDCHAR
STARTCHAR C0049-1
ENCODING 49
SWIDTH 437 0
DWIDTH 14 0
BBX 5 22 5 0
BITMAP
38
38
78
F8
F8
D8
18
18
18
18
18
18
18
18
18
18
18
18
18
18
18
18
ENDCHAR
STARTCHAR C0050-2
ENCODING 50
SWIDTH 437 0
DWIDTH 14 0
BBX 11 22 2 0
BITMAP
3F00
7F80
FBC0
E1E0
E0E0
C0E0
E0E0
C1C0
03C0
0380
0700
0700
0E00
1E00
1C00
3800
7800
7000
E000
FFE0
FFE0
FFE0
ENDCHAR
STARTCHAR C0051-3
ENCODING 51
SWIDTH 437 0
DWIDTH 14 0
BBX 11 22 2 0
BITMAP
FFE0
FFE0
01E0
01C0
0380
0780
0700
0F00
0E00
0F80
0FC0
01C0
00E0
00E0
00E0
00E0
00E0
40E0
E1C0
FFC0
7F80
1E00
ENDCHAR
STARTCHAR C0052-4
ENCODING 52
SWIDTH 437 0
DWIDTH 14 0
BBX 11 22 2 0
BITMAP
1C00
1C00
1C00
3800
3800
3800
3800
7000
7000
7000
7000
E700
E700
E700
E700
FFE0
FFE0
FFE0
0700
0700
0700
0700
ENDCHAR
STARTCHAR C0053-5
ENCODING 53
SWIDTH 437 0
DWIDTH 14 0
BBX 11 22 2 0
BITMAP
FFE0
FFE0
C000
C000
C000
C000
C000
FF00
FF80
FFC0
E1C0
E0E0
C0E0
00E0
00E0
00E0
C0E0
E0E0
E1C0
7FC0
7F80
1E00
ENDCHAR
STARTCHAR C0054-6
ENCODING 54
SWIDTH 437 0
DWIDTH 14 0
BBX 11 22 2 0
BITMAP
3F00
7F80
F3C0
E1E0
C0E0
C000
C000
C000
DE00
FF80
FFC0
E1C0
E0E0
C0E0
C0E0
C0E0
C0E0
E0E0
E1C0
7FC0
7F80
1E00
ENDCHAR
STARTCHAR C0055-7
ENCODING 55
SWIDTH 437 0
DWIDTH 14 0
BBX 11 22 2 0
BITMAP
FFE0
FFE0
C1E0
C1C0
C1C0
01C0
03C0
0380
0380
0380
0780
0700
0700
0700
0F00
0E00
0E00
0E00
1E00
1C00
1C00
3C00
ENDCHAR
STARTCHAR C0056-8
ENCODING 56
SWIDTH 437 0
DWIDTH 14 0
BBX 11 22 2 0
BITMAP
3F00
7F80
FBC0
E1E0
E0E0
C0E0
C0E0
E0E0
E1E0
FFC0
7F80
7FC0
F1C0
E0E0
C0E0
C0E0
C0E0
E0E0
E1C0
7FC0
7F80
1F00
ENDCHAR
STARTCHAR C0057-9
ENCODING 57
SWIDTH 437 0
DWIDTH 14 0
BBX 11 22 2 0
BITMAP
3F00
7F80
FBC0
E1E0
E0E0
C0E0
C0E0
C0E0
C0E0
E0E0
F3E0
7FE0
3FE0
0CE0
00E0
00E0
C0E0
E0E0
E1C0
7FC0
7F80
1E00
ENDCHAR
STARTCHAR C0058-:
ENCODING 58
SWIDTH 250 0
DWIDTH 8 0
BBX 3 13 3 3
BITMAP
40
E0
C0
00
00
00
00
00
00
00
40
E0
C0
ENDCHAR
STARTCHAR C0059-;
ENCODING 59
SWIDTH 250 0
DWIDTH 8 0
BBX 3 15 3 1
BITMAP
40
E0
C0
00
00
00
00
00
00
00
40
E0
C0
40
40
ENDCHAR
STARTCHAR C0060-<
ENCODING 60
SWIDTH 437 0
DWIDTH 14 0
BBX 7 13 4 4
BITMAP
06
0E
1C
38
F0
E0
C0
E0
70
38
1E
0E
02
ENDCHAR
STARTCHAR C0061-=
ENCODING 61
SWIDTH 437 0
DWIDTH 14 0
BBX 10 8 2 3
BITMAP
FFC0
FFC0
0000
0000
0000
FFC0
FFC0
FFC0
ENDCHAR
STARTCHAR C0062->
ENCODING 62
SWIDTH 437 0
DWIDTH 14 0
BBX 7 13 4 4
BITMAP
80
C0
F0
78
3C
0E
06
0E
3C
78
E0
C0
80
ENDCHAR
STARTCHAR C0063-?
ENCODING 63
SWIDTH 437 0
DWIDTH 14 0
BBX 11 23 2 0
BITMAP
0E00
3F80
7FC0
F1C0
E0E0
C0E0
00E0
00E0
01C0
03C0
0780
0F00
0E00
0C00
0C00
0C00
0C00
0C00
0C00
0000
0C00
0C00
0C00
ENDCHAR
STARTCHAR C0064-@
ENCODING 64
SWIDTH 718 0
DWIDTH 23 0
BBX 19 27 2 -6
BITMAP
03F800
0FFE00
1FFF00
3C0780
7803C0
F05DC0
E1FCE0
E3FCE0
C7BCE0
C71C60
C71C60
C71C60
C71C60
C71C60
C71C60
C71C60
C71C60
C71CE0
E3FFE0
E3FFC0
E1E780
700000
780000
3E0000
1FFF80
07FF80
00FF80
ENDCHAR
STARTCHAR C0065-A
ENCODING 65
SWIDTH 437 0
DWIDTH 14 0
BBX 11 22 2 0
BITMAP
0E00
1E00
1E00
1E00
1F00
1F00
1F00
3F00
3F00
3B00
3B80
3380
7380
7380
7180
7FC0
7FC0
FFC0
E1C0
E0C0
E0C0
E0E0
ENDCHAR
STARTCHAR C0066-B
ENCODING 66
SWIDTH 437 0
DWIDTH 14 0
BBX 11 22 2 0
BITMAP
FF00
FF80
C7C0
C1C0
C1C0
C0C0
C1C0
C1C0
C7C0
FF80
FF80
C7C0
C1C0
C0E0
C0E0
C0E0
C0E0
C1C0
C3C0
FF80
FF00
FE00
ENDCHAR
STARTCHAR C0067-C
ENCODING 67
SWIDTH 437 0
DWIDTH 14 0
BBX 11 23 2 0
BITMAP
0000
3F00
7F80
F3C0
E1E0
C0E0
C000
C000
C000
C000
C000
C000
C000
C000
C000
C000
C000
C0E0
E0E0
E1C0
7FC0
7F80
1E00
ENDCHAR
STARTCHAR C0068-D
ENCODING 68
SWIDTH 437 0
DWIDTH 14 0
BBX 11 22 2 0
BITMAP
FF00
FF80
C3C0
C1E0
C0E0
C0E0
C0E0
C0E0
C0E0
C0E0
C0E0
C0E0
C0E0
C0E0
C0E0
C0E0
C0E0
C0E0
C1C0
FFC0
FF80
FF00
ENDCHAR
STARTCHAR C0069-E
ENCODING 69
SWIDTH 437 0
DWIDTH 14 0
BBX 11 22 2 0
BITMAP
FFE0
FFE0
C000
C000
C000
C000
C000
C000
C000
FF00
FF00
FF00
C000
C000
C000
C000
C000
C000
C000
FFE0
FFE0
FFE0
ENDCHAR
STARTCHAR C0070-F
ENCODING 70
SWIDTH 437 0
DWIDTH 14 0
BBX 11 22 2 0
BITMAP
FFE0
FFE0
C000
C000
C000
C000
C000
C000
C000
FF00
FF00
FF00
C000
C000
C000
C000
C000
C000
C000
C000
C000
C000
ENDCHAR
STARTCHAR C0071-G
ENCODING 71
SWIDTH 437 0
DWIDTH 14 0
BBX 11 22 2 0
BITMAP
3F00
7F80
F3C0
E1E0
E0E0
C000
C000
C000
C000
C000
C7E0
C7E0
C7E0
C0E0
C0E0
C0E0
C0E0
E0E0
E1E0
7FE0
7FE0
1EE0
ENDCHAR
STARTCHAR C0072-H
ENCODING 72
SWIDTH 437 0
DWIDTH 14 0
BBX 11 22 2 0
BITMAP
C0E0
C0E0
C0E0
C0E0
C0E0
C0E0
C0E0
C0E0
C0E0
FFE0
FFE0
FFE0
C0E0
C0E0
C0E0
C0E0
C0E0
C0E0
C0E0
C0E0
C0E0
C0E0
ENDCHAR
STARTCHAR C0073-I
ENCODING 73
SWIDTH 250 0
DWIDTH 8 0
BBX 3 22 3 0
BITMAP
E0
E0
E0
E0
E0
E0
E0
E0
E0
E0
E0
E0
E0
E0
E0
E0
E0
E0
E0
E0
E0
E0
ENDCHAR
STARTCHAR C0074-J
ENCODING 74
SWIDTH 437 0
DWIDTH 14 0
BBX 11 22 2 0
BITMAP
00E0
00E0
00E0
00E0
00E0
00E0
00E0
00E0
00E0
00E0
00E0
00E0
00E0
00E0
00E0
00E0
C0E0
E0E0
E1C0
7FC0
7F80
1F00
ENDCHAR
STARTCHAR C0075-K
ENCODING 75
SWIDTH 437 0
DWIDTH 14 0
BBX 11 22 2 0
BITMAP
C1E0
C3C0
C380
C700
C700
CE00
DE00
DC00
F800
F800
F000
F000
F800
FC00
DC00
CE00
CF00
C700
C780
C380
C1C0
C1E0
ENDCHAR
STARTCHAR C0076-L
ENCODING 76
SWIDTH 437 0
DWIDTH 14 0
BBX 11 22 2 0
BITMAP
C000
C000
C000
C000
C000
C000
C000
C000
C000
C000
C000
C000
C000
C000
C000
C000
C000
C000
C000
FFE0
FFE0
FFE0
ENDCHAR
STARTCHAR C0077-M
ENCODING 77
SWIDTH 437 0
DWIDTH 14 0
BBX 11 22 2 0
BITMAP
E0E0
E1E0
E1E0
F1E0
F3E0
F3E0
FBE0
FFE0
FFE0
DFE0
DEE0
CEE0
CEE0
CCE0
C4E0
C4E0
C0E0
C0E0
C0E0
C0E0
C0E0
C0E0
ENDCHAR
STARTCHAR C0078-N
ENCODING 78
SWIDTH 437 0
DWIDTH 14 0
BBX 11 22 2 0
BITMAP
E0E0
E0E0
F0E0
F0E0
F0E0
F8E0
F8E0
F8E0
DCE0
DCE0
CEE0
CEE0
CEE0
C7E0
C7E0
C3E0
C3E0
C3E0
C1E0
C1E0
C1E0
C0E0
ENDCHAR
STARTCHAR C0079-O
ENCODING 79
SWIDTH 437 0
DWIDTH 14 0
BBX 11 22 2 0
BITMAP
3F00
7F80
FBC0
E1E0
E0E0
C0E0
C0E0
C0E0
C0E0
C0E0
C0E0
C0E0
C0E0
C0E0
C0E0
C0E0
C0E0
E0E0
E1C0
7FC0
7F80
1F00
ENDCHAR
STARTCHAR C0080-P
ENCODING 80
SWIDTH 437 0
DWIDTH 14 0
BBX 11 22 2 0
BITMAP
FE00
FF80
C7C0
C1C0
C0E0
C0E0
C0E0
C0E0
C1C0
C3C0
FF80
FF00
FE00
C000
C000
C000
C000
C000
C000
C000
C000
C000
ENDCHAR
STARTCHAR C0081-Q
ENCODING 81
SWIDTH 437 0
DWIDTH 14 0
BBX 11 22 2 0
BITMAP
3F00
7F80
FBC0
E1E0
E0E0
C0E0
C0E0
C0E0
C0E0
C0E0
C0E0
C0E0
C0E0
C0E0
C0E0
C0E0
C0E0
E0E0
E1C0
7FC0
7FC0
1FE0
ENDCHAR
STARTCHAR C0082-R
ENCODING 82
SWIDTH 437 0
DWIDTH 14 0
BBX 11 22 2 0
BITMAP
FE00
FF80
C7C0
C1C0
C0E0
C0E0
C0E0
C0E0
C1C0
C3C0
FF80
FF00
FF00
C700
C700
C380
C380
C380
C1C0
C1C0
C1C0
C0E0
ENDCHAR
STARTCHAR C0083-S
ENCODING 83
SWIDTH 437 0
DWIDTH 14 0
BBX 11 22 2 0
BITMAP
3F00
7F80
FBC0
E1E0
E0E0
C000
E000
F000
7800
3C00
1E00
0F00
0780
03C0
01C0
00E0
C0E0
E0E0
E1C0
7FC0
7F80
1F00
ENDCHAR
STARTCHAR C0084-T
ENCODING 84
SWIDTH 437 0
DWIDTH 14 0
BBX 11 22 2 0
BITMAP
FFE0
FFE0
0E00
0E00
0E00
0E00
0E00
0E00
0E00
0E00
0E00
0E00
0E00
0E00
0E00
0E00
0E00
0E00
0E00
0E00
0E00
0E00
ENDCHAR
STARTCHAR C0085-U
ENCODING 85
SWIDTH 437 0
DWIDTH 14 0
BBX 11 22 2 0
BITMAP
C0E0
C0E0
C0E0
C0E0
C0E0
C0E0
C0E0
C0E0
C0E0
C0E0
C0E0
C0E0
C0E0
C0E0
C0E0
C0E0
C0E0
E0E0
E1C0
7FC0
7F80
1F00
ENDCHAR
STARTCHAR C0086-V
ENCODING 86
SWIDTH 437 0
DWIDTH 14 0
BBX 11 22 2 0
BITMAP
E0E0
E0C0
E1C0
E1C0
61C0
71C0
71C0
7180
7380
3380
3B80
3B80
3B80
3B00
1F00
1F00
1F00
1F00
1E00
0E00
0E00
0E00
ENDCHAR
STARTCHAR C0087-W
ENCODING 87
SWIDTH 437 0
DWIDTH 14 0
BBX 11 22 2 0
BITMAP
C0E0
E0E0
E0E0
E0E0
E0C0
E0C0
E0C0
E8C0
E5C0
EDC0
EDC0
EFC0
EFC0
FFC0
7FC0
7FC0
7FC0
7FC0
7BC0
7BC0
7380
7380
ENDCHAR
STARTCHAR C0088-X
ENCODING 88
SWIDTH 437 0
DWIDTH 14 0
BBX 11 22 2 0
BITMAP
E0E0
E1C0
E1C0
71C0
7380
7380
3B80
3B00
3F00
1F00
1F00
1F00
3F00
3F00
3B80
3380
7380
7180
71C0
E1C0
E1C0
E0E0
ENDCHAR
STARTCHAR C0089-Y
ENCODING 89
SWIDTH 437 0
DWIDTH 14 0
BBX 11 22 2 0
BITMAP
E0E0
E1C0
E1C0
7380
7380
7380
7700
3F00
3F00
3E00
1E00
1C00
1C00
1C00
3800
3800
3800
7000
7000
7000
E000
E000
ENDCHAR
STARTCHAR C0090-Z
ENCODING 90
SWIDTH 437 0
DWIDTH 14 0
BBX 11 22 2 0
BITMAP
FFE0
FFE0
00E0
01C0
01C0
0380
0380
0700
0700
0E00
0E00
1C00
1C00
3800
3800
7000
7000
F000
E000
FFE0
FFE0
FFE0
ENDCHAR
STARTCHAR C0091-[
ENCODING 91
SWIDTH 437 0
DWIDTH 14 0
BBX 6 22 4 0
BITMAP
FC
FC
FC
E0
E0
E0
E0
E0
E0
E0
E0
E0
E0
E0
E0
E0
E0
E0
E0
FC
FC
FC
ENDCHAR
STARTCHAR C0092-\
ENCODING 92
SWIDTH 437 0
DWIDTH 14 0
BBX 11 22 2 0
BITMAP
E000
7000
7000
7000
3800
3800
3800
1C00
1C00
1C00
0E00
0E00
0E00
0700
0700
0780
0380
0380
01C0
01C0
01C0
00E0
ENDCHAR
STARTCHAR C0093-]
ENCODING 93
SWIDTH 437 0
DWIDTH 14 0
BBX 6 22 4 0
BITMAP
FC
FC
FC
1C
1C
1C
1C
1C
1C
1C
1C
1C
1C
1C
1C
1C
1C
1C
1C
FC
FC
FC
ENDCHAR
STARTCHAR C0094-^
ENCODING 94
SWIDTH 437 0
DWIDTH 14 0
BBX 9 4 3 23
BITMAP
3C00
7E00
6700
E380
ENDCHAR
STARTCHAR C0095-_
ENCODING 95
SWIDTH 437 0
DWIDTH 14 0
BBX 14 2 0 -2
BITMAP
FFFC
FFFC
ENDCHAR
STARTCHAR C0096-`
ENCODING 96
SWIDTH 437 0
DWIDTH 14 0
BBX 6 5 4 21
BITMAP
E0
70
38
18
0C
ENDCHAR
STARTCHAR C0097-a
ENCODING 97
SWIDTH 500 0
DWIDTH 16 0
BBX 13 17 1 0
BITMAP
0F80
1FC0
3FE0
78F0
7070
7070
0070
1FF0
3FF0
7FF0
7070
6070
E070
70F0
7FF8
3FF8
1F98
ENDCHAR
STARTCHAR C0098-b
ENCODING 98
SWIDTH 437 0
DWIDTH 14 0
BBX 11 23 2 0
BITMAP
C000
C000
C000
C000
C000
C000
DF00
FF80
FFC0
E1C0
E0E0
C0E0
C0E0
C0E0
C0E0
C0E0
C0E0
C0E0
E0E0
E1C0
FFC0
FF80
DF00
ENDCHAR
STARTCHAR C0099-c
ENCODING 99
SWIDTH 437 0
DWIDTH 14 0
BBX 11 17 2 0
BITMAP
1F00
7F80
FFC0
E1C0
E0E0
C0E0
C000
C000
C000
C000
C000
C0E0
E0E0
E1C0
FFC0
7F80
1F00
ENDCHAR
STARTCHAR C0100-d
ENCODING 100
SWIDTH 437 0
DWIDTH 14 0
BBX 11 23 2 0
BITMAP
00E0
00E0
00E0
00E0
00E0
00E0
1FE0
7FE0
FFE0
E1E0
E0E0
C0E0
C0E0
C0E0
C0E0
C0E0
C0E0
C0E0
E0E0
E1E0
FFE0
7FE0
1FE0
ENDCHAR
STARTCHAR C0101-e
ENCODING 101
SWIDTH 437 0
DWIDTH 14 0
BBX 11 17 2 0
BITMAP
1F00
7F80
FFC0
E1C0
E0E0
C0E0
C0E0
FFE0
FFE0
FFE0
C000
C000
E080
E1C0
FFC0
7F80
1F00
ENDCHAR
STARTCHAR C0102-f
ENCODING 102
SWIDTH 437 0
DWIDTH 14 0
BBX 11 23 2 0
BITMAP
0700
0FC0
1FC0
3CE0
38E0
3800
3800
3800
3800
FF80
FF80
FF80
3800
3800
3800
3800
3800
3800
3800
3800
3800
3800
3800
ENDCHAR
STARTCHAR C0103-g
ENCODING 103
SWIDTH 437 0
DWIDTH 14 0
BBX 11 23 2 -6
BITMAP
1FE0
7FE0
FFE0
E1C0
E0E0
C0E0
C0E0
E1E0
FFC0
7F80
3F00
7800
7000
7000
7F00
7FC0
FFC0
E0E0
C0E0
E0E0
FFC0
7FC0
1F00
ENDCHAR
STARTCHAR C0104-h
ENCODING 104
SWIDTH 437 0
DWIDTH 14 0
BBX 11 23 2 0
BITMAP
C000
C000
C000
C000
C000
C000
DF00
FF80
FFC0
E1C0
E0E0
C0E0
C0E0
C0E0
C0E0
C0E0
C0E0
C0E0
C0E0
C0E0
C0E0
C0E0
C0E0
ENDCHAR
STARTCHAR C0105-i
ENCODING 105
SWIDTH 250 0
DWIDTH 8 0
BBX 4 23 2 0
BITMAP
40
E0
E0
00
00
00
E0
E0
E0
E0
E0
E0
E0
E0
E0
E0
E0
E0
E0
E0
F0
70
30
ENDCHAR
STARTCHAR C0106-j
ENCODING 106
SWIDTH 437 0
DWIDTH 14 0
BBX 8 29 3 -6
BITMAP
03
03
03
00
00
00
03
03
03
03
03
03
03
03
03
03
03
03
03
03
03
03
03
03
E3
E7
7F
7E
18
ENDCHAR
STARTCHAR C0107-k
ENCODING 107
SWIDTH 437 0
DWIDTH 14 0
BBX 11 23 2 0
BITMAP
C000
C000
C000
C000
C000
C000
C1E0
C1C0
C380
C380
C700
CF00
CE00
DE00
DC00
FE00
FE00
FF00
F700
E380
E380
C1C0
C1E0
ENDCHAR
STARTCHAR C0108-l
ENCODING 108
SWIDTH 281 0
DWIDTH 9 0
BBX 5 23 2 0
BITMAP
C0
C0
C0
C0
C0
C0
C0
C0
C0
C0
C0
C0
C0
C0
C0
C0
C0
C0
C0
E0
F8
78
38
ENDCHAR
STARTCHAR C0109-m
ENCODING 109
SWIDTH 718 0
DWIDTH 23 0
BBX 20 17 1 0
BITMAP
EF8F80
FFDFE0
FFFFE0
F0F870
F07070
E07070
E07070
E07070
E07070
E07070
E07070
E07070
E07070
E07070
E07070
E07070
E07070
ENDCHAR
STARTCHAR C0110-n
ENCODING 110
SWIDTH 437 0
DWIDTH 14 0
BBX 11 17 2 0
BITMAP
DF00
FF80
FFC0
E1C0
E0E0
C0E0
C0E0
C0E0
C0E0
C0E0
C0E0
C0E0
C0E0
C0E0
C0E0
C0E0
C0E0
ENDCHAR
STARTCHAR C0111-o
ENCODING 111
SWIDTH 437 0
DWIDTH 14 0
BBX 11 17 2 0
BITMAP
1F00
7F80
FFC0
E1C0
E0E0
C0E0
C0E0
C0E0
C0E0
C0E0
C0E0
C0E0
E0E0
E1C0
FFC0
7F80
1F00
ENDCHAR
STARTCHAR C0112-p
ENCODING 112
SWIDTH 437 0
DWIDTH 14 0
BBX 11 23 2 -6
BITMAP
DF00
FF80
FFC0
E1C0
E0E0
C0E0
C0E0
C0E0
C0E0
C0E0
C0E0
C0E0
E0E0
E1C0
FFC0
FF80
DF00
C000
C000
C000
C000
C000
C000
ENDCHAR
STARTCHAR C0113-q
ENCODING 113
SWIDTH 437 0
DWIDTH 14 0
BBX 11 23 2 -6
BITMAP
1FE0
7FE0
FFE0
E1E0
E0E0
C0E0
C0E0
C0E0
C0E0
C0E0
C0E0
C0E0
E0E0
E1E0
7FE0
7FE0
1FE0
00E0
00E0
00E0
00E0
00E0
00E0
ENDCHAR
STARTCHAR C0114-r
ENCODING 114
SWIDTH 343 0
DWIDTH 11 0
BBX 9 17 1 0
BITMAP
EF80
FF80
FF80
F380
F000
E000
E000
E000
E000
E000
E000
E000
E000
E000
E000
E000
E000
ENDCHAR
STARTCHAR C0115-s
ENCODING 115
SWIDTH 406 0
DWIDTH 13 0
BBX 9 17 2 0
BITMAP
3E00
7F00
FF80
E380
C180
C180
E000
FE00
7F00
1F80
0380
C180
C180
E380
FF80
7F00
3E00
ENDCHAR
STARTCHAR C0116-t
ENCODING 116
SWIDTH 281 0
DWIDTH 9 0
BBX 7 23 1 0
BITMAP
70
70
70
70
70
70
FE
FE
FE
70
70
70
70
70
70
70
70
70
70
70
3E
3E
1E
ENDCHAR
STARTCHAR C0117-u
ENCODING 117
SWIDTH 437 0
DWIDTH 14 0
BBX 11 17 2 0
BITMAP
C0E0
C0E0
C0E0
C0E0
C0E0
C0E0
C0E0
C0E0
C0E0
C0E0
C0E0
C0E0
E0E0
E1E0
7FE0
7FE0
1FE0
ENDCHAR
STARTCHAR C0118-v
ENCODING 118
SWIDTH 437 0
DWIDTH 14 0
BBX 11 17 2 0
BITMAP
C0E0
E0E0
E0C0
E1C0
E1C0
61C0
71C0
7180
7380
7380
3380
3B80
3B00
3F00
3F00
1F00
1F00
ENDCHAR
STARTCHAR C0119-w
ENCODING 119
SWIDTH 718 0
DWIDTH 23 0
BBX 20 17 1 0
BITMAP
E07070
707070
70F070
70F870
70F860
30F8E0
38F8E0
39F8E0
39DCE0
39DCC0
19DDC0
1DDDC0
1F9DC0
1F8FC0
1F8F80
0F8F80
0F8F80
ENDCHAR
STARTCHAR C0120-x
ENCODING 120
SWIDTH 437 0
DWIDTH 14 0
BBX 11 17 2 0
BITMAP
E0E0
E1C0
71C0
7380
3B80
3F00
1F00
1E00
0E00
1E00
1F00
3F00
3B80
7380
71C0
E1C0
E0E0
ENDCHAR
STARTCHAR C0121-y
ENCODING 121
SWIDTH 437 0
DWIDTH 14 0
BBX 11 23 2 -6
BITMAP
70E0
70E0
71C0
71C0
31C0
39C0
39C0
3B80
3B80
1B80
1F80
1F80
1F00
1F00
0F00
0F00
0F00
0E00
0E00
4E00
FE00
FC00
3000
ENDCHAR
STARTCHAR C0122-z
ENCODING 122
SWIDTH 437 0
DWIDTH 14 0
BBX 11 17 2 0
BITMAP
FFE0
FFE0
FFE0
01C0
03C0
0780
0700
0F00
1E00
1C00
3C00
7800
7000
F000
FFE0
FFE0
FFE0
ENDCHAR
STARTCHAR C0123-{
ENCODING 123
SWIDTH 437 0
DWIDTH 14 0
BBX 8 26 3 -3
BITMAP
03
0F
0F
1C
1C
1C
1C
1C
1C
18
38
78
E0
F0
38
18
1C
1C
1C
1C
1C
1C
1C
0F
07
01
ENDCHAR
STARTCHAR C0124-|
ENCODING 124
SWIDTH 437 0
DWIDTH 14 0
BBX 3 28 6 -3
BITMAP
E0
E0
E0
E0
E0
E0
E0
E0
E0
E0
E0
E0
E0
E0
E0
E0
E0
E0
E0
E0
E0
E0
E0
E0
E0
E0
E0
E0
ENDCHAR
STARTCHAR C0125-}
ENCODING 125
SWIDTH 437 0
DWIDTH 14 0
BBX 8 26 3 -3
BITMAP
E0
F0
F8
38
18
18
18
18
18
1C
1C
0F
07
07
0E
1C
18
18
18
18
18
18
38
F8
F0
C0
ENDCHAR
STARTCHAR C0126-~
ENCODING 126
SWIDTH 437 0
DWIDTH 14 0
BBX 12 5 1 6
BITMAP
2000
FFE0
7FF0
3F70
0000
ENDCHAR
STARTCHAR C0127
ENCODING 127
SWIDTH 437 0
DWIDTH 14 0
BBX 1 1 0 -1
BITMAP
00
ENDCHAR
STARTCHAR C0128
ENCODING 128
SWIDTH 531 0
DWIDTH 17 0
BBX 15 23 1 0
BITMAP
0000
03F0
07F8
0F3C
0E1C
1C0E
1C00
1C00
7FF8
7FF0
7FF0
9C00
3FE0
7FE0
7FE0
9C00
1C00
1C0E
0C0E
0E1C
0FFC
07F8
01E0
ENDCHAR
STARTCHAR C0129
ENCODING 129
SWIDTH 437 0
DWIDTH 14 0
BBX 1 1 0 -1
BITMAP
00
ENDCHAR
STARTCHAR C0130
ENCODING 130
SWIDTH 375 0
DWIDTH 12 0
BBX 8 21 1 0
BITMAP
FF
81
81
81
81
81
81
81
81
81
81
81
81
81
81
81
81
81
81
81
FF
ENDCHAR
STARTCHAR C0131
ENCODING 131
SWIDTH 437 0
DWIDTH 14 0
BBX 1 1 0 -1
BITMAP
00
ENDCHAR
STARTCHAR C0132
ENCODING 132
SWIDTH 375 0
DWIDTH 12 0
BBX 8 21 1 0
BITMAP
FF
81
81
81
81
81
81
81
81
81
81
81
81
81
81
81
81
81
81
81
FF
ENDCHAR
STARTCHAR C0133
ENCODING 133
SWIDTH 375 0
DWIDTH 12 0
BBX 8 21 1 0
BITMAP
FF
81
81
81
81
81
81
81
81
81
81
81
81
81
81
81
81
81
81
81
FF
ENDCHAR
STARTCHAR C0134
ENCODING 134
SWIDTH 375 0
DWIDTH 12 0
BBX 8 21 1 0
BITMAP
FF
81
81
81
81
81
81
81
81
81
81
81
81
81
81
81
81
81
81
81
FF
ENDCHAR
STARTCHAR C0135
ENCODING 135
SWIDTH 375 0
DWIDTH 12 0
BBX 8 21 1 0
BITMAP
FF
81
81
81
81
81
81
81
81
81
81
81
81
81
81
81
81
81
81
81
FF
ENDCHAR
STARTCHAR C0136
ENCODING 136
SWIDTH 375 0
DWIDTH 12 0
BBX 8 21 1 0
BITMAP
FF
81
81
81
81
81
81
81
81
81
81
81
81
81
81
81
81
81
81
81
FF
ENDCHAR
STARTCHAR C0137
ENCODING 137
SWIDTH 375 0
DWIDTH 12 0
BBX 8 21 1 0
BITMAP
FF
81
81
81
81
81
81
81
81
81
81
81
81
81
81
81
81
81
81
81
FF
ENDCHAR
STARTCHAR C0138
ENCODING 138
SWIDTH 437 0
DWIDTH 14 0
BBX 1 1 0 -1
BITMAP
00
ENDCHAR
STARTCHAR C0139
ENCODING 139
SWIDTH 375 0
DWIDTH 12 0
BBX 8 21 1 0
BITMAP
FF
81
81
81
81
81
81
81
81
81
81
81
81
81
81
81
81
81
81
81
FF
ENDCHAR
STARTCHAR C0140
ENCODING 140
SWIDTH 437 0
DWIDTH 14 0
BBX 17 22 -1 0
BITMAP
3FFF80
7FFF80
FFFF80
E3C000
E3C000
E3C000
E3C000
E3C000
E3C000
E3FE00
E3FE00
E3FE00
E3C000
E3C000
E3C000
E3C000
E3C000
E3C000
F3C000
FFFF80
7FFF80
3DFF80
ENDCHAR
STARTCHAR C0141
ENCODING 141
SWIDTH 437 0
DWIDTH 14 0
BBX 1 1 0 -1
BITMAP
00
ENDCHAR
STARTCHAR C0142
ENCODING 142
SWIDTH 437 0
DWIDTH 14 0
BBX 1 1 0 -1
BITMAP
00
ENDCHAR
STARTCHAR C0143
ENCODING 143
SWIDTH 437 0
DWIDTH 14 0
BBX 1 1 0 -1
BITMAP
00
ENDCHAR
STARTCHAR C0144
ENCODING 144
SWIDTH 437 0
DWIDTH 14 0
BBX 1 1 0 -1
BITMAP
00
ENDCHAR
STARTCHAR C0145
ENCODING 145
SWIDTH 375 0
DWIDTH 12 0
BBX 8 21 1 0
BITMAP
FF
81
81
81
81
81
81
81
81
81
81
81
81
81
81
81
81
81
81
81
FF
ENDCHAR
STARTCHAR C0146
ENCODING 146
SWIDTH 375 0
DWIDTH 12 0
BBX 8 21 1 0
BITMAP
FF
81
81
81
81
81
81
81
81
81
81
81
81
81
81
81
81
81
81
81
FF
ENDCHAR
STARTCHAR C0147
ENCODING 147
SWIDTH 375 0
DWIDTH 12 0
BBX 8 21 1 0
BITMAP
FF
81
81
81
81
81
81
81
81
81
81
81
81
81
81
81
81
81
81
81
FF
ENDCHAR
STARTCHAR C0148
ENCODING 148
SWIDTH 375 0
DWIDTH 12 0
BBX 8 21 1 0
BITMAP
FF
81
81
81
81
81
81
81
81
81
81
81
81
81
81
81
81
81
81
81
FF
ENDCHAR
STARTCHAR C0149
ENCODING 149
SWIDTH 375 0
DWIDTH 12 0
BBX 8 21 1 0
BITMAP
FF
81
81
81
81
81
81
81
81
81
81
81
81
81
81
81
81
81
81
81
FF
ENDCHAR
STARTCHAR C0150
ENCODING 150
SWIDTH 375 0
DWIDTH 12 0
BBX 8 21 1 0
BITMAP
FF
81
81
81
81
81
81
81
81
81
81
81
81
81
81
81
81
81
81
81
FF
ENDCHAR
STARTCHAR C0151
ENCODING 151
SWIDTH 375 0
DWIDTH 12 0
BBX 8 21 1 0
BITMAP
FF
81
81
81
81
81
81
81
81
81
81
81
81
81
81
81
81
81
81
81
FF
ENDCHAR
STARTCHAR C0152
ENCODING 152
SWIDTH 375 0
DWIDTH 12 0
BBX 8 21 1 0
BITMAP
FF
81
81
81
81
81
81
81
81
81
81
81
81
81
81
81
81
81
81
81
FF
ENDCHAR
STARTCHAR C0153
ENCODING 153
SWIDTH 375 0
DWIDTH 12 0
BBX 8 21 1 0
BITMAP
FF
81
81
81
81
81
81
81
81
81
81
81
81
81
81
81
81
81
81
81
FF
ENDCHAR
STARTCHAR C0154
ENCODING 154
SWIDTH 437 0
DWIDTH 14 0
BBX 1 1 0 -1
BITMAP
00
ENDCHAR
STARTCHAR C0155
ENCODING 155
SWIDTH 375 0
DWIDTH 12 0
BBX 8 21 1 0
BITMAP
FF
81
81
81
81
81
81
81
81
81
81
81
81
81
81
81
81
81
81
81
FF
ENDCHAR
STARTCHAR C0156
ENCODING 156
SWIDTH 625 0
DWIDTH 20 0
BBX 18 17 1 0
BITMAP
1F3E00
3FFF00
7FFF80
71E380
60C180
E0C1C0
E0C1C0
E0FFC0
E0FFC0
E0FFC0
E0C000
E0C000
60C1C0
71E380
7FFF80
3FFF00
1F3E00
ENDCHAR
STARTCHAR C0157
ENCODING 157
SWIDTH 437 0
DWIDTH 14 0
BBX 1 1 0 -1
BITMAP
00
ENDCHAR
STARTCHAR C0158
ENCODING 158
SWIDTH 437 0
DWIDTH 14 0
BBX 1 1 0 -1
BITMAP
00
ENDCHAR
STARTCHAR C0159
ENCODING 159
SWIDTH 437 0
DWIDTH 14 0
BBX 1 1 0 -1
BITMAP
00
ENDCHAR
STARTCHAR C0160
ENCODING 160
SWIDTH 437 0
DWIDTH 14 0
BBX 1 1 0 -1
BITMAP
00
ENDCHAR
STARTCHAR C0161
ENCODING 161
SWIDTH 437 0
DWIDTH 14 0
BBX 1 1 0 -1
BITMAP
00
ENDCHAR
STARTCHAR C0162
ENCODING 162
SWIDTH 437 0
DWIDTH 14 0
BBX 1 1 0 -1
BITMAP
00
ENDCHAR
STARTCHAR C0163
ENCODING 163
SWIDTH 437 0
DWIDTH 14 0
BBX 11 23 2 0
BITMAP
0600
1F80
3FC0
79E0
70E0
7000
7000
7000
7000
7000
FE00
FE00
FE00
7000
7000
7000
7000
7000
7000
7000
FFE0
FFE0
FFE0
ENDCHAR
STARTCHAR C0164
ENCODING 164
SWIDTH 437 0
DWIDTH 14 0
BBX 1 1 0 -1
BITMAP
00
ENDCHAR
STARTCHAR C0165
ENCODING 165
SWIDTH 437 0
DWIDTH 14 0
BBX 1 1 0 -1
BITMAP
00
ENDCHAR
STARTCHAR C0166
ENCODING 166
SWIDTH 437 0
DWIDTH 14 0
BBX 1 1 0 -1
BITMAP
00
ENDCHAR
STARTCHAR C0167
ENCODING 167
SWIDTH 812 0
DWIDTH 26 0
BBX 22 17 2 0
BITMAP
0380F0
0701E0
0701C0
0F83E0
1F83E0
1FC770
3DC778
38EE38
70FE3C
707C1C
F07C1C
F07C0C
F07C1C
F8FE1C
BFEFF8
9FC7F8
8F83E0
ENDCHAR
STARTCHAR C0168
ENCODING 168
SWIDTH 437 0
DWIDTH 14 0
BBX 1 1 0 -1
BITMAP
00
ENDCHAR
STARTCHAR C0169
ENCODING 169
SWIDTH 718 0
DWIDTH 23 0
BBX 19 23 2 0
BITMAP
00E000
07FC00
1FFF00
3E0F80
7803C0
70E1C0
E3F9E0
E7FCE0
E71CE0
C61CE0
C80C60
C00C60
C00C60
CE0C60
E71CE0
E7FCE0
E3F8E0
71F1C0
7803C0
3C0780
1FFF00
0FFE00
03F800
ENDCHAR
STARTCHAR C0170
ENCODING 170
SWIDTH 437 0
DWIDTH 14 0
BBX 1 1 0 -1
BITMAP
00
ENDCHAR
STARTCHAR C0171
ENCODING 171
SWIDTH 437 0
DWIDTH 14 0
BBX 11 11 2 5
BITMAP
0860
18E0
79C0
F380
E700
C600
E700
7380
39E0
18E0
0820
ENDCHAR
STARTCHAR C0172
ENCODING 172
SWIDTH 437 0
DWIDTH 14 0
BBX 1 1 0 -1
BITMAP
00
ENDCHAR
STARTCHAR C0173
ENCODING 173
SWIDTH 437 0
DWIDTH 14 0
BBX 1 1 0 -1
BITMAP
00
ENDCHAR
STARTCHAR C0174
ENCODING 174
SWIDTH 437 0
DWIDTH 14 0
BBX 1 1 0 -1
BITMAP
00
ENDCHAR
STARTCHAR C0175
ENCODING 175
SWIDTH 437 0
DWIDTH 14 0
BBX 1 1 0 -1
BITMAP
00
ENDCHAR
STARTCHAR C0176
ENCODING 176
SWIDTH 250 0
DWIDTH 8 0
BBX 5 5 2 21
BITMAP
60
F0
98
98
F0
ENDCHAR
STARTCHAR C0177
ENCODING 177
SWIDTH 437 0
DWIDTH 14 0
BBX 1 1 0 -1
BITMAP
00
ENDCHAR
STARTCHAR C0178
ENCODING 178
SWIDTH 437 0
DWIDTH 14 0
BBX 1 1 0 -1
BITMAP
00
ENDCHAR
STARTCHAR C0179
ENCODING 179
SWIDTH 437 0
DWIDTH 14 0
BBX 1 1 0 -1
BITMAP
00
ENDCHAR
STARTCHAR C0180
ENCODING 180
SWIDTH 437 0
DWIDTH 14 0
BBX 1 1 0 -1
BITMAP
00
ENDCHAR
STARTCHAR C0181
ENCODING 181
SWIDTH 437 0
DWIDTH 14 0
BBX 11 21 2 -4
BITMAP
C0E0
C0E0
C0E0
C0E0
C0E0
C0E0
C0E0
C0E0
C0E0
C0E0
C0E0
C0E0
E0E0
E1E0
FFE0
FFE0
DFE0
C000
C000
C000
C000
ENDCHAR
STARTCHAR C0182
ENCODING 182
SWIDTH 437 0
DWIDTH 14 0
BBX 1 1 0 -1
BITMAP
00
ENDCHAR
STARTCHAR C0183
ENCODING 183
SWIDTH 437 0
DWIDTH 14 0
BBX 1 1 0 -1
BITMAP
00
ENDCHAR
STARTCHAR C0184
ENCODING 184
SWIDTH 437 0
DWIDTH 14 0
BBX 1 1 0 -1
BITMAP
00
ENDCHAR
STARTCHAR C0185
ENCODING 185
SWIDTH 437 0
DWIDTH 14 0
BBX 1 1 0 -1
BITMAP
00
ENDCHAR
STARTCHAR C0186
ENCODING 186
SWIDTH 437 0
DWIDTH 14 0
BBX 1 1 0 -1
BITMAP
00
ENDCHAR
STARTCHAR C0187
ENCODING 187
SWIDTH 437 0
DWIDTH 14 0
BBX 11 11 2 5
BITMAP
8400
C700
E780
79C0
38E0
1860
38E0
7BC0
E780
C600
8400
ENDCHAR
STARTCHAR C0188
ENCODING 188
SWIDTH 437 0
DWIDTH 14 0
BBX 1 1 0 -1
BITMAP
00
ENDCHAR
STARTCHAR C0189
ENCODING 189
SWIDTH 437 0
DWIDTH 14 0
BBX 1 1 0 -1
BITMAP
00
ENDCHAR
STARTCHAR C0190
ENCODING 190
SWIDTH 437 0
DWIDTH 14 0
BBX 1 1 0 -1
BITMAP
00
ENDCHAR
STARTCHAR C0191
ENCODING 191
SWIDTH 437 0
DWIDTH 14 0
BBX 1 1 0 -1
BITMAP
00
ENDCHAR
STARTCHAR C0192
ENCODING 192
SWIDTH 437 0
DWIDTH 14 0
BBX 11 27 2 0
BITMAP
1C00
0E00
0600
0300
0000
0E00
1E00
1E00
1E00
1F00
1F00
1F00
3F00
3F00
3B00
3B80
3380
7380
7380
7180
7FC0
7FC0
FFC0
E1C0
E0C0
E0E0
C0E0
ENDCHAR
STARTCHAR C0193
ENCODING 193
SWIDTH 437 0
DWIDTH 14 0
BBX 11 27 2 0
BITMAP
0700
0E00
0C00
1800
0000
0E00
1E00
1E00
1E00
1F00
1F00
1F00
3F00
3F00
3B00
3B80
3380
7380
7380
7180
7FC0
7FC0
FFC0
E1C0
E0C0
E0E0
C0E0
ENDCHAR
STARTCHAR C0194
ENCODING 194
SWIDTH 437 0
DWIDTH 14 0
BBX 11 27 2 0
BITMAP
1E00
1F00
3300
7180
0000
0E00
1E00
1E00
1E00
1F00
1F00
1F00
3F00
3F00
3B00
3B80
3380
7380
7380
7180
7FC0
7FC0
FFC0
E1C0
E0C0
E0E0
C0E0
ENDCHAR
STARTCHAR C0195
ENCODING 195
SWIDTH 437 0
DWIDTH 14 0
BBX 1 1 0 -1
BITMAP
00
ENDCHAR
STARTCHAR C0196
ENCODING 196
SWIDTH 437 0
DWIDTH 14 0
BBX 11 27 2 0
BITMAP
3B00
3B00
1300
0000
0000
0E00
1E00
1E00
1E00
1F00
1F00
1F00
3F00
3F00
3B00
3B80
3380
7380
7380
7180
7FC0
7FC0
FFC0
E1C0
E0C0
E0E0
C0E0
ENDCHAR
STARTCHAR C0197
ENCODING 197
SWIDTH 437 0
DWIDTH 14 0
BBX 1 1 0 -1
BITMAP
00
ENDCHAR
STARTCHAR C0198
ENCODING 198
SWIDTH 437 0
DWIDTH 14 0
BBX 19 22 -2 0
BITMAP
01FFE0
01FFE0
01FFE0
03F000
03F000
037000
077000
077000
0E7000
0E7F80
0E7F80
1C7F80
1C7000
1C7000
3FF000
3FF000
3FF000
707000
707000
707FE0
E07FE0
E07FE0
ENDCHAR
STARTCHAR C0199
ENCODING 199
SWIDTH 437 0
DWIDTH 14 0
BBX 1 1 0 -1
BITMAP
00
ENDCHAR
STARTCHAR C0200
ENCODING 200
SWIDTH 437 0
DWIDTH 14 0
BBX 11 27 2 0
BITMAP
1C00
0E00
0600
0300
0000
FFE0
FFE0
C000
C000
C000
C000
C000
C000
C000
FF00
FF00
FF00
C000
C000
C000
C000
C000
C000
C000
FFE0
FFE0
FFE0
ENDCHAR
STARTCHAR C0201
ENCODING 201
SWIDTH 437 0
DWIDTH 14 0
BBX 11 27 2 0
BITMAP
0700
0E00
0C00
1800
0000
FFE0
FFE0
C000
C000
C000
C000
C000
C000
C000
FF00
FF00
FF00
C000
C000
C000
C000
C000
C000
C000
FFE0
FFE0
FFE0
ENDCHAR
STARTCHAR C0202
ENCODING 202
SWIDTH 437 0
DWIDTH 14 0
BBX 11 27 2 0
BITMAP
1E00
1F00
3300
7180
0000
FFE0
FFE0
C000
C000
C000
C000
C000
C000
C000
FF00
FF00
FF00
C000
C000
C000
C000
C000
C000
C000
FFE0
FFE0
FFE0
ENDCHAR
STARTCHAR C0203
ENCODING 203
SWIDTH 437 0
DWIDTH 14 0
BBX 11 27 2 0
BITMAP
3B00
3B00
1300
0000
0000
FFE0
FFE0
C000
C000
C000
C000
C000
C000
C000
FF00
FF00
FF00
C000
C000
C000
C000
C000
C000
C000
FFE0
FFE0
FFE0
ENDCHAR
STARTCHAR C0204
ENCODING 204
SWIDTH 437 0
DWIDTH 14 0
BBX 5 27 5 0
BITMAP
E0
70
30
18
00
70
70
70
70
70
70
70
70
70
70
70
70
70
70
70
70
70
70
70
70
70
70
ENDCHAR
STARTCHAR C0205
ENCODING 205
SWIDTH 437 0
DWIDTH 14 0
BBX 5 27 5 0
BITMAP
38
70
60
C0
00
70
70
70
70
70
70
70
70
70
70
70
70
70
70
70
70
70
70
70
70
70
70
ENDCHAR
STARTCHAR C0206
ENCODING 206
SWIDTH 437 0
DWIDTH 14 0
BBX 8 27 3 0
BITMAP
3C
3E
66
E3
00
1C
1C
1C
1C
1C
1C
1C
1C
1C
1C
1C
1C
1C
1C
1C
1C
1C
1C
1C
1C
1C
1C
ENDCHAR
STARTCHAR C0207
ENCODING 207
SWIDTH 437 0
DWIDTH 14 0
BBX 6 27 4 0
BITMAP
EC
EC
4C
00
00
38
38
38
38
38
38
38
38
38
38
38
38
38
38
38
38
38
38
38
38
38
38
ENDCHAR
STARTCHAR C0208
ENCODING 208
SWIDTH 437 0
DWIDTH 14 0
BBX 1 1 0 -1
BITMAP
00
ENDCHAR
STARTCHAR C0209
ENCODING 209
SWIDTH 437 0
DWIDTH 14 0
BBX 1 1 0 -1
BITMAP
00
ENDCHAR
STARTCHAR C0210
ENCODING 210
SWIDTH 437 0
DWIDTH 14 0
BBX 11 27 2 0
BITMAP
1C00
0E00
0600
0300
0000
3F00
7F80
FBC0
E1E0
E0E0
C0E0
C0E0
C0E0
C0E0
C0E0
C0E0
C0E0
C0E0
C0E0
C0E0
C0E0
C0E0
E0E0
E1C0
7FC0
7F80
1F00
ENDCHAR
STARTCHAR C0211
ENCODING 211
SWIDTH 437 0
DWIDTH 14 0
BBX 11 27 2 0
BITMAP
0700
0E00
0C00
1800
0000
3F00
7F80
FBC0
E1E0
E0E0
C0E0
C0E0
C0E0
C0E0
C0E0
C0E0
C0E0
C0E0
C0E0
C0E0
C0E0
C0E0
E0E0
E1C0
7FC0
7F80
1F00
ENDCHAR
STARTCHAR C0212
ENCODING 212
SWIDTH 437 0
DWIDTH 14 0
BBX 11 27 2 0
BITMAP
1E00
1F00
3300
7180
0000
3F00
7F80
FBC0
E1E0
E0E0
C0E0
C0E0
C0E0
C0E0
C0E0
C0E0
C0E0
C0E0
C0E0
C0E0
C0E0
C0E0
E0E0
E1C0
7FC0
7F80
1F00
ENDCHAR
STARTCHAR C0213
ENCODING 213
SWIDTH 437 0
DWIDTH 14 0
BBX 11 22 2 0
BITMAP
3F00
7F80
FBC0
E1E0
E0E0
C0E0
C0E0
C0E0
C0E0
C0E0
C0E0
C0E0
C0E0
C0E0
C0E0
C0E0
C0E0
E0E0
E1C0
7FC0
7F80
1F00
ENDCHAR
STARTCHAR C0214
ENCODING 214
SWIDTH 437 0
DWIDTH 14 0
BBX 11 27 2 0
BITMAP
3B00
3B00
1300
0000
0000
3F00
7F80
FBC0
E1E0
E0E0
C0E0
C0E0
C0E0
C0E0
C0E0
C0E0
C0E0
C0E0
C0E0
C0E0
C0E0
C0E0
E0E0
E1C0
7FC0
7F80
1F00
ENDCHAR
STARTCHAR C0215
ENCODING 215
SWIDTH 437 0
DWIDTH 14 0
BBX 1 1 0 -1
BITMAP
00
ENDCHAR
STARTCHAR C0216
ENCODING 216
SWIDTH 437 0
DWIDTH 14 0
BBX 1 1 0 -1
BITMAP
00
ENDCHAR
STARTCHAR C0217
ENCODING 217
SWIDTH 437 0
DWIDTH 14 0
BBX 11 27 2 0
BITMAP
1C00
0E00
0600
0300
0000
C0E0
C0E0
C0E0
C0E0
C0E0
C0E0
C0E0
C0E0
C0E0
C0E0
C0E0
C0E0
C0E0
C0E0
C0E0
C0E0
C0E0
E0E0
E1C0
7FC0
7F80
1F00
ENDCHAR
STARTCHAR C0218
ENCODING 218
SWIDTH 437 0
DWIDTH 14 0
BBX 11 27 2 0
BITMAP
0700
0E00
0C00
1800
0000
C0E0
C0E0
C0E0
C0E0
C0E0
C0E0
C0E0
C0E0
C0E0
C0E0
C0E0
C0E0
C0E0
C0E0
C0E0
C0E0
C0E0
E0E0
E1C0
7FC0
7F80
1F00
ENDCHAR
STARTCHAR C0219
ENCODING 219
SWIDTH 437 0
DWIDTH 14 0
BBX 11 27 2 0
BITMAP
1E00
1F00
3300
7180
0000
C0E0
C0E0
C0E0
C0E0
C0E0
C0E0
C0E0
C0E0
C0E0
C0E0
C0E0
C0E0
C0E0
C0E0
C0E0
C0E0
C0E0
E0E0
E1C0
7FC0
7F80
1F00
ENDCHAR
STARTCHAR C0220
ENCODING 220
SWIDTH 437 0
DWIDTH 14 0
BBX 11 27 2 0
BITMAP
3B00
3B00
1300
0000
0000
C0E0
C0E0
C0E0
C0E0
C0E0
C0E0
C0E0
C0E0
C0E0
C0E0
C0E0
C0E0
C0E0
C0E0
C0E0
C0E0
C0E0
E0E0
E1C0
7FC0
7F80
1F00
ENDCHAR
STARTCHAR C0221
ENCODING 221
SWIDTH 437 0
DWIDTH 14 0
BBX 1 1 0 -1
BITMAP
00
ENDCHAR
STARTCHAR C0222
ENCODING 222
SWIDTH 437 0
DWIDTH 14 0
BBX 1 1 0 -1
BITMAP
00
ENDCHAR
STARTCHAR C0223
ENCODING 223
SWIDTH 437 0
DWIDTH 14 0
BBX 11 23 2 0
BITMAP
1C00
7F00
FF80
E380
E380
C180
C380
CF80
CF80
CFC0
C3C0
C0E0
C0E0
C0E0
C0E0
C0E0
C0E0
C0E0
C0E0
C1C0
CFC0
CF80
CF00
ENDCHAR
STARTCHAR C0224
ENCODING 224
SWIDTH 500 0
DWIDTH 16 0
BBX 13 23 1 0
BITMAP
1C00
0E00
0700
0300
0180
0000
0F80
1FC0
3FE0
78F0
7070
7070
0070
1FF0
3FF0
7FF0
7070
6070
E070
70F0
7FF8
3FF8
1F98
ENDCHAR
STARTCHAR C0225
ENCODING 225
SWIDTH 500 0
DWIDTH 16 0
BBX 13 23 1 0
BITMAP
0380
0700
0600
0C00
1C00
0000
0F80
1FC0
3FE0
78F0
7070
7070
0070
1FF0
3FF0
7FF0
7070
6070
E070
70F0
7FF8
3FF8
1F98
ENDCHAR
STARTCHAR C0226
ENCODING 226
SWIDTH 500 0
DWIDTH 16 0
BBX 13 23 1 0
BITMAP
0E00
1F00
1B80
3180
30C0
4000
0F80
1FC0
3FE0
78F0
7070
7070
0070
1FF0
3FF0
7FF0
7070
6070
E070
70F0
7FF8
3FF8
1F98
ENDCHAR
STARTCHAR C0227
ENCODING 227
SWIDTH 437 0
DWIDTH 14 0
BBX 1 1 0 -1
BITMAP
00
ENDCHAR
STARTCHAR C0228
ENCODING 228
SWIDTH 500 0
DWIDTH 16 0
BBX 13 22 1 0
BITMAP
1980
1F80
1980
0000
0000
0F80
1FC0
3FE0
78F0
7070
7070
0070
1FF0
3FF0
7FF0
7070
6070
E070
70F0
7FF8
3FF8
1F98
ENDCHAR
STARTCHAR C0229
ENCODING 229
SWIDTH 437 0
DWIDTH 14 0
BBX 1 1 0 -1
BITMAP
00
ENDCHAR
STARTCHAR C0230
ENCODING 230
SWIDTH 625 0
DWIDTH 20 0
BBX 17 17 2 0
BITMAP
3E7C00
7FFE00
FFFF00
E3C700
C18380
018380
018380
3FFF80
7FFF80
FFFF80
E18000
C18000
C3C380
E3C700
FFFF00
7FFE00
3C7C00
ENDCHAR
STARTCHAR C0231
ENCODING 231
SWIDTH 437 0
DWIDTH 14 0
BBX 11 21 2 -4
BITMAP
1E00
3F80
7FC0
F1C0
E0E0
C0E0
C000
C000
C000
C000
C000
C0E0
E0E0
E1E0
FFC0
7F80
3F00
0E00
0E00
3E00
3E00
ENDCHAR
STARTCHAR C0232
ENCODING 232
SWIDTH 437 0
DWIDTH 14 0
BBX 11 23 2 0
BITMAP
3800
1C00
0E00
0600
0300
0000
1F00
7F80
FFC0
E1C0
E0E0
C0E0
C0E0
FFE0
FFE0
FFE0
C000
C000
E080
E1C0
FFC0
7F80
1F00
ENDCHAR
STARTCHAR C0233
ENCODING 233
SWIDTH 437 0
DWIDTH 14 0
BBX 11 23 2 0
BITMAP
0700
0E00
0C00
1800
3800
0000
1F00
7F80
FFC0
E1C0
E0E0
C0E0
C0E0
FFE0
FFE0
FFE0
C000
C000
E080
E1C0
FFC0
7F80
1F00
ENDCHAR
STARTCHAR C0234
ENCODING 234
SWIDTH 437 0
DWIDTH 14 0
BBX 11 23 2 0
BITMAP
0E00
1E00
3B00
3380
6180
0000
1F00
7F80
FFC0
E1C0
E0E0
C0E0
C0E0
FFE0
FFE0
FFE0
C000
C000
E080
E1C0
FFC0
7F80
1F00
ENDCHAR
STARTCHAR C0235
ENCODING 235
SWIDTH 437 0
DWIDTH 14 0
BBX 11 22 2 0
BITMAP
3300
3F00
3300
0000
0000
1F00
7F80
FFC0
E1C0
E0E0
C0E0
C0E0
FFE0
FFE0
FFE0
C000
C000
E080
E1C0
FFC0
7F80
1F00
ENDCHAR
STARTCHAR C0236
ENCODING 236
SWIDTH 250 0
DWIDTH 8 0
BBX 6 23 1 0
BITMAP
E0
60
30
38
18
04
70
70
70
70
70
70
70
70
70
70
70
70
70
70
78
38
18
ENDCHAR
STARTCHAR C0237
ENCODING 237
SWIDTH 250 0
DWIDTH 8 0
BBX 5 23 2 0
BITMAP
38
30
60
E0
C0
00
E0
E0
E0
E0
E0
E0
E0
E0
E0
E0
E0
E0
E0
E0
F0
70
30
ENDCHAR
STARTCHAR C0238
ENCODING 238
SWIDTH 250 0
DWIDTH 8 0
BBX 9 23 -1 0
BITMAP
1C00
3E00
3600
6300
C180
0000
1C00
1C00
1C00
1C00
1C00
1C00
1C00
1C00
1C00
1C00
1C00
1C00
1C00
1C00
1E00
0E00
0600
ENDCHAR
STARTCHAR C0239
ENCODING 239
SWIDTH 250 0
DWIDTH 8 0
BBX 6 23 1 0
BITMAP
4C
EC
EC
00
00
00
70
70
70
70
70
70
70
70
70
70
70
70
70
70
3C
3C
0C
ENDCHAR
STARTCHAR C0240
ENCODING 240
SWIDTH 437 0
DWIDTH 14 0
BBX 1 1 0 -1
BITMAP
00
ENDCHAR
STARTCHAR C0241
ENCODING 241
SWIDTH 437 0
DWIDTH 14 0
BBX 1 1 0 -1
BITMAP
00
ENDCHAR
STARTCHAR C0242
ENCODING 242
SWIDTH 437 0
DWIDTH 14 0
BBX 11 27 2 0
BITMAP
3800
1C00
0E00
0600
0100
0000
0000
0000
0000
0000
1F00
7F80
FFC0
E1C0
E0E0
C0E0
C0E0
C0E0
C0E0
C0E0
C0E0
C0E0
E0E0
E1C0
FFC0
7F80
1F00
ENDCHAR
STARTCHAR C0243
ENCODING 243
SWIDTH 437 0
DWIDTH 14 0
BBX 11 23 2 0
BITMAP
0700
0E00
0C00
1800
3800
0000
1F00
7F80
FFC0
E1C0
E0E0
C0E0
C0E0
C0E0
C0E0
C0E0
C0E0
C0E0
E0E0
E1C0
FFC0
7F80
1F00
ENDCHAR
STARTCHAR C0244
ENCODING 244
SWIDTH 437 0
DWIDTH 14 0
BBX 11 23 2 0
BITMAP
0E00
1E00
3B00
3380
6180
0000
1F00
7F80
FFC0
E1C0
E0E0
C0E0
C0E0
C0E0
C0E0
C0E0
C0E0
C0E0
E0E0
E1C0
FFC0
7F80
1F00
ENDCHAR
STARTCHAR C0245
ENCODING 245
SWIDTH 437 0
DWIDTH 14 0
BBX 11 17 2 0
BITMAP
1F00
7F80
FFC0
E1C0
E0E0
C0E0
C0E0
C0E0
C0E0
C0E0
C0E0
C0E0
E0E0
E1C0
FFC0
7F80
1F00
ENDCHAR
STARTCHAR C0246
ENCODING 246
SWIDTH 437 0
DWIDTH 14 0
BBX 11 22 2 0
BITMAP
3300
3F00
3300
0000
0000
1F00
7F80
FFC0
E1C0
E0E0
C0E0
C0E0
C0E0
C0E0
C0E0
C0E0
C0E0
E0E0
E1C0
FFC0
7F80
1F00
ENDCHAR
STARTCHAR C0247
ENCODING 247
SWIDTH 437 0
DWIDTH 14 0
BBX 8 13 3 2
BITMAP
18
18
18
00
00
FF
FF
FF
00
00
18
18
18
ENDCHAR
STARTCHAR C0248
ENCODING 248
SWIDTH 437 0
DWIDTH 14 0
BBX 11 23 2 0
BITMAP
0EE0
3FC0
7FC0
F1C0
E3E0
C3E0
C3E0
C7E0
C7E0
C6E0
CEE0
CEE0
DCE0
DCE0
DCE0
F8E0
F8E0
F0E0
F0E0
F1C0
FFC0
FF80
FF00
ENDCHAR
STARTCHAR C0249
ENCODING 249
SWIDTH 437 0
DWIDTH 14 0
BBX 11 23 2 0
BITMAP
3800
1C00
0E00
0600
0300
0000
C0E0
C0E0
C0E0
C0E0
C0E0
C0E0
C0E0
C0E0
C0E0
C0E0
C0E0
C0E0
E0E0
E1E0
FFE0
7FE0
1FE0
ENDCHAR
STARTCHAR C0250
ENCODING 250
SWIDTH 437 0
DWIDTH 14 0
BBX 11 23 2 0
BITMAP
0700
0E00
0C00
1800
3800
0000
C0E0
C0E0
C0E0
C0E0
C0E0
C0E0
C0E0
C0E0
C0E0
C0E0
C0E0
C0E0
E0E0
E1E0
FFE0
7FE0
1FE0
ENDCHAR
STARTCHAR C0251
ENCODING 251
SWIDTH 437 0
DWIDTH 14 0
BBX 11 23 2 0
BITMAP
0E00
1E00
3B00
3380
6180
0000
C0E0
C0E0
C0E0
C0E0
C0E0
C0E0
C0E0
C0E0
C0E0
C0E0
C0E0
C0E0
E0E0
E1E0
FFE0
7FE0
1FE0
ENDCHAR
STARTCHAR C0252
ENCODING 252
SWIDTH 437 0
DWIDTH 14 0
BBX 11 22 2 0
BITMAP
3300
3F00
3300
0000
0000
C0E0
C0E0
C0E0
C0E0
C0E0
C0E0
C0E0
C0E0
C0E0
C0E0
C0E0
C0E0
E0E0
E1E0
FFE0
7FE0
1FE0
ENDCHAR
STARTCHAR C0253
ENCODING 253
SWIDTH 437 0
DWIDTH 14 0
BBX 1 1 0 -1
BITMAP
00
ENDCHAR
STARTCHAR C0254
ENCODING 254
SWIDTH 437 0
DWIDTH 14 0
BBX 1 1 0 -1
BITMAP
00
ENDCHAR
STARTCHAR C0255
ENCODING 255
SWIDTH 437 0
DWIDTH 14 0
BBX 1 1 0 -1
BITMAP
00
ENDCHAR
ENDFONT

