STARTFONT 2.1
COMMENT 
COMMENT This file has been produced by ttf2bdf written by Subhabrata Biswas
COMMENT 
COMMENT For comments, questions, bug reports, send a mail to
COMMENT                                           subhabrata.biswas@usa.net
COMMENT 
FONT -*-Logisoso-Medium-R-Normal--29-220-96-96-c-12--fontspecific
SIZE 22 96 96
FONTBOUNDINGBOX 78 30 -2 -5
STARTPROPERTIES 15
FOUNDRY "Misc"
FAMILY_NAME "Logisoso"
WEIGHT_NAME "Medium"
SLANT "R"
SETWIDTH_NAME "Normal"
PIXEL_SIZE 17
POINT_SIZE 220
RESOLUTION_X 96
RESOLUTION_Y 96
SPACING "C"
CHARSET_ENCODING "fontspecific"
FONT_ASCENT 25
FONT_DESCENT 5
DEFAULT_CHAR 29
COPYRIGHT "You may wish to put your copyright here"
ENDPROPERTIES
CHARS 228
STARTCHAR C0028
ENCODING 28
SWIDTH 374 0
DWIDTH 11 0
BBX 8 19 1 0
BITMAP
FF
81
81
81
81
81
81
81
81
81
81
81
81
81
81
81
81
81
FF
ENDCHAR
STARTCHAR C0029
ENCODING 29
SWIDTH 374 0
DWIDTH 11 0
BBX 8 19 1 0
BITMAP
FF
81
81
81
81
81
81
81
81
81
81
81
81
81
81
81
81
81
FF
ENDCHAR
STARTCHAR C0030
ENCODING 30
SWIDTH 443 0
DWIDTH 13 0
BBX 1 1 0 -1
BITMAP
00
ENDCHAR
STARTCHAR C0031
ENCODING 31
SWIDTH 443 0
DWIDTH 13 0
BBX 1 1 0 -1
BITMAP
00
ENDCHAR
STARTCHAR C0032- 
ENCODING 32
SWIDTH 443 0
DWIDTH 13 0
BBX 1 1 0 -1
BITMAP
00
ENDCHAR
STARTCHAR C0033-!
ENCODING 33
SWIDTH 272 0
DWIDTH 8 0
BBX 2 20 3 0
BITMAP
C0
C0
C0
C0
C0
C0
C0
C0
C0
C0
C0
C0
C0
C0
C0
C0
00
00
C0
C0
ENDCHAR
STARTCHAR C0034-"
ENCODING 34
SWIDTH 443 0
DWIDTH 13 0
BBX 5 3 4 17
BITMAP
D8
D8
88
ENDCHAR
STARTCHAR C0035-#
ENCODING 35
SWIDTH 443 0
DWIDTH 13 0
BBX 11 20 1 0
BITMAP
0CE0
1CC0
1CC0
1DC0
1DC0
1DC0
FFE0
FFE0
FFE0
3B80
3B80
FFE0
FFE0
FFE0
7300
7300
7700
7700
7700
6700
ENDCHAR
STARTCHAR C0036-$
ENCODING 36
SWIDTH 443 0
DWIDTH 13 0
BBX 11 26 1 -3
BITMAP
0E00
0E00
0E00
1F00
3F80
71C0
60C0
E0E0
E000
7000
7800
3C00
1E00
0F00
0780
01C0
00C0
00E0
E0E0
70C0
7FC0
3F80
1F00
0E00
0E00
0E00
ENDCHAR
STARTCHAR C0037-%
ENCODING 37
SWIDTH 443 0
DWIDTH 13 0
BBX 11 20 1 0
BITMAP
78E0
F9C0
CDC0
7980
3380
0300
0300
0700
0600
0E00
0E00
0C00
1C00
1800
1800
3980
33C0
7260
73E0
E3C0
ENDCHAR
STARTCHAR C0038-&
ENCODING 38
SWIDTH 443 0
DWIDTH 13 0
BBX 11 21 1 0
BITMAP
0400
1F00
3F80
71C0
71C0
7000
7000
3800
3800
7800
7C00
EC00
EEE0
EEE0
E7E0
E7E0
E3E0
73C0
7FC0
3FC0
1FE0
ENDCHAR
STARTCHAR C0039-'
ENCODING 39
SWIDTH 272 0
DWIDTH 8 0
BBX 3 3 2 17
BITMAP
60
60
40
ENDCHAR
STARTCHAR C0040-(
ENCODING 40
SWIDTH 443 0
DWIDTH 13 0
BBX 5 20 4 0
BITMAP
30
38
70
70
60
E0
E0
C0
C0
C0
C0
C0
C0
E0
E0
60
70
70
38
30
ENDCHAR
STARTCHAR C0041-)
ENCODING 41
SWIDTH 443 0
DWIDTH 13 0
BBX 5 20 4 0
BITMAP
60
E0
70
70
30
38
38
18
18
18
18
18
18
38
38
30
70
70
E0
60
ENDCHAR
STARTCHAR C0042-*
ENCODING 42
SWIDTH 443 0
DWIDTH 13 0
BBX 9 9 2 14
BITMAP
0800
4900
EB80
7F00
3E00
7F80
EB00
0800
0800
ENDCHAR
STARTCHAR C0043-+
ENCODING 43
SWIDTH 443 0
DWIDTH 13 0
BBX 7 8 3 4
BITMAP
38
38
38
FE
FE
FE
38
38
ENDCHAR
STARTCHAR C0044-,
ENCODING 44
SWIDTH 272 0
DWIDTH 8 0
BBX 3 4 2 -1
BITMAP
40
60
E0
20
ENDCHAR
STARTCHAR C0045--
ENCODING 45
SWIDTH 443 0
DWIDTH 13 0
BBX 7 3 3 6
BITMAP
FE
FE
FE
ENDCHAR
STARTCHAR C0046-.
ENCODING 46
SWIDTH 272 0
DWIDTH 8 0
BBX 3 3 2 0
BITMAP
40
60
E0
ENDCHAR
STARTCHAR C0047-/
ENCODING 47
SWIDTH 443 0
DWIDTH 13 0
BBX 9 20 2 0
BITMAP
0380
0380
0300
0700
0700
0600
0E00
0E00
0C00
1C00
1C00
1800
3800
3800
3000
7000
7000
E000
E000
E000
ENDCHAR
STARTCHAR C0048-0
ENCODING 48
SWIDTH 443 0
DWIDTH 13 0
BBX 11 20 1 0
BITMAP
1F00
3F80
71C0
60C0
E0E0
E0E0
E0E0
E0E0
E0E0
E0E0
E0E0
E0E0
E0E0
E0E0
E0E0
E0E0
70C0
7FC0
3F80
1F00
ENDCHAR
STARTCHAR C0049-1
ENCODING 49
SWIDTH 443 0
DWIDTH 13 0
BBX 5 20 4 0
BITMAP
18
38
78
F8
F8
98
18
18
18
18
18
18
18
18
18
18
18
18
18
18
ENDCHAR
STARTCHAR C0050-2
ENCODING 50
SWIDTH 443 0
DWIDTH 13 0
BBX 11 20 1 0
BITMAP
1F00
3F80
71C0
60C0
60E0
E0E0
61C0
01C0
0380
0380
0700
0E00
0E00
1C00
3800
3800
7000
FFE0
FFE0
FFE0
ENDCHAR
STARTCHAR C0051-3
ENCODING 51
SWIDTH 443 0
DWIDTH 13 0
BBX 11 20 1 0
BITMAP
FFE0
FFE0
01C0
01C0
0380
0700
0700
0E00
0F80
0FC0
01C0
00C0
00E0
00E0
00E0
00E0
61C0
7FC0
3F80
1F00
ENDCHAR
STARTCHAR C0052-4
ENCODING 52
SWIDTH 443 0
DWIDTH 13 0
BBX 11 20 1 0
BITMAP
0E00
0C00
1C00
1C00
1800
3800
3800
3800
3000
7000
7300
7300
6300
FFE0
FFE0
FFE0
0300
0300
0300
0300
ENDCHAR
STARTCHAR C0053-5
ENCODING 53
SWIDTH 443 0
DWIDTH 13 0
BBX 11 20 1 0
BITMAP
FFE0
FFE0
E000
E000
E000
E000
EE00
FF80
FFC0
F1C0
E0E0
00E0
00E0
00E0
00E0
E0E0
70C0
7FC0
3F80
1F00
ENDCHAR
STARTCHAR C0054-6
ENCODING 54
SWIDTH 443 0
DWIDTH 13 0
BBX 11 20 1 0
BITMAP
1F00
3F80
71C0
60C0
E0E0
E000
E000
EE00
FF80
FFC0
F1C0
E0C0
E0E0
E0E0
E0E0
E0E0
71C0
7FC0
3F80
1F00
ENDCHAR
STARTCHAR C0055-7
ENCODING 55
SWIDTH 443 0
DWIDTH 13 0
BBX 11 20 1 0
BITMAP
FFE0
FFE0
E0E0
E1C0
E1C0
01C0
0180
0380
0380
0380
0700
0700
0700
0700
0E00
0E00
0E00
0E00
1C00
1C00
ENDCHAR
STARTCHAR C0056-8
ENCODING 56
SWIDTH 443 0
DWIDTH 13 0
BBX 11 20 1 0
BITMAP
1F00
3F80
71C0
60C0
E0E0
E0E0
60E0
60C0
7BC0
3F80
3FC0
71C0
60C0
E0E0
E0E0
60E0
70C0
7FC0
3F80
1F00
ENDCHAR
STARTCHAR C0057-9
ENCODING 57
SWIDTH 443 0
DWIDTH 13 0
BBX 11 20 1 0
BITMAP
1F00
3F80
71C0
60C0
E0E0
E0E0
E0E0
E0E0
60E0
71E0
3FE0
1FE0
00E0
00E0
00E0
E0E0
70C0
7FC0
3F80
1F00
ENDCHAR
STARTCHAR C0058-:
ENCODING 58
SWIDTH 272 0
DWIDTH 8 0
BBX 3 11 2 3
BITMAP
60
E0
00
00
00
00
00
00
00
60
E0
ENDCHAR
STARTCHAR C0059-;
ENCODING 59
SWIDTH 272 0
DWIDTH 8 0
BBX 3 13 2 1
BITMAP
60
E0
00
00
00
00
00
00
00
60
E0
20
40
ENDCHAR
STARTCHAR C0060-<
ENCODING 60
SWIDTH 443 0
DWIDTH 13 0
BBX 7 13 3 3
BITMAP
02
06
0E
3C
70
E0
C0
E0
78
1C
0E
06
02
ENDCHAR
STARTCHAR C0061-=
ENCODING 61
SWIDTH 443 0
DWIDTH 13 0
BBX 9 7 2 3
BITMAP
FF80
FF80
0000
0000
FF80
FF80
FF80
ENDCHAR
STARTCHAR C0062->
ENCODING 62
SWIDTH 443 0
DWIDTH 13 0
BBX 7 13 3 3
BITMAP
80
C0
E0
78
1C
0E
06
0E
3C
70
E0
C0
80
ENDCHAR
STARTCHAR C0063-?
ENCODING 63
SWIDTH 443 0
DWIDTH 13 0
BBX 11 21 1 0
BITMAP
0400
3F80
7FC0
71C0
E0E0
E0E0
00E0
01C0
03C0
0780
0700
0E00
0E00
0E00
0E00
0E00
0E00
0000
0400
0E00
0C00
ENDCHAR
STARTCHAR C0064-@
ENCODING 64
SWIDTH 715 0
DWIDTH 21 0
BBX 18 24 1 -5
BITMAP
03F800
0FFE00
1F1F00
3C0780
780380
71F9C0
63F9C0
E3B8C0
E318C0
E318C0
E318C0
E318C0
E318C0
E318C0
E318C0
E318C0
E3FFC0
63FFC0
71E700
780000
3C0000
1F0000
0FFF00
03FF00
ENDCHAR
STARTCHAR C0065-A
ENCODING 65
SWIDTH 443 0
DWIDTH 13 0
BBX 11 20 1 0
BITMAP
0E00
0E00
0E00
0E00
1F00
1F00
1F00
1B00
1B00
3B80
3B80
3B80
3180
3180
3FC0
7FC0
71C0
60C0
60C0
E0E0
ENDCHAR
STARTCHAR C0066-B
ENCODING 66
SWIDTH 443 0
DWIDTH 13 0
BBX 11 20 1 0
BITMAP
FF00
FF80
E3C0
E1C0
E0C0
E0C0
E1C0
E3C0
FF80
FF80
E7C0
E1C0
E0C0
E0E0
E0E0
E0C0
E1C0
FF80
FF80
FE00
ENDCHAR
STARTCHAR C0067-C
ENCODING 67
SWIDTH 443 0
DWIDTH 13 0
BBX 11 20 1 0
BITMAP
1F00
3F80
71C0
60C0
E0E0
E000
E000
E000
E000
E000
E000
E000
E000
E000
E000
E0E0
71C0
7FC0
3F80
1F00
ENDCHAR
STARTCHAR C0068-D
ENCODING 68
SWIDTH 443 0
DWIDTH 13 0
BBX 11 20 1 0
BITMAP
FF00
FF80
E1C0
E0C0
E0E0
E0E0
E0E0
E0E0
E0E0
E0E0
E0E0
E0E0
E0E0
E0E0
E0E0
E0E0
E0C0
FFC0
FF80
FF00
ENDCHAR
STARTCHAR C0069-E
ENCODING 69
SWIDTH 443 0
DWIDTH 13 0
BBX 11 20 1 0
BITMAP
FFE0
FFE0
E000
E000
E000
E000
E000
E000
E000
FF00
FF00
E000
E000
E000
E000
E000
E000
FFE0
FFE0
FFE0
ENDCHAR
STARTCHAR C0070-F
ENCODING 70
SWIDTH 443 0
DWIDTH 13 0
BBX 11 20 1 0
BITMAP
FFE0
FFE0
E000
E000
E000
E000
E000
E000
E000
FF00
FF00
E000
E000
E000
E000
E000
E000
E000
E000
E000
ENDCHAR
STARTCHAR C0071-G
ENCODING 71
SWIDTH 443 0
DWIDTH 13 0
BBX 11 20 1 0
BITMAP
1F00
3F80
71C0
60C0
E0E0
E000
E000
E000
E000
E3E0
E3E0
E3E0
E0E0
E0E0
E0E0
E0E0
71E0
7FE0
3FE0
1FE0
ENDCHAR
STARTCHAR C0072-H
ENCODING 72
SWIDTH 443 0
DWIDTH 13 0
BBX 11 20 1 0
BITMAP
E0E0
E0E0
E0E0
E0E0
E0E0
E0E0
E0E0
E0E0
E0E0
FFE0
FFE0
E0E0
E0E0
E0E0
E0E0
E0E0
E0E0
E0E0
E0E0
E0E0
ENDCHAR
STARTCHAR C0073-I
ENCODING 73
SWIDTH 272 0
DWIDTH 8 0
BBX 2 20 3 0
BITMAP
C0
C0
C0
C0
C0
C0
C0
C0
C0
C0
C0
C0
C0
C0
C0
C0
C0
C0
C0
C0
ENDCHAR
STARTCHAR C0074-J
ENCODING 74
SWIDTH 443 0
DWIDTH 13 0
BBX 11 20 1 0
BITMAP
00E0
00E0
00E0
00E0
00E0
00E0
00E0
00E0
00E0
00E0
00E0
00E0
00E0
00E0
00E0
E0E0
70C0
7FC0
3F80
1F00
ENDCHAR
STARTCHAR C0075-K
ENCODING 75
SWIDTH 443 0
DWIDTH 13 0
BBX 10 20 2 0
BITMAP
C3C0
C380
C700
CE00
CE00
DC00
DC00
F800
F000
F000
F000
F000
F800
DC00
DC00
CE00
C700
C700
C380
C3C0
ENDCHAR
STARTCHAR C0076-L
ENCODING 76
SWIDTH 443 0
DWIDTH 13 0
BBX 11 20 1 0
BITMAP
E000
E000
E000
E000
E000
E000
E000
E000
E000
E000
E000
E000
E000
E000
E000
E000
E000
FFE0
FFE0
FFE0
ENDCHAR
STARTCHAR C0077-M
ENCODING 77
SWIDTH 443 0
DWIDTH 13 0
BBX 11 20 1 0
BITMAP
E0E0
F1E0
F1E0
F1E0
FBE0
FBE0
FBE0
FFE0
FFE0
EEE0
EEE0
EEE0
E4E0
E4E0
E4E0
E0E0
E0E0
E0E0
E0E0
E0E0
ENDCHAR
STARTCHAR C0078-N
ENCODING 78
SWIDTH 443 0
DWIDTH 13 0
BBX 11 20 1 0
BITMAP
E0E0
F0E0
F0E0
F0E0
F8E0
F8E0
FCE0
FCE0
ECE0
EEE0
EEE0
E7E0
E7E0
E3E0
E3E0
E3E0
E1E0
E1E0
E1E0
E0E0
ENDCHAR
STARTCHAR C0079-O
ENCODING 79
SWIDTH 443 0
DWIDTH 13 0
BBX 11 20 1 0
BITMAP
1F00
3F80
71C0
60C0
E0E0
E0E0
E0E0
E0E0
E0E0
E0E0
E0E0
E0E0
E0E0
E0E0
E0E0
E0E0
70C0
7FC0
3F80
1F00
ENDCHAR
STARTCHAR C0080-P
ENCODING 80
SWIDTH 443 0
DWIDTH 13 0
BBX 11 20 1 0
BITMAP
FF00
FF80
E3C0
E1C0
E0C0
E0E0
E0E0
E0C0
E1C0
FF80
FF00
FE00
E000
E000
E000
E000
E000
E000
E000
E000
ENDCHAR
STARTCHAR C0081-Q
ENCODING 81
SWIDTH 443 0
DWIDTH 13 0
BBX 11 20 1 0
BITMAP
1F00
3F80
71C0
60C0
E0E0
E0E0
E0E0
E0E0
E0E0
E0E0
E0E0
E0E0
E0E0
E0E0
E0E0
E0E0
70C0
7FC0
3FC0
1FE0
ENDCHAR
STARTCHAR C0082-R
ENCODING 82
SWIDTH 443 0
DWIDTH 13 0
BBX 11 20 1 0
BITMAP
FE00
FF80
E3C0
E1C0
E0C0
E0E0
E0E0
E0C0
E1C0
FF80
FF00
FF00
E700
E300
E380
E380
E180
E1C0
E1C0
E0E0
ENDCHAR
STARTCHAR C0083-S
ENCODING 83
SWIDTH 443 0
DWIDTH 13 0
BBX 11 20 1 0
BITMAP
1F00
3F80
71C0
60C0
E0E0
E000
7000
7800
3C00
1E00
0F00
0780
01C0
00C0
00E0
E0E0
70C0
7FC0
3F80
1F00
ENDCHAR
STARTCHAR C0084-T
ENCODING 84
SWIDTH 443 0
DWIDTH 13 0
BBX 11 20 1 0
BITMAP
FFE0
FFE0
0E00
0E00
0E00
0E00
0E00
0E00
0E00
0E00
0E00
0E00
0E00
0E00
0E00
0E00
0E00
0E00
0E00
0E00
ENDCHAR
STARTCHAR C0085-U
ENCODING 85
SWIDTH 443 0
DWIDTH 13 0
BBX 11 20 1 0
BITMAP
E0E0
E0E0
E0E0
E0E0
E0E0
E0E0
E0E0
E0E0
E0E0
E0E0
E0E0
E0E0
E0E0
E0E0
E0E0
E0E0
70C0
7FC0
3F80
1F00
ENDCHAR
STARTCHAR C0086-V
ENCODING 86
SWIDTH 443 0
DWIDTH 13 0
BBX 11 20 1 0
BITMAP
E0E0
60C0
70C0
71C0
71C0
31C0
3180
3980
3980
3B80
1B80
1B80
1F00
1F00
1F00
0F00
0F00
0E00
0E00
0E00
ENDCHAR
STARTCHAR C0087-W
ENCODING 87
SWIDTH 443 0
DWIDTH 13 0
BBX 11 20 1 0
BITMAP
E0E0
60C0
60C0
60C0
60C0
60C0
60C0
64C0
74C0
75C0
7FC0
7FC0
7FC0
7FC0
7FC0
7FC0
3BC0
3B80
3B80
3180
ENDCHAR
STARTCHAR C0088-X
ENCODING 88
SWIDTH 443 0
DWIDTH 13 0
BBX 11 20 1 0
BITMAP
60E0
71C0
71C0
3180
3980
3B80
3B80
1F00
1F00
1F00
1F00
1F00
1B00
3B80
3B80
3180
71C0
71C0
71C0
60E0
ENDCHAR
STARTCHAR C0089-Y
ENCODING 89
SWIDTH 443 0
DWIDTH 13 0
BBX 11 20 1 0
BITMAP
60E0
71C0
71C0
7180
3380
3B80
3F00
1F00
1E00
1E00
1E00
0C00
1C00
1C00
3800
3800
3000
7000
7000
6000
ENDCHAR
STARTCHAR C0090-Z
ENCODING 90
SWIDTH 443 0
DWIDTH 13 0
BBX 11 20 1 0
BITMAP
FFE0
FFE0
00C0
01C0
01C0
0380
0380
0700
0700
0E00
0E00
1C00
1C00
3800
3800
7000
7000
FFE0
FFE0
FFE0
ENDCHAR
STARTCHAR C0091-[
ENCODING 91
SWIDTH 443 0
DWIDTH 13 0
BBX 5 20 4 0
BITMAP
F8
F8
C0
C0
C0
C0
C0
C0
C0
C0
C0
C0
C0
C0
C0
C0
C0
F8
F8
F8
ENDCHAR
STARTCHAR C0092-\
ENCODING 92
SWIDTH 443 0
DWIDTH 13 0
BBX 10 20 2 0
BITMAP
E000
E000
6000
7000
7000
3800
3800
3800
1C00
1C00
0C00
0E00
0E00
0600
0700
0700
0300
0380
0380
01C0
ENDCHAR
STARTCHAR C0093-]
ENCODING 93
SWIDTH 443 0
DWIDTH 13 0
BBX 5 20 4 0
BITMAP
F8
F8
18
18
18
18
18
18
18
18
18
18
18
18
18
18
18
F8
F8
F8
ENDCHAR
STARTCHAR C0094-^
ENCODING 94
SWIDTH 443 0
DWIDTH 13 0
BBX 9 4 2 21
BITMAP
1C00
3E00
7700
E300
ENDCHAR
STARTCHAR C0095-_
ENCODING 95
SWIDTH 443 0
DWIDTH 13 0
BBX 13 2 0 -2
BITMAP
FFF8
FFF8
ENDCHAR
STARTCHAR C0096-`
ENCODING 96
SWIDTH 443 0
DWIDTH 13 0
BBX 5 4 4 19
BITMAP
E0
70
30
18
ENDCHAR
STARTCHAR C0097-a
ENCODING 97
SWIDTH 477 0
DWIDTH 14 0
BBX 12 15 1 0
BITMAP
1F80
3FC0
71C0
70E0
70E0
00E0
1FE0
3FE0
7FE0
E0E0
E0E0
E0E0
7FF0
3FF0
1F30
ENDCHAR
STARTCHAR C0098-b
ENCODING 98
SWIDTH 443 0
DWIDTH 13 0
BBX 11 21 1 0
BITMAP
E000
E000
E000
E000
E000
E000
FF00
FFC0
F1C0
E0E0
E0E0
E0E0
E0E0
E0E0
E0E0
E0E0
E0E0
F0C0
FFC0
FF80
FF00
ENDCHAR
STARTCHAR C0099-c
ENCODING 99
SWIDTH 443 0
DWIDTH 13 0
BBX 11 15 1 0
BITMAP
1F00
3FC0
71C0
60E0
E0E0
E000
E000
E000
E000
E000
E0E0
71C0
7FC0
3F80
1F00
ENDCHAR
STARTCHAR C0100-d
ENCODING 100
SWIDTH 443 0
DWIDTH 13 0
BBX 11 21 1 0
BITMAP
00E0
00E0
00E0
00E0
00E0
00E0
1FE0
3FE0
71E0
60E0
E0E0
E0E0
E0E0
E0E0
E0E0
E0E0
E0E0
71E0
7FE0
3FE0
1FE0
ENDCHAR
STARTCHAR C0101-e
ENCODING 101
SWIDTH 443 0
DWIDTH 13 0
BBX 11 15 1 0
BITMAP
1F00
3FC0
71C0
60E0
E0E0
E0E0
FFE0
FFE0
FFE0
E000
E000
70C0
7FC0
3F80
1F00
ENDCHAR
STARTCHAR C0102-f
ENCODING 102
SWIDTH 443 0
DWIDTH 13 0
BBX 11 21 1 0
BITMAP
0300
0F80
1FC0
1CE0
1C00
1C00
1C00
1C00
FF80
FF80
FF80
1C00
1C00
1C00
1C00
1C00
1C00
1C00
1C00
1C00
1C00
ENDCHAR
STARTCHAR C0103-g
ENCODING 103
SWIDTH 443 0
DWIDTH 13 0
BBX 11 20 1 -5
BITMAP
1FE0
3FE0
71C0
60E0
E0E0
E0E0
71C0
7FC0
3F80
3E00
3000
3000
3F00
3F80
7FC0
E0E0
E0E0
71C0
7FC0
3F80
ENDCHAR
STARTCHAR C0104-h
ENCODING 104
SWIDTH 443 0
DWIDTH 13 0
BBX 11 21 1 0
BITMAP
E000
E000
E000
E000
E000
E000
FF00
FFC0
F1C0
E0E0
E0E0
E0E0
E0E0
E0E0
E0E0
E0E0
E0E0
E0E0
E0E0
E0E0
E0E0
ENDCHAR
STARTCHAR C0105-i
ENCODING 105
SWIDTH 272 0
DWIDTH 8 0
BBX 4 21 2 0
BITMAP
40
C0
C0
00
00
00
C0
C0
C0
C0
C0
C0
C0
C0
C0
C0
C0
C0
F0
70
30
ENDCHAR
STARTCHAR C0106-j
ENCODING 106
SWIDTH 443 0
DWIDTH 13 0
BBX 7 26 3 -5
BITMAP
04
06
06
00
00
00
06
06
06
06
06
06
06
06
06
06
06
06
06
06
06
06
C6
EE
FE
7C
ENDCHAR
STARTCHAR C0107-k
ENCODING 107
SWIDTH 443 0
DWIDTH 13 0
BBX 11 21 1 0
BITMAP
E000
E000
E000
E000
E000
E000
E1E0
E1C0
E380
E700
E700
EE00
EE00
FC00
FE00
FE00
F700
F380
E380
E1C0
E1E0
ENDCHAR
STARTCHAR C0108-l
ENCODING 108
SWIDTH 272 0
DWIDTH 8 0
BBX 6 21 1 0
BITMAP
E0
E0
E0
E0
E0
E0
E0
E0
E0
E0
E0
E0
E0
E0
E0
E0
E0
E0
7C
7C
3C
ENDCHAR
STARTCHAR C0109-m
ENCODING 109
SWIDTH 715 0
DWIDTH 21 0
BBX 18 15 1 0
BITMAP
FF3F00
FFFF80
F1F1C0
E0E1C0
E0E0C0
E0E0C0
E0E0C0
E0E0C0
E0E0C0
E0E0C0
E0E0C0
E0E0C0
E0E0C0
E0E0C0
E0E0C0
ENDCHAR
STARTCHAR C0110-n
ENCODING 110
SWIDTH 443 0
DWIDTH 13 0
BBX 11 15 1 0
BITMAP
FF00
FFC0
F1C0
E0E0
E0E0
E0E0
E0E0
E0E0
E0E0
E0E0
E0E0
E0E0
E0E0
E0E0
E0E0
ENDCHAR
STARTCHAR C0111-o
ENCODING 111
SWIDTH 443 0
DWIDTH 13 0
BBX 11 15 1 0
BITMAP
1F00
3FC0
71C0
60E0
E0E0
E0E0
E0E0
E0E0
E0E0
E0E0
E0E0
71C0
7FC0
3F80
1F00
ENDCHAR
STARTCHAR C0112-p
ENCODING 112
SWIDTH 443 0
DWIDTH 13 0
BBX 11 20 1 -5
BITMAP
FF00
FFC0
F1C0
E0E0
E0E0
E0E0
E0E0
E0E0
E0E0
E0E0
E0E0
F0C0
FFC0
FF80
FF00
E000
E000
E000
E000
E000
ENDCHAR
STARTCHAR C0113-q
ENCODING 113
SWIDTH 443 0
DWIDTH 13 0
BBX 11 20 1 -5
BITMAP
1FE0
3FE0
71E0
60E0
E0E0
E0E0
E0E0
E0E0
E0E0
E0E0
E0E0
70E0
7FE0
3FE0
1FE0
00E0
00E0
00E0
00E0
00E0
ENDCHAR
STARTCHAR C0114-r
ENCODING 114
SWIDTH 340 0
DWIDTH 10 0
BBX 8 15 1 0
BITMAP
FF
FF
F7
E0
E0
E0
E0
E0
E0
E0
E0
E0
E0
E0
E0
ENDCHAR
STARTCHAR C0115-s
ENCODING 115
SWIDTH 409 0
DWIDTH 12 0
BBX 9 15 1 0
BITMAP
3F00
7F80
7380
E180
E180
7000
7E00
3F00
0F80
0180
E180
E180
7F80
3F00
1E00
ENDCHAR
STARTCHAR C0116-t
ENCODING 116
SWIDTH 272 0
DWIDTH 8 0
BBX 6 21 1 0
BITMAP
70
70
70
70
70
70
FC
FC
70
70
70
70
70
70
70
70
70
70
7C
3C
1C
ENDCHAR
STARTCHAR C0117-u
ENCODING 117
SWIDTH 443 0
DWIDTH 13 0
BBX 11 15 1 0
BITMAP
E0E0
E0E0
E0E0
E0E0
E0E0
E0E0
E0E0
E0E0
E0E0
E0E0
E0E0
70E0
7FE0
3FE0
1FE0
ENDCHAR
STARTCHAR C0118-v
ENCODING 118
SWIDTH 443 0
DWIDTH 13 0
BBX 11 15 1 0
BITMAP
E0E0
60C0
70C0
71C0
71C0
3180
3180
3980
3B80
3B80
1B00
1B00
1F00
1F00
1F00
ENDCHAR
STARTCHAR C0119-w
ENCODING 119
SWIDTH 715 0
DWIDTH 21 0
BBX 18 15 1 0
BITMAP
E0E0C0
60E1C0
71E1C0
71E1C0
71F180
31F180
31F380
33B380
3BB380
3BBB00
1B3B00
1B3F00
1F1F00
1F1F00
1F1E00
ENDCHAR
STARTCHAR C0120-x
ENCODING 120
SWIDTH 443 0
DWIDTH 13 0
BBX 11 15 1 0
BITMAP
E0E0
71C0
3180
3B80
1B00
1F00
0E00
0E00
0E00
1F00
1B00
3B80
3180
71C0
E0E0
ENDCHAR
STARTCHAR C0121-y
ENCODING 121
SWIDTH 443 0
DWIDTH 13 0
BBX 11 20 1 -5
BITMAP
70E0
30C0
39C0
39C0
39C0
1980
1980
1F80
1F80
1F80
0F00
0F00
0F00
0F00
0F00
0600
0600
2E00
7E00
FC00
ENDCHAR
STARTCHAR C0122-z
ENCODING 122
SWIDTH 443 0
DWIDTH 13 0
BBX 11 15 1 0
BITMAP
FFE0
FFE0
01C0
01C0
0380
0700
0F00
0E00
1C00
3C00
3800
7000
FFE0
FFE0
FFE0
ENDCHAR
STARTCHAR C0123-{
ENCODING 123
SWIDTH 443 0
DWIDTH 13 0
BBX 7 23 3 -2
BITMAP
06
0E
1C
18
38
38
38
38
38
38
70
E0
E0
30
38
38
38
38
38
38
1C
1E
0E
ENDCHAR
STARTCHAR C0124-|
ENCODING 124
SWIDTH 443 0
DWIDTH 13 0
BBX 3 26 5 -3
BITMAP
E0
E0
E0
E0
E0
E0
E0
E0
E0
E0
E0
E0
E0
E0
E0
E0
E0
E0
E0
E0
E0
E0
E0
E0
E0
E0
ENDCHAR
STARTCHAR C0125-}
ENCODING 125
SWIDTH 443 0
DWIDTH 13 0
BBX 7 23 3 -2
BITMAP
C0
E0
70
38
38
38
38
38
38
18
1C
0E
0E
1C
38
38
38
38
38
38
30
F0
E0
ENDCHAR
STARTCHAR C0126-~
ENCODING 126
SWIDTH 443 0
DWIDTH 13 0
BBX 11 4 1 6
BITMAP
4000
FFC0
7FE0
3CE0
ENDCHAR
STARTCHAR C0127
ENCODING 127
SWIDTH 443 0
DWIDTH 13 0
BBX 1 1 0 -1
BITMAP
00
ENDCHAR
STARTCHAR C0128
ENCODING 128
SWIDTH 545 0
DWIDTH 16 0
BBX 13 20 1 0
BITMAP
07E0
0FF0
0E78
1C38
1C18
1C00
1C00
7FF0
7FE0
9C00
7FC0
7FC0
FFC0
1C00
1C00
1C18
1C38
0FF0
07F0
03C0
ENDCHAR
STARTCHAR C0129
ENCODING 129
SWIDTH 443 0
DWIDTH 13 0
BBX 1 1 0 -1
BITMAP
00
ENDCHAR
STARTCHAR C0130
ENCODING 130
SWIDTH 374 0
DWIDTH 11 0
BBX 8 19 1 0
BITMAP
FF
81
81
81
81
81
81
81
81
81
81
81
81
81
81
81
81
81
FF
ENDCHAR
STARTCHAR C0131
ENCODING 131
SWIDTH 443 0
DWIDTH 13 0
BBX 1 1 0 -1
BITMAP
00
ENDCHAR
STARTCHAR C0132
ENCODING 132
SWIDTH 374 0
DWIDTH 11 0
BBX 8 19 1 0
BITMAP
FF
81
81
81
81
81
81
81
81
81
81
81
81
81
81
81
81
81
FF
ENDCHAR
STARTCHAR C0133
ENCODING 133
SWIDTH 374 0
DWIDTH 11 0
BBX 8 19 1 0
BITMAP
FF
81
81
81
81
81
81
81
81
81
81
81
81
81
81
81
81
81
FF
ENDCHAR
STARTCHAR C0134
ENCODING 134
SWIDTH 374 0
DWIDTH 11 0
BBX 8 19 1 0
BITMAP
FF
81
81
81
81
81
81
81
81
81
81
81
81
81
81
81
81
81
FF
ENDCHAR
STARTCHAR C0135
ENCODING 135
SWIDTH 374 0
DWIDTH 11 0
BBX 8 19 1 0
BITMAP
FF
81
81
81
81
81
81
81
81
81
81
81
81
81
81
81
81
81
FF
ENDCHAR
STARTCHAR C0136
ENCODING 136
SWIDTH 374 0
DWIDTH 11 0
BBX 8 19 1 0
BITMAP
FF
81
81
81
81
81
81
81
81
81
81
81
81
81
81
81
81
81
FF
ENDCHAR
STARTCHAR C0137
ENCODING 137
SWIDTH 374 0
DWIDTH 11 0
BBX 8 19 1 0
BITMAP
FF
81
81
81
81
81
81
81
81
81
81
81
81
81
81
81
81
81
FF
ENDCHAR
STARTCHAR C0138
ENCODING 138
SWIDTH 443 0
DWIDTH 13 0
BBX 1 1 0 -1
BITMAP
00
ENDCHAR
STARTCHAR C0139
ENCODING 139
SWIDTH 374 0
DWIDTH 11 0
BBX 8 19 1 0
BITMAP
FF
81
81
81
81
81
81
81
81
81
81
81
81
81
81
81
81
81
FF
ENDCHAR
STARTCHAR C0140
ENCODING 140
SWIDTH 443 0
DWIDTH 13 0
BBX 15 20 -1 0
BITMAP
3FFE
7FFE
FFFE
E380
E380
E380
E380
E380
E3FC
E3FC
E3FC
E380
E380
E380
E380
E380
E780
FFFE
7FFE
3FFE
ENDCHAR
STARTCHAR C0141
ENCODING 141
SWIDTH 443 0
DWIDTH 13 0
BBX 1 1 0 -1
BITMAP
00
ENDCHAR
STARTCHAR C0142
ENCODING 142
SWIDTH 443 0
DWIDTH 13 0
BBX 1 1 0 -1
BITMAP
00
ENDCHAR
STARTCHAR C0143
ENCODING 143
SWIDTH 443 0
DWIDTH 13 0
BBX 1 1 0 -1
BITMAP
00
ENDCHAR
STARTCHAR C0144
ENCODING 144
SWIDTH 443 0
DWIDTH 13 0
BBX 1 1 0 -1
BITMAP
00
ENDCHAR
STARTCHAR C0145
ENCODING 145
SWIDTH 374 0
DWIDTH 11 0
BBX 8 19 1 0
BITMAP
FF
81
81
81
81
81
81
81
81
81
81
81
81
81
81
81
81
81
FF
ENDCHAR
STARTCHAR C0146
ENCODING 146
SWIDTH 374 0
DWIDTH 11 0
BBX 8 19 1 0
BITMAP
FF
81
81
81
81
81
81
81
81
81
81
81
81
81
81
81
81
81
FF
ENDCHAR
STARTCHAR C0147
ENCODING 147
SWIDTH 374 0
DWIDTH 11 0
BBX 8 19 1 0
BITMAP
FF
81
81
81
81
81
81
81
81
81
81
81
81
81
81
81
81
81
FF
ENDCHAR
STARTCHAR C0148
ENCODING 148
SWIDTH 374 0
DWIDTH 11 0
BBX 8 19 1 0
BITMAP
FF
81
81
81
81
81
81
81
81
81
81
81
81
81
81
81
81
81
FF
ENDCHAR
STARTCHAR C0149
ENCODING 149
SWIDTH 374 0
DWIDTH 11 0
BBX 8 19 1 0
BITMAP
FF
81
81
81
81
81
81
81
81
81
81
81
81
81
81
81
81
81
FF
ENDCHAR
STARTCHAR C0150
ENCODING 150
SWIDTH 374 0
DWIDTH 11 0
BBX 8 19 1 0
BITMAP
FF
81
81
81
81
81
81
81
81
81
81
81
81
81
81
81
81
81
FF
ENDCHAR
STARTCHAR C0151
ENCODING 151
SWIDTH 374 0
DWIDTH 11 0
BBX 8 19 1 0
BITMAP
FF
81
81
81
81
81
81
81
81
81
81
81
81
81
81
81
81
81
FF
ENDCHAR
STARTCHAR C0152
ENCODING 152
SWIDTH 374 0
DWIDTH 11 0
BBX 8 19 1 0
BITMAP
FF
81
81
81
81
81
81
81
81
81
81
81
81
81
81
81
81
81
FF
ENDCHAR
STARTCHAR C0153
ENCODING 153
SWIDTH 374 0
DWIDTH 11 0
BBX 8 19 1 0
BITMAP
FF
81
81
81
81
81
81
81
81
81
81
81
81
81
81
81
81
81
FF
ENDCHAR
STARTCHAR C0154
ENCODING 154
SWIDTH 443 0
DWIDTH 13 0
BBX 1 1 0 -1
BITMAP
00
ENDCHAR
STARTCHAR C0155
ENCODING 155
SWIDTH 374 0
DWIDTH 11 0
BBX 8 19 1 0
BITMAP
FF
81
81
81
81
81
81
81
81
81
81
81
81
81
81
81
81
81
FF
ENDCHAR
STARTCHAR C0156
ENCODING 156
SWIDTH 613 0
DWIDTH 18 0
BBX 16 15 1 0
BITMAP
3F7C
7FFE
73CE
E187
E187
E187
E1FF
E1FF
E1FF
E180
E187
E3C7
7FFE
3FFE
1E78
ENDCHAR
STARTCHAR C0157
ENCODING 157
SWIDTH 443 0
DWIDTH 13 0
BBX 1 1 0 -1
BITMAP
00
ENDCHAR
STARTCHAR C0158
ENCODING 158
SWIDTH 443 0
DWIDTH 13 0
BBX 1 1 0 -1
BITMAP
00
ENDCHAR
STARTCHAR C0159
ENCODING 159
SWIDTH 443 0
DWIDTH 13 0
BBX 1 1 0 -1
BITMAP
00
ENDCHAR
STARTCHAR C0160
ENCODING 160
SWIDTH 443 0
DWIDTH 13 0
BBX 1 1 0 -1
BITMAP
00
ENDCHAR
STARTCHAR C0161
ENCODING 161
SWIDTH 443 0
DWIDTH 13 0
BBX 1 1 0 -1
BITMAP
00
ENDCHAR
STARTCHAR C0162
ENCODING 162
SWIDTH 443 0
DWIDTH 13 0
BBX 1 1 0 -1
BITMAP
00
ENDCHAR
STARTCHAR C0163
ENCODING 163
SWIDTH 443 0
DWIDTH 13 0
BBX 11 21 1 0
BITMAP
0600
1F80
3FC0
39C0
30E0
3000
3000
3000
3000
FE00
FE00
FE00
3000
3000
3000
3000
3000
3000
FFE0
FFE0
FFE0
ENDCHAR
STARTCHAR C0164
ENCODING 164
SWIDTH 443 0
DWIDTH 13 0
BBX 1 1 0 -1
BITMAP
00
ENDCHAR
STARTCHAR C0165
ENCODING 165
SWIDTH 443 0
DWIDTH 13 0
BBX 1 1 0 -1
BITMAP
00
ENDCHAR
STARTCHAR C0166
ENCODING 166
SWIDTH 443 0
DWIDTH 13 0
BBX 1 1 0 -1
BITMAP
00
ENDCHAR
STARTCHAR C0167
ENCODING 167
SWIDTH 818 0
DWIDTH 24 0
BBX 21 15 1 0
BITMAP
0381E0
070180
0703C0
0F87C0
1DC7E0
1DCEE0
38EE70
38FC38
707838
707818
F07C18
F87C38
FFEFF0
9FCFF0
8F83C0
ENDCHAR
STARTCHAR C0168
ENCODING 168
SWIDTH 443 0
DWIDTH 13 0
BBX 1 1 0 -1
BITMAP
00
ENDCHAR
STARTCHAR C0169
ENCODING 169
SWIDTH 715 0
DWIDTH 21 0
BBX 18 21 1 0
BITMAP
008000
07FC00
0FFE00
1E0F00
380780
71F380
73F9C0
67F8C0
E71CC0
E01CC0
E01CC0
E01CC0
E71CC0
671CC0
63F9C0
71F1C0
388380
3C0780
1FFF00
0FFC00
03F000
ENDCHAR
STARTCHAR C0170
ENCODING 170
SWIDTH 443 0
DWIDTH 13 0
BBX 1 1 0 -1
BITMAP
00
ENDCHAR
STARTCHAR C0171
ENCODING 171
SWIDTH 443 0
DWIDTH 13 0
BBX 9 11 2 4
BITMAP
0880
1880
7B80
E700
CE00
8C00
EE00
7780
3980
1880
0880
ENDCHAR
STARTCHAR C0172
ENCODING 172
SWIDTH 443 0
DWIDTH 13 0
BBX 1 1 0 -1
BITMAP
00
ENDCHAR
STARTCHAR C0173
ENCODING 173
SWIDTH 443 0
DWIDTH 13 0
BBX 1 1 0 -1
BITMAP
00
ENDCHAR
STARTCHAR C0174
ENCODING 174
SWIDTH 443 0
DWIDTH 13 0
BBX 1 1 0 -1
BITMAP
00
ENDCHAR
STARTCHAR C0175
ENCODING 175
SWIDTH 443 0
DWIDTH 13 0
BBX 1 1 0 -1
BITMAP
00
ENDCHAR
STARTCHAR C0176
ENCODING 176
SWIDTH 272 0
DWIDTH 8 0
BBX 4 4 2 19
BITMAP
E0
B0
90
E0
ENDCHAR
STARTCHAR C0177
ENCODING 177
SWIDTH 443 0
DWIDTH 13 0
BBX 1 1 0 -1
BITMAP
00
ENDCHAR
STARTCHAR C0178
ENCODING 178
SWIDTH 443 0
DWIDTH 13 0
BBX 1 1 0 -1
BITMAP
00
ENDCHAR
STARTCHAR C0179
ENCODING 179
SWIDTH 443 0
DWIDTH 13 0
BBX 1 1 0 -1
BITMAP
00
ENDCHAR
STARTCHAR C0180
ENCODING 180
SWIDTH 443 0
DWIDTH 13 0
BBX 1 1 0 -1
BITMAP
00
ENDCHAR
STARTCHAR C0181
ENCODING 181
SWIDTH 443 0
DWIDTH 13 0
BBX 11 19 1 -4
BITMAP
E0E0
E0E0
E0E0
E0E0
E0E0
E0E0
E0E0
E0E0
E0E0
E0E0
E0E0
F0E0
FFE0
FFE0
FFE0
E000
E000
E000
E000
ENDCHAR
STARTCHAR C0182
ENCODING 182
SWIDTH 443 0
DWIDTH 13 0
BBX 1 1 0 -1
BITMAP
00
ENDCHAR
STARTCHAR C0183
ENCODING 183
SWIDTH 443 0
DWIDTH 13 0
BBX 1 1 0 -1
BITMAP
00
ENDCHAR
STARTCHAR C0184
ENCODING 184
SWIDTH 443 0
DWIDTH 13 0
BBX 1 1 0 -1
BITMAP
00
ENDCHAR
STARTCHAR C0185
ENCODING 185
SWIDTH 443 0
DWIDTH 13 0
BBX 1 1 0 -1
BITMAP
00
ENDCHAR
STARTCHAR C0186
ENCODING 186
SWIDTH 443 0
DWIDTH 13 0
BBX 1 1 0 -1
BITMAP
00
ENDCHAR
STARTCHAR C0187
ENCODING 187
SWIDTH 443 0
DWIDTH 13 0
BBX 9 11 2 4
BITMAP
8800
8C00
EF00
7380
3980
1880
3980
F780
CE00
8C00
8800
ENDCHAR
STARTCHAR C0188
ENCODING 188
SWIDTH 443 0
DWIDTH 13 0
BBX 1 1 0 -1
BITMAP
00
ENDCHAR
STARTCHAR C0189
ENCODING 189
SWIDTH 443 0
DWIDTH 13 0
BBX 1 1 0 -1
BITMAP
00
ENDCHAR
STARTCHAR C0190
ENCODING 190
SWIDTH 443 0
DWIDTH 13 0
BBX 1 1 0 -1
BITMAP
00
ENDCHAR
STARTCHAR C0191
ENCODING 191
SWIDTH 443 0
DWIDTH 13 0
BBX 1 1 0 -1
BITMAP
00
ENDCHAR
STARTCHAR C0192
ENCODING 192
SWIDTH 443 0
DWIDTH 13 0
BBX 11 25 1 0
BITMAP
1C00
0C00
0600
0300
0000
0E00
0E00
0E00
0F00
1F00
1F00
1F00
1B00
1B00
3B80
3B80
3B80
3180
3180
7FC0
7FC0
71C0
60C0
60C0
E0E0
ENDCHAR
STARTCHAR C0193
ENCODING 193
SWIDTH 443 0
DWIDTH 13 0
BBX 11 25 1 0
BITMAP
0300
0600
0E00
0C00
1000
0E00
0E00
0E00
0F00
1F00
1F00
1F00
1B00
1B00
3B80
3B80
3B80
3180
3180
7FC0
7FC0
71C0
60C0
60C0
E0E0
ENDCHAR
STARTCHAR C0194
ENCODING 194
SWIDTH 443 0
DWIDTH 13 0
BBX 11 25 1 0
BITMAP
0E00
0F00
1B00
3180
0000
0E00
0E00
0E00
0F00
1F00
1F00
1F00
1B00
1B00
3B80
3B80
3B80
3180
3180
7FC0
7FC0
71C0
60C0
60C0
E0E0
ENDCHAR
STARTCHAR C0195
ENCODING 195
SWIDTH 443 0
DWIDTH 13 0
BBX 1 1 0 -1
BITMAP
00
ENDCHAR
STARTCHAR C0196
ENCODING 196
SWIDTH 443 0
DWIDTH 13 0
BBX 11 25 1 0
BITMAP
1100
1B00
1B00
0000
0000
0E00
0E00
0E00
0F00
1F00
1F00
1F00
1B00
1B00
3B80
3B80
3B80
3180
3180
7FC0
7FC0
71C0
60C0
60C0
E0E0
ENDCHAR
STARTCHAR C0197
ENCODING 197
SWIDTH 443 0
DWIDTH 13 0
BBX 1 1 0 -1
BITMAP
00
ENDCHAR
STARTCHAR C0198
ENCODING 198
SWIDTH 443 0
DWIDTH 13 0
BBX 17 20 -2 0
BITMAP
01FF80
03FF80
03FF80
03E000
076000
076000
066000
0E6000
0E7F00
0C7F00
1C7F00
1C6000
186000
3FE000
3FE000
7FE000
706000
707F80
E07F80
E07F80
ENDCHAR
STARTCHAR C0199
ENCODING 199
SWIDTH 443 0
DWIDTH 13 0
BBX 1 1 0 -1
BITMAP
00
ENDCHAR
STARTCHAR C0200
ENCODING 200
SWIDTH 443 0
DWIDTH 13 0
BBX 11 25 1 0
BITMAP
1C00
0C00
0600
0300
0000
FFE0
FFE0
E000
E000
E000
E000
E000
E000
E000
FF00
FF00
E000
E000
E000
E000
E000
E000
FFE0
FFE0
FFE0
ENDCHAR
STARTCHAR C0201
ENCODING 201
SWIDTH 443 0
DWIDTH 13 0
BBX 11 25 1 0
BITMAP
0300
0600
0E00
0C00
1000
FFE0
FFE0
E000
E000
E000
E000
E000
E000
E000
FF00
FF00
E000
E000
E000
E000
E000
E000
FFE0
FFE0
FFE0
ENDCHAR
STARTCHAR C0202
ENCODING 202
SWIDTH 443 0
DWIDTH 13 0
BBX 11 25 1 0
BITMAP
0E00
0F00
1B00
3180
0000
FFE0
FFE0
E000
E000
E000
E000
E000
E000
E000
FF00
FF00
E000
E000
E000
E000
E000
E000
FFE0
FFE0
FFE0
ENDCHAR
STARTCHAR C0203
ENCODING 203
SWIDTH 443 0
DWIDTH 13 0
BBX 11 25 1 0
BITMAP
1100
1B00
1B00
0000
0000
FFE0
FFE0
E000
E000
E000
E000
E000
E000
E000
FF00
FF00
E000
E000
E000
E000
E000
E000
FFE0
FFE0
FFE0
ENDCHAR
STARTCHAR C0204
ENCODING 204
SWIDTH 443 0
DWIDTH 13 0
BBX 5 25 4 0
BITMAP
E0
60
30
18
00
70
70
70
70
70
70
70
70
70
70
70
70
70
70
70
70
70
70
70
70
ENDCHAR
STARTCHAR C0205
ENCODING 205
SWIDTH 443 0
DWIDTH 13 0
BBX 5 25 4 0
BITMAP
18
30
70
60
80
70
70
70
70
70
70
70
70
70
70
70
70
70
70
70
70
70
70
70
70
ENDCHAR
STARTCHAR C0206
ENCODING 206
SWIDTH 443 0
DWIDTH 13 0
BBX 7 25 3 0
BITMAP
38
3C
6C
C6
00
38
38
38
38
38
38
38
38
38
38
38
38
38
38
38
38
38
38
38
38
ENDCHAR
STARTCHAR C0207
ENCODING 207
SWIDTH 443 0
DWIDTH 13 0
BBX 5 25 4 0
BITMAP
88
D8
D8
00
00
70
70
70
70
70
70
70
70
70
70
70
70
70
70
70
70
70
70
70
70
ENDCHAR
STARTCHAR C0208
ENCODING 208
SWIDTH 443 0
DWIDTH 13 0
BBX 1 1 0 -1
BITMAP
00
ENDCHAR
STARTCHAR C0209
ENCODING 209
SWIDTH 443 0
DWIDTH 13 0
BBX 1 1 0 -1
BITMAP
00
ENDCHAR
STARTCHAR C0210
ENCODING 210
SWIDTH 443 0
DWIDTH 13 0
BBX 11 25 1 0
BITMAP
1C00
0C00
0600
0300
0000
1F00
3F80
71C0
60C0
E0E0
E0E0
E0E0
E0E0
E0E0
E0E0
E0E0
E0E0
E0E0
E0E0
E0E0
E0E0
70C0
7FC0
3F80
1F00
ENDCHAR
STARTCHAR C0211
ENCODING 211
SWIDTH 443 0
DWIDTH 13 0
BBX 11 25 1 0
BITMAP
0300
0600
0E00
0C00
1000
1F00
3F80
71C0
60C0
E0E0
E0E0
E0E0
E0E0
E0E0
E0E0
E0E0
E0E0
E0E0
E0E0
E0E0
E0E0
70C0
7FC0
3F80
1F00
ENDCHAR
STARTCHAR C0212
ENCODING 212
SWIDTH 443 0
DWIDTH 13 0
BBX 11 25 1 0
BITMAP
0E00
0F00
1B00
3180
0000
1F00
3F80
71C0
60C0
E0E0
E0E0
E0E0
E0E0
E0E0
E0E0
E0E0
E0E0
E0E0
E0E0
E0E0
E0E0
70C0
7FC0
3F80
1F00
ENDCHAR
STARTCHAR C0213
ENCODING 213
SWIDTH 443 0
DWIDTH 13 0
BBX 11 20 1 0
BITMAP
1F00
3F80
71C0
60C0
E0E0
E0E0
E0E0
E0E0
E0E0
E0E0
E0E0
E0E0
E0E0
E0E0
E0E0
E0E0
70C0
7FC0
3F80
1F00
ENDCHAR
STARTCHAR C0214
ENCODING 214
SWIDTH 443 0
DWIDTH 13 0
BBX 11 25 1 0
BITMAP
1100
1B00
1B00
0000
0000
1F00
3F80
71C0
60C0
E0E0
E0E0
E0E0
E0E0
E0E0
E0E0
E0E0
E0E0
E0E0
E0E0
E0E0
E0E0
70C0
7FC0
3F80
1F00
ENDCHAR
STARTCHAR C0215
ENCODING 215
SWIDTH 443 0
DWIDTH 13 0
BBX 1 1 0 -1
BITMAP
00
ENDCHAR
STARTCHAR C0216
ENCODING 216
SWIDTH 443 0
DWIDTH 13 0
BBX 1 1 0 -1
BITMAP
00
ENDCHAR
STARTCHAR C0217
ENCODING 217
SWIDTH 443 0
DWIDTH 13 0
BBX 11 25 1 0
BITMAP
1C00
0C00
0600
0300
0000
E0E0
E0E0
E0E0
E0E0
E0E0
E0E0
E0E0
E0E0
E0E0
E0E0
E0E0
E0E0
E0E0
E0E0
E0E0
E0E0
70C0
7FC0
3F80
1F00
ENDCHAR
STARTCHAR C0218
ENCODING 218
SWIDTH 443 0
DWIDTH 13 0
BBX 11 25 1 0
BITMAP
0300
0600
0E00
0C00
1000
E0E0
E0E0
E0E0
E0E0
E0E0
E0E0
E0E0
E0E0
E0E0
E0E0
E0E0
E0E0
E0E0
E0E0
E0E0
E0E0
70C0
7FC0
3F80
1F00
ENDCHAR
STARTCHAR C0219
ENCODING 219
SWIDTH 443 0
DWIDTH 13 0
BBX 11 25 1 0
BITMAP
0E00
0F00
1B00
3180
0000
E0E0
E0E0
E0E0
E0E0
E0E0
E0E0
E0E0
E0E0
E0E0
E0E0
E0E0
E0E0
E0E0
E0E0
E0E0
E0E0
70C0
7FC0
3F80
1F00
ENDCHAR
STARTCHAR C0220
ENCODING 220
SWIDTH 443 0
DWIDTH 13 0
BBX 11 25 1 0
BITMAP
1100
1B00
1B00
0000
0000
E0E0
E0E0
E0E0
E0E0
E0E0
E0E0
E0E0
E0E0
E0E0
E0E0
E0E0
E0E0
E0E0
E0E0
E0E0
E0E0
70C0
7FC0
3F80
1F00
ENDCHAR
STARTCHAR C0221
ENCODING 221
SWIDTH 443 0
DWIDTH 13 0
BBX 1 1 0 -1
BITMAP
00
ENDCHAR
STARTCHAR C0222
ENCODING 222
SWIDTH 443 0
DWIDTH 13 0
BBX 1 1 0 -1
BITMAP
00
ENDCHAR
STARTCHAR C0223
ENCODING 223
SWIDTH 443 0
DWIDTH 13 0
BBX 11 21 1 0
BITMAP
0C00
3F00
7F80
7380
E180
E180
E380
EF80
EF80
E3C0
E0C0
E0E0
E0E0
E0E0
E0E0
E0E0
E0E0
E0C0
EFC0
EF80
EF00
ENDCHAR
STARTCHAR C0224
ENCODING 224
SWIDTH 477 0
DWIDTH 14 0
BBX 12 21 1 0
BITMAP
1C00
0C00
0600
0700
0000
0000
1F80
3FC0
71C0
70E0
70E0
00E0
1FE0
3FE0
7FE0
E0E0
E0E0
E0E0
7FF0
3FF0
1F30
ENDCHAR
STARTCHAR C0225
ENCODING 225
SWIDTH 477 0
DWIDTH 14 0
BBX 12 21 1 0
BITMAP
0700
0600
0C00
1C00
0000
0000
1F80
3FC0
71C0
70E0
70E0
00E0
1FE0
3FE0
7FE0
E0E0
E0E0
E0E0
7FF0
3FF0
1F30
ENDCHAR
STARTCHAR C0226
ENCODING 226
SWIDTH 477 0
DWIDTH 14 0
BBX 12 21 1 0
BITMAP
0C00
1E00
3B00
3300
4080
0000
1F80
3FC0
71C0
70E0
70E0
00E0
1FE0
3FE0
7FE0
E0E0
E0E0
E0E0
7FF0
3FF0
1F30
ENDCHAR
STARTCHAR C0227
ENCODING 227
SWIDTH 443 0
DWIDTH 13 0
BBX 1 1 0 -1
BITMAP
00
ENDCHAR
STARTCHAR C0228
ENCODING 228
SWIDTH 477 0
DWIDTH 14 0
BBX 12 20 1 0
BITMAP
1B00
1B00
1B00
0000
0000
1F80
3FC0
71C0
70E0
70E0
00E0
1FE0
3FE0
7FE0
E0E0
E0E0
E0E0
7FF0
3FF0
1F30
ENDCHAR
STARTCHAR C0229
ENCODING 229
SWIDTH 443 0
DWIDTH 13 0
BBX 1 1 0 -1
BITMAP
00
ENDCHAR
STARTCHAR C0230
ENCODING 230
SWIDTH 613 0
DWIDTH 18 0
BBX 16 15 1 0
BITMAP
3F7C
7FFE
73CF
E187
0187
0187
3FFF
7FFF
7FFF
E180
E187
E3C7
7FFE
7FFE
3C78
ENDCHAR
STARTCHAR C0231
ENCODING 231
SWIDTH 443 0
DWIDTH 13 0
BBX 11 19 1 -4
BITMAP
1F00
3F80
7BC0
60C0
E0E0
E000
E000
E000
E000
E000
E0E0
60C0
7BC0
3F80
1F00
0E00
3E00
3E00
3E00
ENDCHAR
STARTCHAR C0232
ENCODING 232
SWIDTH 443 0
DWIDTH 13 0
BBX 11 21 1 0
BITMAP
1C00
0C00
0600
0700
0000
0000
1F00
3FC0
71C0
60E0
E0E0
E0E0
FFE0
FFE0
FFE0
E000
E000
70C0
7FC0
3F80
1F00
ENDCHAR
STARTCHAR C0233
ENCODING 233
SWIDTH 443 0
DWIDTH 13 0
BBX 11 21 1 0
BITMAP
0700
0600
0C00
1C00
0000
0000
1F00
3FC0
71C0
60E0
E0E0
E0E0
FFE0
FFE0
FFE0
E000
E000
70C0
7FC0
3F80
1F00
ENDCHAR
STARTCHAR C0234
ENCODING 234
SWIDTH 443 0
DWIDTH 13 0
BBX 11 21 1 0
BITMAP
0E00
0F00
1B00
3180
0000
0000
1F00
3FC0
71C0
60E0
E0E0
E0E0
FFE0
FFE0
FFE0
E000
E000
70C0
7FC0
3F80
1F00
ENDCHAR
STARTCHAR C0235
ENCODING 235
SWIDTH 443 0
DWIDTH 13 0
BBX 11 20 1 0
BITMAP
1B00
1B00
1B00
0000
0000
1F00
3FC0
71C0
60E0
E0E0
E0E0
FFE0
FFE0
FFE0
E000
E000
70C0
7FC0
3F80
1F00
ENDCHAR
STARTCHAR C0236
ENCODING 236
SWIDTH 272 0
DWIDTH 8 0
BBX 5 21 1 0
BITMAP
C0
60
70
30
08
00
60
60
60
60
60
60
60
60
60
60
60
60
78
38
18
ENDCHAR
STARTCHAR C0237
ENCODING 237
SWIDTH 272 0
DWIDTH 8 0
BBX 6 21 1 0
BITMAP
1C
38
30
60
80
00
60
60
60
60
60
60
60
60
60
60
60
60
78
38
18
ENDCHAR
STARTCHAR C0238
ENCODING 238
SWIDTH 272 0
DWIDTH 8 0
BBX 8 21 -1 0
BITMAP
1C
3C
36
66
81
00
18
18
18
18
18
18
18
18
18
18
18
1C
1E
0E
06
ENDCHAR
STARTCHAR C0239
ENCODING 239
SWIDTH 272 0
DWIDTH 8 0
BBX 6 21 1 0
BITMAP
48
DC
D8
00
00
00
70
70
70
70
70
70
70
70
70
70
70
70
78
38
18
ENDCHAR
STARTCHAR C0240
ENCODING 240
SWIDTH 443 0
DWIDTH 13 0
BBX 1 1 0 -1
BITMAP
00
ENDCHAR
STARTCHAR C0241
ENCODING 241
SWIDTH 443 0
DWIDTH 13 0
BBX 1 1 0 -1
BITMAP
00
ENDCHAR
STARTCHAR C0242
ENCODING 242
SWIDTH 443 0
DWIDTH 13 0
BBX 11 25 1 0
BITMAP
1800
1C00
0E00
0600
0100
0000
0000
0000
0000
0000
1F00
3FC0
71C0
60E0
E0E0
E0E0
E0E0
E0E0
E0E0
E0E0
E0E0
71C0
7FC0
3F80
1F00
ENDCHAR
STARTCHAR C0243
ENCODING 243
SWIDTH 443 0
DWIDTH 13 0
BBX 11 21 1 0
BITMAP
0700
0600
0C00
1C00
0000
0000
1F00
3FC0
71C0
60E0
E0E0
E0E0
E0E0
E0E0
E0E0
E0E0
E0E0
71C0
7FC0
3F80
1F00
ENDCHAR
STARTCHAR C0244
ENCODING 244
SWIDTH 443 0
DWIDTH 13 0
BBX 11 21 1 0
BITMAP
0E00
0F00
1B00
3180
0000
0000
1F00
3FC0
71C0
60E0
E0E0
E0E0
E0E0
E0E0
E0E0
E0E0
E0E0
71C0
7FC0
3F80
1F00
ENDCHAR
STARTCHAR C0245
ENCODING 245
SWIDTH 443 0
DWIDTH 13 0
BBX 11 15 1 0
BITMAP
1F00
3FC0
71C0
60E0
E0E0
E0E0
E0E0
E0E0
E0E0
E0E0
E0E0
71C0
7FC0
3F80
1F00
ENDCHAR
STARTCHAR C0246
ENCODING 246
SWIDTH 443 0
DWIDTH 13 0
BBX 11 20 1 0
BITMAP
1B00
1B00
1B00
0000
0000
1F00
3FC0
71C0
60E0
E0E0
E0E0
E0E0
E0E0
E0E0
E0E0
E0E0
71C0
7FC0
3F80
1F00
ENDCHAR
STARTCHAR C0247
ENCODING 247
SWIDTH 443 0
DWIDTH 13 0
BBX 7 12 3 2
BITMAP
10
38
30
00
00
FE
FE
FE
00
10
38
30
ENDCHAR
STARTCHAR C0248
ENCODING 248
SWIDTH 443 0
DWIDTH 13 0
BBX 11 21 1 0
BITMAP
04E0
3FC0
7FC0
71C0
E1E0
E3E0
E3E0
E7E0
E7E0
E6E0
EEE0
EEE0
ECE0
FCE0
F8E0
F8E0
F8E0
71C0
7FC0
7F80
FF00
ENDCHAR
STARTCHAR C0249
ENCODING 249
SWIDTH 443 0
DWIDTH 13 0
BBX 11 21 1 0
BITMAP
1C00
0C00
0600
0700
0000
0000
E0E0
E0E0
E0E0
E0E0
E0E0
E0E0
E0E0
E0E0
E0E0
E0E0
E0E0
70E0
7FE0
3FE0
1FE0
ENDCHAR
STARTCHAR C0250
ENCODING 250
SWIDTH 443 0
DWIDTH 13 0
BBX 11 21 1 0
BITMAP
0700
0600
0C00
1C00
0000
0000
E0E0
E0E0
E0E0
E0E0
E0E0
E0E0
E0E0
E0E0
E0E0
E0E0
E0E0
70E0
7FE0
3FE0
1FE0
ENDCHAR
STARTCHAR C0251
ENCODING 251
SWIDTH 443 0
DWIDTH 13 0
BBX 11 21 1 0
BITMAP
0E00
0F00
1B00
3180
0000
0000
E0E0
E0E0
E0E0
E0E0
E0E0
E0E0
E0E0
E0E0
E0E0
E0E0
E0E0
70E0
7FE0
3FE0
1FE0
ENDCHAR
STARTCHAR C0252
ENCODING 252
SWIDTH 443 0
DWIDTH 13 0
BBX 11 20 1 0
BITMAP
1B00
1B00
1B00
0000
0000
E0E0
E0E0
E0E0
E0E0
E0E0
E0E0
E0E0
E0E0
E0E0
E0E0
E0E0
70E0
7FE0
3FE0
1FE0
ENDCHAR
STARTCHAR C0253
ENCODING 253
SWIDTH 443 0
DWIDTH 13 0
BBX 1 1 0 -1
BITMAP
00
ENDCHAR
STARTCHAR C0254
ENCODING 254
SWIDTH 443 0
DWIDTH 13 0
BBX 1 1 0 -1
BITMAP
00
ENDCHAR
STARTCHAR C0255
ENCODING 255
SWIDTH 443 0
DWIDTH 13 0
BBX 1 1 0 -1
BITMAP
00
ENDCHAR
ENDFONT

